<?xml version="1.0" standalone="no"?>
<!DOCTYPE svg PUBLIC "-//W3C//DTD SVG 20010904//EN"
 "http://www.w3.org/TR/2001/REC-SVG-20010904/DTD/svg10.dtd">
<svg version="1.0" xmlns="http://www.w3.org/2000/svg"
 width="700.000000pt" height="700.000000pt" viewBox="0 0 700.000000 700.000000"
 preserveAspectRatio="xMidYMid meet">
<metadata>
Created by potrace 1.11, written by Peter Selinger 2001-2013
</metadata>
<g transform="translate(0.000000,700.000000) scale(0.100000,-0.100000)"
fill="#000000" stroke="none">
<path d="M3022 5883 c-26 -69 -1592 -4772 -1592 -4782 0 -13 956 -16 964 -3 2
4 53 167 111 362 59 195 113 373 120 395 7 22 29 99 51 170 21 72 39 132 41
134 3 5 1563 5 1567 0 1 -2 74 -244 162 -536 l159 -533 483 0 c343 0 482 3
482 11 0 9 -1279 3849 -1542 4632 l-60 177 -468 0 -468 0 -10 -27z m529 -1234
c28 -96 52 -181 55 -189 9 -36 34 -121 59 -205 15 -49 33 -112 40 -140 8 -27
59 -207 115 -400 56 -192 121 -420 145 -505 24 -86 49 -168 54 -184 6 -15 11
-35 11 -45 0 -16 -32 -17 -537 -17 -436 1 -537 4 -535 14 4 21 52 191 172 602
61 212 113 392 115 400 4 20 235 821 241 839 2 8 7 11 10 8 3 -2 28 -83 55
-178z"/>
</g>
</svg>
