<svg aria-hidden="true" style="position: absolute; width: 0; height: 0; overflow: hidden;" version="1.1" xmlns="http://www.w3.org/2000/svg" xmlns:xlink="http://www.w3.org/1999/xlink">
<defs>
<symbol id="icon-logo" viewBox="0 0 32 32">
<title>logo</title>
<path d="M20.781 2.697c-0.039 0.014-0.114 0.033-0.167 0.042-0.056 0.008-0.108 0.022-0.117 0.028-0.011 0.006-0.069 0.017-0.131 0.025-0.153 0.019-0.256 0.061-0.258 0.103-0.011 0.133 0.006 0.258 0.044 0.383 0.017 0.053 0.031 0.117 0.056 0.261 0.008 0.044 0.028 0.1 0.039 0.125 0.014 0.025 0.025 0.053 0.028 0.067 0.003 0.058 0.036 0.239 0.058 0.325 0.044 0.172 0.086 0.347 0.097 0.403 0.006 0.031 0.028 0.15 0.053 0.264 0.022 0.114 0.050 0.244 0.058 0.292 0.006 0.044 0.019 0.111 0.028 0.144 0.086 0.381 0.106 0.503 0.106 0.681 0 0.133-0.014 0.197-0.047 0.231-0.025 0.025-0.044 0.058-0.044 0.072 0 0.042-0.225 0.131-0.306 0.125-0.039-0.003-0.097-0.019-0.128-0.039-0.061-0.033-0.189-0.267-0.222-0.408-0.011-0.047-0.028-0.097-0.039-0.111-0.011-0.017-0.028-0.067-0.036-0.111-0.031-0.178-0.092-0.406-0.15-0.569-0.008-0.022-0.019-0.061-0.022-0.083-0.003-0.036-0.161-0.694-0.236-1-0.014-0.053-0.039-0.161-0.056-0.236-0.019-0.078-0.044-0.169-0.056-0.208-0.014-0.039-0.031-0.114-0.036-0.167-0.022-0.183-0.081-0.261-0.186-0.256-0.047 0-0.281 0.039-0.361 0.058-0.053 0.011-0.108 0.025-0.125 0.028-0.122 0.022-0.242 0.075-0.261 0.111-0.022 0.050-0.022 0.064 0.011 0.197 0.011 0.053 0.025 0.122 0.031 0.153 0.003 0.031 0.008 0.056 0.011 0.056s0.008 0.019 0.014 0.042c0.006 0.022 0.058 0.217 0.114 0.431 0.053 0.214 0.103 0.408 0.108 0.431 0.019 0.097 0.1 0.406 0.117 0.444 0.008 0.022 0.019 0.067 0.022 0.097s0.028 0.131 0.053 0.222c0.028 0.092 0.053 0.203 0.061 0.247 0.006 0.044 0.022 0.094 0.036 0.111 0.011 0.017 0.019 0.058 0.017 0.092-0.003 0.036 0.003 0.064 0.014 0.064s0.019 0.017 0.022 0.033c0.036 0.358 0.261 0.844 0.483 1.033 0.167 0.139 0.164 0.136 0.272 0.178 0.169 0.064 0.203 0.069 0.428 0.075 0.292 0.008 0.489-0.039 0.664-0.158 0.042-0.031 0.075-0.050 0.078-0.044 0.006 0.019 0.022 0.125 0.036 0.231 0.017 0.117 0.025 0.153 0.056 0.264 0.008 0.039 0.022 0.106 0.028 0.153 0.017 0.114 0.039 0.231 0.072 0.361 0.014 0.061 0.031 0.142 0.036 0.181s0.044 0.258 0.089 0.492c0.061 0.322 0.089 0.417 0.114 0.394 0.017-0.014 0.089-0.033 0.156-0.039 0.067-0.008 0.225-0.044 0.353-0.083 0.131-0.039 0.258-0.069 0.286-0.069 0.047 0 0.050-0.017 0.033-0.189-0.008-0.103-0.017-0.211-0.017-0.242s-0.042-0.231-0.094-0.444c-0.050-0.214-0.097-0.439-0.108-0.503-0.008-0.061-0.028-0.153-0.042-0.2-0.014-0.050-0.017-0.089-0.008-0.089s0-0.017-0.017-0.039c-0.019-0.022-0.036-0.081-0.042-0.133-0.011-0.092-0.031-0.194-0.058-0.328-0.008-0.039-0.022-0.1-0.031-0.139-0.006-0.039-0.019-0.1-0.031-0.139-0.008-0.039-0.019-0.094-0.022-0.125s-0.033-0.186-0.069-0.347c-0.033-0.161-0.064-0.311-0.069-0.333s-0.019-0.092-0.033-0.153c-0.014-0.061-0.025-0.142-0.025-0.181 0.003-0.039-0.006-0.075-0.017-0.083s-0.022-0.058-0.025-0.111c-0.006-0.053-0.014-0.111-0.022-0.125-0.008-0.017-0.017-0.042-0.019-0.056-0.003-0.017-0.014-0.072-0.025-0.125-0.008-0.053-0.022-0.139-0.031-0.192-0.006-0.050-0.019-0.103-0.028-0.117-0.006-0.014-0.019-0.058-0.025-0.1-0.006-0.044-0.017-0.108-0.025-0.147s-0.036-0.175-0.058-0.306c-0.025-0.131-0.056-0.286-0.069-0.347s-0.036-0.156-0.047-0.208c-0.011-0.053-0.019-0.103-0.022-0.111-0.025-0.117-0.042-0.2-0.056-0.292-0.011-0.061-0.022-0.125-0.028-0.139-0.006-0.017-0.017-0.056-0.028-0.092-0.022-0.067-0.092-0.078-0.206-0.031z"></path>
<path d="M16.683 3.858c-0.036 0.058-0.233 0.558-0.219 0.558 0.008 0 0.003 0.017-0.011 0.033-0.017 0.019-0.044 0.106-0.064 0.189s-0.042 0.164-0.053 0.181c-0.008 0.014-0.017 0.039-0.019 0.056-0.003 0.014-0.044 0.164-0.089 0.333-0.078 0.278-0.125 0.522-0.158 0.792-0.008 0.053-0.022 0.158-0.031 0.236-0.047 0.35-0.008 1.631 0.056 1.917 0.006 0.014 0.017 0.089 0.028 0.167 0.011 0.075 0.025 0.169 0.031 0.208s0.022 0.111 0.039 0.161c0.014 0.050 0.028 0.092 0.025 0.097-0.003 0.011 0.064 0.261 0.119 0.439 0.031 0.103 0.078 0.206 0.106 0.231 0.056 0.050 0.15 0.047 0.203-0.006 0.019-0.019 0.044-0.033 0.056-0.033 0.014 0 0.092-0.047 0.169-0.108 0.278-0.206 1.111-0.658 1.503-0.819 0.125-0.053 0.294-0.125 0.381-0.164s0.167-0.064 0.175-0.056c0.008 0.011 0.017 0.003 0.017-0.014 0-0.019 0.008-0.031 0.022-0.028 0.017 0.003 0.106-0.028 0.242-0.086 0.103-0.044 0.417-0.164 0.522-0.2 0.058-0.022 0.119-0.053 0.133-0.069 0.036-0.044-0.025-0.4-0.069-0.403-0.1-0.003-0.778 0.008-0.906 0.017-0.208 0.014-0.519 0.042-0.639 0.056-0.164 0.019-0.394 0.042-0.556 0.056-0.083 0.008-0.194 0.025-0.244 0.039-0.089 0.028-0.094 0.025-0.133-0.069-0.033-0.081-0.069-0.242-0.167-0.742-0.047-0.247-0.006-1.586 0.058-1.881 0.011-0.047 0.022-0.114 0.028-0.147 0.003-0.033 0.022-0.117 0.039-0.186 0.061-0.256 0.056-0.269-0.225-0.533-0.242-0.228-0.331-0.281-0.367-0.219z"></path>
<path d="M24.444 3.856c-0.103 0.028-0.303 0.139-0.431 0.239-0.122 0.094-0.542 0.525-0.542 0.558 0 0.011-0.175 0.3-0.194 0.319-0.025 0.025-0.161 0.311-0.222 0.472-0.183 0.467-0.217 0.672-0.239 1.467-0.011 0.517 0.003 0.644 0.072 0.644 0.014 0 0.083-0.117 0.153-0.258 0.208-0.422 0.683-1.019 1.156-1.45 0.067-0.064 0.247-0.214 0.4-0.339 0.367-0.294 0.525-0.461 0.622-0.653 0.072-0.136 0.081-0.183 0.078-0.361-0.011-0.403-0.231-0.639-0.6-0.653-0.1-0.003-0.214 0.003-0.253 0.014z"></path>
<path d="M15.067 3.897c-0.131 0.069-0.281 0.256-0.383 0.478-0.028 0.061-0.075 0.142-0.1 0.181-0.061 0.086-0.208 0.467-0.253 0.653-0.019 0.075-0.042 0.153-0.056 0.167-0.011 0.017-0.028 0.067-0.036 0.111-0.006 0.047-0.014 0.083-0.017 0.083s-0.008 0.044-0.011 0.097c-0.003 0.053-0.014 0.111-0.022 0.125-0.008 0.017-0.025 0.097-0.036 0.181-0.008 0.083-0.022 0.197-0.031 0.25-0.006 0.053-0.017 0.275-0.025 0.489-0.008 0.217-0.022 0.422-0.031 0.458-0.006 0.036-0.014 0.208-0.014 0.381l-0.003 0.317-0.072-0.067c-0.042-0.033-0.111-0.097-0.158-0.139-0.092-0.081-0.156-0.136-0.375-0.328-0.081-0.069-0.186-0.167-0.236-0.217-0.050-0.047-0.097-0.089-0.106-0.089s-0.075-0.058-0.153-0.133c-0.075-0.072-0.253-0.236-0.394-0.367-0.139-0.131-0.508-0.483-0.817-0.789-0.306-0.303-0.586-0.569-0.619-0.592-0.081-0.056-0.197-0.031-0.389 0.078-0.197 0.108-0.253 0.156-0.3 0.25-0.036 0.064-0.025 0.094 0.117 0.389 0.083 0.175 0.161 0.322 0.169 0.331 0.011 0.008 0.033 0.044 0.053 0.083s0.147 0.306 0.289 0.597c0.139 0.289 0.256 0.539 0.258 0.556 0.006 0.028 0.058 0.181 0.103 0.278 0.081 0.186 0.161 0.414 0.178 0.492 0.011 0.050 0.031 0.103 0.042 0.119 0.014 0.014 0.025 0.039 0.028 0.056 0.014 0.061 0.164 0.567 0.186 0.625 0.022 0.053 0.019 0.050 0.047 0.167 0.014 0.053 0.033 0.108 0.044 0.125 0.025 0.036 0.2 0.675 0.208 0.764 0.003 0.039 0.014 0.089 0.022 0.111 0.011 0.022 0.025 0.078 0.033 0.125 0.022 0.108 0.025 0.119 0.067 0.25 0.044 0.144 0.050 0.164 0.056 0.189 0 0.011 0.022 0.058 0.047 0.106 0.039 0.081 0.050 0.083 0.144 0.067 0.056-0.011 0.114-0.028 0.131-0.036 0.014-0.011 0.053-0.022 0.083-0.025 0.031-0.006 0.058-0.022 0.064-0.036s0.028-0.017 0.050-0.008c0.022 0.008 0.061-0.003 0.086-0.022 0.025-0.022 0.050-0.036 0.056-0.031 0.022 0.019 0.308-0.161 0.328-0.208 0.036-0.083 0.031-0.122-0.050-0.364-0.042-0.128-0.069-0.244-0.061-0.256 0.008-0.014 0.003-0.031-0.011-0.039-0.011-0.008-0.033-0.056-0.044-0.106s-0.025-0.106-0.031-0.119c-0.006-0.017-0.014-0.061-0.022-0.1s-0.033-0.125-0.056-0.189c-0.025-0.061-0.036-0.114-0.031-0.114 0.008 0 0.003-0.028-0.011-0.064s-0.033-0.108-0.042-0.161c-0.008-0.053-0.047-0.192-0.086-0.311-0.039-0.122-0.075-0.239-0.081-0.264-0.008-0.047-0.028-0.1-0.075-0.228-0.019-0.047 0.022-0.017 0.131 0.097 0.744 0.778 1.086 1.111 1.331 1.297 0.047 0.033 0.089 0.069 0.097 0.078 0.042 0.044 0.306 0.25 0.319 0.25 0.011 0 0.033 0.017 0.056 0.033 0.056 0.053 0.175 0.142 0.258 0.189 0.042 0.025 0.131 0.078 0.197 0.122s0.136 0.081 0.153 0.083c0.017 0.003 0.083 0.039 0.147 0.081 0.067 0.042 0.139 0.075 0.164 0.075 0.128 0 0.583-0.367 0.606-0.489 0.008-0.036-0.017-0.092-0.061-0.144-0.108-0.125-0.431-0.775-0.506-1.019-0.019-0.061-0.053-0.136-0.072-0.167-0.022-0.031-0.039-0.075-0.039-0.103 0-0.025-0.017-0.089-0.039-0.139-0.056-0.122-0.153-0.447-0.167-0.542-0.006-0.044-0.017-0.097-0.025-0.119-0.044-0.125-0.053-0.161-0.064-0.236-0.008-0.047-0.025-0.142-0.042-0.214-0.053-0.233-0.081-0.639-0.081-1.217-0.003-0.436 0.006-0.55 0.053-0.778 0.014-0.069 0.031-0.181 0.039-0.25s0.028-0.156 0.042-0.194c0.014-0.039 0.028-0.078 0.028-0.092 0.006-0.036 0.083-0.275 0.156-0.475 0.078-0.217 0.067-0.283-0.058-0.367-0.139-0.092-0.217-0.119-0.275-0.086z"></path>
<path d="M8.347 4.719c-0.239 0.106-0.242 0.433-0.006 0.572 0.086 0.050 0.239 0.097 0.344 0.106 0.033 0.003 0.067 0.014 0.078 0.025s0.036 0.011 0.058 0.003c0.022-0.008 0.075 0 0.117 0.014 0.042 0.017 0.114 0.036 0.158 0.044 0.083 0.011 0.1 0.017 0.25 0.075 0.047 0.019 0.089 0.036 0.097 0.039 0.058 0.019 0.147 0.067 0.286 0.147 0.089 0.053 0.167 0.089 0.172 0.083 0.017-0.014-0.108-0.25-0.225-0.425-0.267-0.408-0.681-0.675-1.078-0.697-0.108-0.006-0.222 0-0.253 0.014z"></path>
<path d="M8.433 6.103c-0.003 0.003-0.067 0.014-0.144 0.022-0.511 0.058-1.083 0.319-1.369 0.625-0.133 0.142-0.253 0.297-0.253 0.331 0 0.017-0.011 0.031-0.028 0.031-0.014 0-0.028 0.014-0.028 0.031s-0.039 0.111-0.086 0.206c-0.047 0.094-0.089 0.197-0.094 0.225s-0.011 0.056-0.014 0.058c-0.011 0.014-0.058 0.258-0.061 0.306 0 0.014-0.011 0.047-0.022 0.078s-0.031 0.15-0.042 0.264c-0.042 0.397-0.022 0.739 0.069 1.153 0.058 0.258 0.075 0.333 0.106 0.408 0.019 0.044 0.025 0.078 0.017 0.078-0.011 0-0.006 0.017 0.008 0.033 0.017 0.019 0.050 0.106 0.078 0.189 0.083 0.261 0.381 0.833 0.55 1.064 0.292 0.394 0.744 0.806 1.083 0.983 0.047 0.025 0.203 0.083 0.342 0.131 0.422 0.144 0.881 0.111 1.4-0.094 0.367-0.144 0.753-0.444 0.967-0.75 0.072-0.1 0.136-0.186 0.147-0.194 0.039-0.031 0.192-0.397 0.247-0.6 0.083-0.308 0.1-0.558 0.069-1.081-0.011-0.186-0.025-0.278-0.050-0.361-0.008-0.031-0.022-0.1-0.031-0.153s-0.028-0.142-0.044-0.194c-0.017-0.053-0.036-0.122-0.042-0.156-0.008-0.031-0.050-0.147-0.094-0.256-0.047-0.111-0.078-0.2-0.072-0.2 0.025 0-0.358-0.711-0.486-0.906-0.322-0.472-0.694-0.828-1.097-1.044-0.128-0.067-0.489-0.183-0.597-0.192-0.053-0.006-0.108-0.014-0.122-0.019-0.022-0.011-0.294-0.025-0.306-0.014zM8.694 7.342c0.022 0.006 0.081 0.019 0.125 0.033 0.047 0.011 0.103 0.036 0.125 0.058 0.022 0.019 0.061 0.039 0.083 0.044 0.061 0.014 0.253 0.142 0.344 0.233 0.147 0.147 0.367 0.467 0.483 0.708 0.114 0.233 0.264 0.653 0.294 0.819 0.008 0.044 0.022 0.117 0.031 0.164 0.064 0.303 0.053 0.806-0.019 0.939-0.017 0.033-0.031 0.067-0.031 0.075 0.008 0.097-0.339 0.633-0.414 0.639-0.014 0-0.047 0.025-0.078 0.056-0.028 0.028-0.142 0.081-0.247 0.111-0.394 0.122-0.706 0.022-1.064-0.333-0.119-0.119-0.217-0.228-0.217-0.242s-0.025-0.053-0.056-0.086c-0.033-0.033-0.050-0.061-0.044-0.061 0.008 0-0.019-0.056-0.064-0.128-0.072-0.111-0.253-0.531-0.297-0.692-0.144-0.511-0.158-0.592-0.161-0.958-0.003-0.344 0.003-0.394 0.078-0.625 0.047-0.139 0.081-0.258 0.081-0.267-0.003-0.008 0.053-0.086 0.119-0.175 0.2-0.253 0.394-0.344 0.706-0.333 0.1 0.003 0.2 0.011 0.222 0.019z"></path>
<path d="M26.122 8.194c-0.183 0.061-0.333 0.186-0.419 0.358-0.061 0.122-0.064 0.428-0.006 0.533 0.061 0.108 0.197 0.256 0.275 0.297 0.039 0.019 0.1 0.058 0.133 0.086 0.061 0.044 0.064 0.056 0.033 0.172-0.033 0.119-0.044 0.172-0.069 0.289-0.008 0.033-0.039 0.133-0.072 0.222-0.075 0.219-0.083 0.258-0.050 0.281 0.044 0.028 0.342-0.194 0.572-0.431 0.2-0.206 0.375-0.539 0.417-0.794 0.028-0.156 0.011-0.556-0.019-0.556-0.003 0-0.008-0.019-0.014-0.044-0.011-0.061-0.153-0.281-0.206-0.325-0.169-0.133-0.344-0.161-0.575-0.089z"></path>
<path d="M24.947 8.364c-0.067 0.011-0.136 0.036-0.156 0.053-0.017 0.014-0.119 0.033-0.225 0.039-0.217 0.014-0.289 0.028-0.369 0.072-0.031 0.017-0.086 0.025-0.119 0.019-0.036-0.008-0.133 0.011-0.217 0.042s-0.189 0.056-0.236 0.058c-0.044 0.003-0.1 0.017-0.117 0.028-0.019 0.014-0.036 0.017-0.036 0.006 0-0.008-0.022-0.003-0.053 0.011-0.050 0.028-0.161 0.053-0.308 0.072-0.1 0.014-0.186 0.036-0.331 0.081-0.069 0.022-0.189 0.047-0.267 0.058-0.075 0.011-0.172 0.036-0.214 0.058-0.044 0.022-0.078 0.033-0.078 0.028s-0.094 0.017-0.208 0.053c-0.114 0.033-0.208 0.058-0.208 0.053s-0.033 0.003-0.075 0.019c-0.042 0.017-0.125 0.033-0.181 0.039-0.058 0.006-0.133 0.028-0.167 0.047-0.036 0.017-0.078 0.036-0.097 0.039-0.017 0.003-0.075 0.019-0.125 0.036s-0.117 0.025-0.147 0.019c-0.031-0.006-0.069 0-0.083 0.014-0.017 0.011-0.061 0.028-0.097 0.033-0.142 0.028-0.378 0.136-0.458 0.214-0.139 0.133-0.306 0.192-0.519 0.183-0.106-0.003-0.189-0.003-0.189 0.003 0 0.044 0.1 0.183 0.183 0.256 0.075 0.067 0.117 0.086 0.161 0.072 0.031-0.008 0.097-0.022 0.147-0.028s0.194-0.061 0.322-0.122c0.128-0.064 0.253-0.114 0.275-0.114 0.025 0 0.089-0.019 0.144-0.042s0.1-0.036 0.1-0.028c0 0.011 0.206-0.061 0.347-0.122 0.031-0.014 0.111-0.050 0.181-0.081s0.169-0.064 0.222-0.072c0.053-0.008 0.153-0.047 0.222-0.083s0.139-0.058 0.158-0.053c0.017 0.006 0.089-0.014 0.158-0.044 0.114-0.053 0.2-0.078 0.286-0.083 0.017-0.003 0.050-0.019 0.069-0.039s0.050-0.039 0.064-0.042c0.122-0.014 0.25-0.050 0.406-0.117 0.103-0.042 0.228-0.083 0.278-0.092 0.053-0.006 0.175-0.044 0.275-0.086 0.097-0.042 0.208-0.078 0.242-0.086 0.036-0.006 0.078-0.019 0.092-0.028 0.031-0.019 0.097-0.033 0.25-0.056 0.039-0.006 0.069-0.011 0.069-0.014s0.022-0.008 0.050-0.014c0.028-0.006 0.081-0.031 0.117-0.053 0.036-0.025 0.089-0.047 0.117-0.053 0.028-0.003 0.067-0.017 0.086-0.028 0.019-0.014 0.083-0.025 0.142-0.031 0.058-0.003 0.139-0.025 0.175-0.050s0.092-0.050 0.119-0.058c0.053-0.014 0.053-0.014 0-0.014-0.031 0-0.111 0.011-0.178 0.025z"></path>
<path d="M19.675 8.497c-0.183 0.047-0.356 0.203-0.436 0.392-0.028 0.069-0.061 0.147-0.078 0.178-0.014 0.028-0.031 0.144-0.039 0.264-0.011 0.222 0.064 0.592 0.144 0.717 0.022 0.036 0.033 0.064 0.025 0.064-0.019 0 0.178 0.281 0.283 0.397 0.119 0.136 0.414 0.333 0.611 0.411 0.236 0.092 0.7 0.092 0.944 0 0.097-0.036 0.189-0.083 0.206-0.103 0.017-0.022 0.050-0.039 0.069-0.039 0.053 0 0.369-0.319 0.475-0.475 0.144-0.217 0.328-0.769 0.275-0.822-0.008-0.011-0.075 0.011-0.15 0.044-0.072 0.033-0.153 0.064-0.178 0.069-0.028 0.003-0.056 0.014-0.067 0.022-0.008 0.011-0.033 0.011-0.056 0.003s-0.039-0.003-0.039 0.011c0 0.014-0.017 0.028-0.033 0.028-0.019 0-0.125 0.039-0.236 0.086-0.108 0.050-0.211 0.089-0.228 0.089-0.014 0-0.033 0.025-0.044 0.053-0.031 0.1-0.228 0.281-0.386 0.353-0.244 0.111-0.531 0.1-0.819-0.033-0.128-0.058-0.317-0.258-0.389-0.411-0.058-0.131-0.119-0.414-0.083-0.389 0.014 0.008 0.025 0.031 0.025 0.050 0 0.033 0.117 0.106 0.181 0.117 0.017 0 0.050 0.011 0.078 0.025 0.069 0.031 0.372 0 0.422-0.042 0.022-0.019 0.042-0.025 0.042-0.014 0 0.008 0.033-0.022 0.075-0.075 0.042-0.050 0.086-0.097 0.097-0.106 0.069-0.053 0.086-0.464 0.022-0.542-0.017-0.019-0.022-0.039-0.014-0.047 0.017-0.017-0.181-0.222-0.25-0.261-0.067-0.036-0.328-0.044-0.45-0.014z"></path>
<path d="M29.772 8.672c-0.019 0.008-0.083 0.039-0.142 0.064-0.061 0.025-0.133 0.067-0.167 0.092-0.067 0.056-0.372 0.361-0.619 0.619-0.569 0.597-1.197 1.044-1.769 1.258-0.236 0.089-0.133 0.142 0.328 0.172 0.628 0.042 1.006 0.019 1.417-0.081 0.217-0.053 0.739-0.275 0.836-0.356 0.022-0.017 0.039-0.022 0.039-0.008s0.011 0.011 0.022-0.003c0.025-0.033 0.192-0.153 0.214-0.153 0.019 0 0.025-0.006 0.264-0.236 0.331-0.319 0.461-0.603 0.408-0.903-0.039-0.231-0.225-0.417-0.464-0.464-0.111-0.022-0.325-0.025-0.367-0.003z"></path>
<path d="M3.078 9.083c-0.086 0.028-0.167 0.042-0.175 0.033s-0.014 0-0.014 0.019c0 0.019-0.011 0.028-0.022 0.019-0.014-0.008-0.058 0.006-0.1 0.028-0.044 0.019-0.092 0.039-0.106 0.039s-0.114 0.058-0.222 0.131c-0.111 0.075-0.217 0.144-0.242 0.161-0.064 0.044-0.147 0.128-0.264 0.272-0.431 0.531-0.556 1.222-0.336 1.867 0.044 0.139 0.217 0.458 0.292 0.553 0.139 0.175 0.444 0.444 0.647 0.578 0.072 0.047 0.131 0.097 0.131 0.111 0 0.011 0.014 0.022 0.031 0.022 0.036 0 0.439 0.247 0.789 0.483 0.286 0.194 0.819 0.706 0.819 0.786 0 0.008 0.019 0.042 0.047 0.069 0.053 0.058 0.081 0.108 0.172 0.292 0.036 0.072 0.078 0.156 0.092 0.186 0.044 0.086 0.058 0.164 0.067 0.353 0.022 0.644-0.744 1.058-1.256 0.675-0.156-0.117-0.217-0.194-0.344-0.433-0.108-0.206-0.297-0.686-0.322-0.822s-0.25-0.539-0.331-0.594c-0.014-0.011-0.017-0.022-0.006-0.022 0.014 0-0.017-0.033-0.069-0.075-0.050-0.042-0.097-0.083-0.106-0.094-0.056-0.064-0.431-0.125-0.461-0.075-0.008 0.014-0.033 0.019-0.056 0.011-0.019-0.008-0.056 0.003-0.078 0.025s-0.053 0.042-0.067 0.042c-0.042 0-0.244 0.2-0.269 0.264-0.1 0.25-0.094 0.497 0.017 0.747 0.031 0.069 0.053 0.133 0.053 0.142s0.014 0.033 0.033 0.053c0.019 0.019 0.078 0.089 0.131 0.158 0.053 0.067 0.15 0.167 0.219 0.219 0.067 0.053 0.136 0.111 0.156 0.128 0.056 0.053 0.678 0.422 0.692 0.411 0.006-0.008 0.028 0.006 0.047 0.031 0.019 0.022 0.050 0.042 0.069 0.042 0.017 0 0.056 0.025 0.083 0.056s0.061 0.056 0.072 0.056c0.044 0 0.206 0.144 0.317 0.281 0.128 0.156 0.164 0.383 0.083 0.544-0.050 0.1-0.178 0.217-0.267 0.244-0.036 0.011-0.083 0.033-0.103 0.050s-0.128 0.031-0.236 0.031c-0.344 0-0.514-0.128-0.719-0.539-0.064-0.131-0.125-0.242-0.133-0.25s-0.039-0.064-0.069-0.122c-0.072-0.142-0.256-0.317-0.356-0.339s-0.214 0.025-0.283 0.117c-0.061 0.083-0.075 0.131-0.069 0.261 0.003 0.103 0.128 0.389 0.169 0.389 0.014 0 0.025 0.014 0.025 0.031 0 0.028 0.214 0.269 0.317 0.356 0.242 0.203 0.494 0.389 0.628 0.464 0.053 0.028 0.103 0.058 0.111 0.067s0.133 0.103 0.278 0.206c1.064 0.769 1.714 1.494 2 2.231 0.036 0.089 0.072 0.186 0.086 0.217 0.050 0.128 0.081 0.258 0.089 0.369 0.003 0.064 0.011 0.117 0.019 0.117 0.028 0 0.036 0.519 0.014 0.639-0.028 0.125-0.050 0.264-0.050 0.297 0 0.019-0.008 0.036-0.019 0.036-0.008 0-0.017 0.025-0.019 0.053s-0.033 0.119-0.067 0.203c-0.197 0.469-0.508 0.825-0.894 1.022-0.214 0.108-0.264 0.122-0.456 0.128-0.339 0.011-0.519-0.078-0.781-0.389-0.094-0.114-0.167-0.289-0.214-0.517-0.025-0.114-0.033-0.528-0.014-0.542 0.019-0.011 0.011-0.314-0.011-0.431-0.011-0.053-0.036-0.136-0.058-0.181-0.039-0.081-0.264-0.369-0.264-0.336 0 0.008-0.050-0.011-0.111-0.042-0.308-0.161-0.825-0.008-1.125 0.333-0.044 0.053-0.103 0.117-0.128 0.139-0.061 0.064-0.247 0.333-0.247 0.358 0 0.014-0.025 0.050-0.056 0.083s-0.056 0.067-0.053 0.075c0 0.008-0.031 0.1-0.072 0.206-0.039 0.103-0.089 0.269-0.108 0.367-0.044 0.217-0.039 0.822 0.011 0.997 0.019 0.069 0.039 0.144 0.042 0.167s0.017 0.067 0.028 0.097c0.011 0.031 0.058 0.15 0.1 0.264 0.164 0.428 0.531 0.928 0.972 1.319 0.108 0.1 0.344 0.264 0.375 0.264 0.011 0 0.058 0.028 0.106 0.064 0.103 0.078 0.564 0.283 0.739 0.331 0.069 0.017 0.131 0.033 0.139 0.036 0.192 0.053 0.256 0.069 0.347 0.083 0.269 0.039 0.942 0.011 1.050-0.044 0.025-0.017 0.047-0.022 0.047-0.014 0 0.017 0.192-0.044 0.431-0.133 0.236-0.089 0.542-0.242 0.542-0.269 0-0.008 0.022-0.025 0.050-0.033 0.092-0.031 0.264-0.147 0.383-0.261 0.036-0.036 0.072-0.064 0.083-0.064 0.028 0 0.4-0.386 0.533-0.553 0.056-0.069 0.111-0.133 0.125-0.136 0.011-0.006 0.019-0.028 0.019-0.050s0.011-0.039 0.022-0.039c0.011 0 0.050-0.053 0.083-0.117 0.033-0.067 0.111-0.211 0.172-0.322 0.058-0.108 0.103-0.2 0.097-0.2s0.025-0.083 0.067-0.189c0.042-0.103 0.081-0.194 0.083-0.206s0.008-0.036 0.014-0.056c0.047-0.156 0.106-0.461 0.111-0.586 0-0.025 0.008-0.047 0.017-0.047 0.014 0 0.033-0.194 0.039-0.383 0.003-0.047 0.008-0.089 0.017-0.089s0.017-0.058 0.017-0.133c0.011-0.342 0.047-1.139 0.081-1.742 0.014-0.275 0.039-0.519 0.083-0.847 0.025-0.178 0.128-0.483 0.242-0.706 0.142-0.283 0.183-0.339 0.686-0.922 0.133-0.158 0.233-0.389 0.228-0.539-0.006-0.178-0.039-0.189-0.144-0.044-0.053 0.069-0.106 0.125-0.117 0.128-0.011 0-0.050 0.025-0.083 0.058-0.086 0.081-0.369 0.211-0.572 0.264-0.267 0.067-0.281 0.053-0.128-0.15 0.175-0.231 0.347-0.4 0.547-0.536 0.228-0.156 0.4-0.228 0.772-0.317 0.175-0.044 0.331-0.089 0.342-0.1 0.081-0.067-0.203-0.361-0.442-0.464-0.231-0.1-0.689-0.103-1.053-0.006-0.136 0.036-0.269 0.067-0.292 0.069-0.025 0-0.056 0.011-0.069 0.019-0.033 0.019-0.233 0.056-0.361 0.064-0.133 0.008-0.347-0.042-0.486-0.111-0.142-0.072-0.336-0.258-0.389-0.372-0.019-0.039-0.050-0.103-0.069-0.142-0.039-0.075-0.097-0.306-0.117-0.467-0.031-0.214-0.014-0.511 0.036-0.783 0.008-0.039 0.019-0.108 0.028-0.153 0.008-0.047 0.033-0.153 0.056-0.236s0.047-0.183 0.056-0.222c0.006-0.039 0.025-0.108 0.039-0.153 0.014-0.047 0.033-0.122 0.042-0.172 0.008-0.047 0.033-0.161 0.056-0.253 0.025-0.092 0.050-0.203 0.056-0.247 0.006-0.042 0.019-0.117 0.028-0.161 0.011-0.047 0.022-0.122 0.025-0.169 0.006-0.047 0.014-0.097 0.022-0.111 0.028-0.056 0.036-0.669 0.011-0.872-0.031-0.242-0.042-0.294-0.1-0.514-0.053-0.194-0.178-0.503-0.253-0.625-0.014-0.022-0.042-0.075-0.061-0.119-0.017-0.042-0.042-0.075-0.053-0.075s-0.022-0.017-0.022-0.036c0-0.053-0.306-0.417-0.472-0.564-0.039-0.033-0.114-0.1-0.167-0.144-0.086-0.078-0.569-0.342-0.569-0.314 0 0.008-0.031-0.006-0.069-0.025s-0.094-0.042-0.125-0.044c-0.031-0.006-0.086-0.017-0.125-0.028s-0.225-0.022-0.417-0.028c-0.269-0.006-0.383 0.006-0.506 0.044zM5.867 16.972c0.047 0.092 0.047 0.097-0.011 0.158-0.117 0.122-0.281 0.064-0.281-0.103 0-0.114 0.056-0.172 0.158-0.161 0.067 0.006 0.097 0.031 0.133 0.106z"></path>
<path d="M18.953 9.961c-0.047 0.019-0.128 0.044-0.178 0.053-0.047 0.008-0.114 0.033-0.147 0.056-0.031 0.022-0.083 0.042-0.117 0.042s-0.092 0.025-0.131 0.056c-0.039 0.031-0.081 0.056-0.094 0.056-0.011 0-0.053 0.017-0.092 0.036-0.039 0.022-0.131 0.053-0.206 0.072-0.075 0.017-0.225 0.075-0.333 0.128-0.108 0.050-0.233 0.1-0.281 0.111-0.044 0.011-0.211 0.081-0.367 0.156s-0.289 0.136-0.3 0.136c-0.011 0-0.081 0.031-0.156 0.069-0.075 0.036-0.181 0.075-0.233 0.086-0.053 0.008-0.097 0.028-0.097 0.039 0 0.014-0.050 0.031-0.111 0.042s-0.111 0.031-0.111 0.044c0 0.014-0.019 0.025-0.042 0.025s-0.042 0.011-0.042 0.022c0 0.028-0.333 0.2-0.392 0.2-0.022 0-0.069 0.025-0.108 0.056s-0.086 0.056-0.108 0.056c-0.022 0-0.1 0.039-0.172 0.086-0.075 0.047-0.15 0.089-0.169 0.092s-0.081 0.033-0.133 0.067c-0.053 0.033-0.114 0.061-0.133 0.061s-0.078 0.031-0.128 0.069c-0.050 0.039-0.111 0.069-0.136 0.069s-0.053 0.014-0.061 0.028c-0.011 0.017-0.028 0.022-0.042 0.014-0.011-0.008-0.039 0.006-0.058 0.031s-0.092 0.072-0.161 0.108c-0.069 0.036-0.167 0.097-0.214 0.139-0.050 0.039-0.133 0.094-0.186 0.122l-0.1 0.050 0.008-0.075c0.006-0.042 0.019-0.092 0.031-0.111 0.014-0.022 0.039-0.103 0.058-0.178 0.039-0.164 0.089-0.314 0.131-0.392 0.017-0.031 0.031-0.086 0.033-0.125s0.031-0.133 0.064-0.208c0.033-0.078 0.058-0.153 0.056-0.167-0.011-0.036-0.175-0.025-0.253 0.019-0.033 0.019-0.081 0.039-0.103 0.042s-0.128 0.036-0.236 0.075c-0.106 0.039-0.217 0.072-0.244 0.072s-0.078 0.019-0.114 0.042c-0.036 0.025-0.094 0.050-0.128 0.056-0.111 0.022-0.25 0.072-0.25 0.094 0 0.008-0.056 0.036-0.125 0.056-0.067 0.019-0.136 0.053-0.156 0.075-0.017 0.022-0.058 0.039-0.089 0.039s-0.094 0.028-0.142 0.064c-0.047 0.033-0.114 0.061-0.147 0.058s-0.083 0.019-0.108 0.047c-0.028 0.031-0.064 0.053-0.086 0.053-0.036 0-0.375 0.183-0.6 0.325-0.061 0.039-0.156 0.086-0.217 0.106-0.058 0.022-0.122 0.053-0.142 0.067-0.211 0.172-0.383 0.281-0.45 0.281-0.019 0-0.056 0.019-0.075 0.044s-0.103 0.075-0.181 0.114c-0.078 0.036-0.172 0.097-0.208 0.136-0.033 0.036-0.075 0.067-0.089 0.067-0.017 0-0.072 0.033-0.128 0.075-0.056 0.044-0.108 0.075-0.117 0.072-0.011-0.003-0.056 0.028-0.097 0.069-0.136 0.125-0.308 0.25-0.475 0.344-0.089 0.050-0.167 0.097-0.175 0.108-0.033 0.044-0.336 0.275-0.358 0.275-0.017 0-0.1 0.067-0.189 0.147-0.089 0.083-0.219 0.183-0.292 0.225-0.075 0.042-0.133 0.086-0.133 0.097 0 0.028-0.325 0.281-0.358 0.281-0.014 0-0.058 0.039-0.097 0.086s-0.072 0.078-0.072 0.072c0-0.008-0.083 0.061-0.183 0.156s-0.206 0.183-0.231 0.2c-0.094 0.053-0.189 0.142-0.222 0.2-0.028 0.056-0.025 0.061 0.017 0.044 0.028-0.008 0.189-0.106 0.356-0.217 0.478-0.311 0.567-0.367 0.819-0.489 0.131-0.067 0.314-0.172 0.408-0.239 0.097-0.067 0.186-0.119 0.203-0.119 0.014 0 0.028-0.011 0.028-0.028 0-0.014 0.017-0.019 0.036-0.011 0.019 0.006 0.061-0.011 0.089-0.039 0.083-0.075 0.236-0.178 0.236-0.158 0 0.008 0.064-0.017 0.139-0.058 0.078-0.042 0.139-0.086 0.139-0.1 0-0.011 0.017-0.022 0.036-0.022 0.039 0 0.247-0.108 0.269-0.139 0.017-0.025 0.189-0.114 0.211-0.108 0.011 0 0.028-0.008 0.036-0.022s0.131-0.081 0.267-0.147c0.139-0.069 0.308-0.161 0.378-0.208 0.247-0.158 0.408-0.25 0.431-0.242 0.011 0.006 0.028-0.003 0.036-0.017s0.094-0.067 0.192-0.117c0.094-0.047 0.181-0.1 0.189-0.117 0.017-0.028 0.133-0.081 0.214-0.097 0.069-0.011 0.372-0.169 0.394-0.203 0.008-0.014 0.039-0.028 0.067-0.028s0.072-0.025 0.1-0.056c0.028-0.031 0.067-0.056 0.089-0.056 0.019 0 0.036-0.014 0.036-0.028 0-0.017 0.019-0.028 0.042-0.028 0.025 0 0.133-0.044 0.244-0.097 0.108-0.053 0.219-0.097 0.244-0.097s0.078-0.025 0.117-0.056c0.119-0.094 0.175-0.053 0.094 0.069-0.019 0.031-0.039 0.092-0.044 0.139-0.006 0.044-0.025 0.117-0.044 0.156-0.022 0.039-0.033 0.094-0.028 0.125 0.003 0.028-0.008 0.078-0.028 0.108-0.019 0.033-0.050 0.133-0.069 0.222-0.019 0.092-0.047 0.183-0.061 0.2-0.017 0.019-0.033 0.081-0.039 0.139s-0.022 0.136-0.036 0.175c-0.014 0.039-0.033 0.108-0.042 0.156-0.014 0.089-0.014 0.089 0.067 0.058 0.047-0.017 0.083-0.042 0.083-0.053s0.019-0.022 0.042-0.022c0.053 0 0.158-0.064 0.303-0.186 0.061-0.050 0.125-0.092 0.144-0.092s0.1-0.053 0.183-0.119c0.081-0.064 0.211-0.15 0.286-0.186 0.078-0.039 0.144-0.075 0.153-0.083 0.047-0.047 0.272-0.178 0.367-0.211 0.061-0.022 0.186-0.089 0.278-0.15s0.178-0.111 0.192-0.111c0.019 0 0.267-0.158 0.303-0.194 0.008-0.008 0.039-0.017 0.067-0.022s0.097-0.033 0.153-0.064c0.056-0.028 0.114-0.053 0.131-0.053s0.053-0.025 0.081-0.056c0.025-0.028 0.094-0.067 0.15-0.086 0.056-0.017 0.125-0.047 0.156-0.064 0.031-0.019 0.108-0.056 0.172-0.081s0.178-0.089 0.253-0.142c0.122-0.089 0.247-0.153 0.331-0.172 0.019-0.003 0.069-0.031 0.111-0.061 0.042-0.028 0.117-0.061 0.161-0.072 0.047-0.011 0.197-0.075 0.336-0.144 0.139-0.067 0.269-0.122 0.286-0.122 0.019 0 0.081-0.025 0.139-0.056 0.058-0.028 0.142-0.058 0.183-0.067s0.097-0.031 0.122-0.053c0.025-0.019 0.089-0.056 0.142-0.075s0.175-0.078 0.272-0.131c0.094-0.050 0.194-0.092 0.219-0.092 0.044 0 0.331-0.114 0.453-0.181 0.039-0.022 0.117-0.064 0.175-0.097 0.072-0.039 0.103-0.047 0.103-0.022 0 0.028 0.006 0.028 0.022 0.003 0.014-0.019 0.056-0.039 0.097-0.042 0.089-0.008 0.094-0.056 0.019-0.161-0.050-0.069-0.117-0.211-0.122-0.256-0.008-0.056-0.064-0.067-0.147-0.033z"></path>
<path d="M21.594 11.228c-0.006 0.011-0.033 0.019-0.061 0.017-0.094 0-0.181 0.033-0.281 0.108-0.131 0.1-0.253 0.233-0.253 0.278 0 0.019-0.011 0.036-0.022 0.036-0.053 0-0.131 0.325-0.128 0.542 0.003 0.186 0.017 0.25 0.081 0.383 0.103 0.206 0.267 0.378 0.431 0.453 0.178 0.081 0.236 0.092 0.45 0.086 0.192-0.008 0.261-0.025 0.414-0.097 0.1-0.047 0.203-0.111 0.231-0.142 0.050-0.056 0.050-0.058-0.025-0.147-0.042-0.050-0.161-0.183-0.269-0.294l-0.194-0.2 0.094-0.039c0.050-0.022 0.139-0.058 0.194-0.081s0.108-0.036 0.117-0.025c0.008 0.008 0.017 0 0.017-0.017 0-0.019 0.008-0.031 0.022-0.031 0.011 0.003 0.025 0 0.033-0.003s0.033-0.008 0.058-0.014c0.025-0.003 0.089-0.028 0.144-0.056 0.114-0.053 0.117-0.103 0.008-0.261-0.169-0.25-0.483-0.464-0.717-0.489-0.050-0.006-0.092-0.011-0.092-0.014 0-0.017-0.244-0.011-0.253 0.006zM21.75 11.639c0.061 0.061 0.050 0.125-0.031 0.169-0.039 0.019-0.064 0.014-0.108-0.031-0.056-0.056-0.053-0.081 0.008-0.161 0.036-0.047 0.067-0.042 0.131 0.022z"></path>
<path d="M25.131 11.339c-0.175 0.036-0.389 0.147-0.5 0.258-0.056 0.056-0.103 0.114-0.103 0.125 0 0.014-0.017 0.042-0.036 0.061s-0.056 0.089-0.081 0.153c-0.047 0.125-0.053 0.503-0.008 0.878l0.022 0.192-0.117-0.061c-0.122-0.061-0.247-0.117-0.294-0.125-0.014-0.006-0.139-0.047-0.278-0.097-0.136-0.047-0.261-0.092-0.278-0.094-0.014-0.006-0.114-0.033-0.222-0.067-0.253-0.078-0.403-0.094-0.403-0.042 0 0.019 0.061 0.094 0.136 0.164 0.181 0.169 0.408 0.508 0.603 0.9 0.15 0.3 0.331 0.778 0.297 0.778-0.008 0-0.003 0.017 0.014 0.033 0.014 0.019 0.036 0.081 0.047 0.133s0.028 0.108 0.036 0.122c0.008 0.017 0.019 0.053 0.022 0.083 0.014 0.1 0.028 0.167 0.047 0.225 0.025 0.075 0.122 0.653 0.147 0.875 0.050 0.433 0.014 1.225-0.072 1.681-0.014 0.075-0.033 0.169-0.039 0.208-0.014 0.067-0.039 0.181-0.056 0.236-0.006 0.014-0.017 0.064-0.031 0.111-0.011 0.044-0.028 0.094-0.039 0.111-0.008 0.014-0.031 0.078-0.047 0.139-0.069 0.236-0.336 0.831-0.464 1.025-0.469 0.733-0.769 0.992-0.972 0.839-0.058-0.044-0.139-0.306-0.117-0.378 0.008-0.028 0.006-0.058-0.008-0.067-0.022-0.014-0.022-0.042 0.006-0.294 0.008-0.069 0.022-0.189 0.031-0.264 0.022-0.217 0.044-0.406 0.056-0.458 0.006-0.025 0.017-0.114 0.028-0.194s0.022-0.167 0.028-0.192c0.014-0.078 0.047-0.375 0.056-0.475 0.003-0.053 0.022-0.178 0.042-0.278 0.017-0.1 0.039-0.236 0.044-0.306 0.008-0.125 0.033-0.333 0.053-0.486 0.072-0.506 0.069-1.147-0.006-1.597-0.008-0.053-0.019-0.117-0.019-0.139-0.003-0.025-0.011-0.056-0.022-0.069-0.008-0.017-0.025-0.067-0.036-0.111-0.061-0.225-0.186-0.481-0.292-0.597-0.197-0.219-0.344-0.361-0.372-0.361-0.008 0-0.067-0.036-0.133-0.081-0.206-0.139-0.444-0.206-0.731-0.2-0.222 0.006-0.389 0.017-0.389 0.031 0 0.003-0.022 0.008-0.047 0.017-0.294 0.069-0.617 0.244-0.806 0.436-0.089 0.089-0.161 0.178-0.161 0.2s-0.011 0.042-0.022 0.042c-0.017 0-0.142 0.214-0.158 0.278-0.003 0.008-0.019 0.050-0.039 0.097-0.019 0.044-0.039 0.119-0.042 0.167 0 0.044-0.011 0.089-0.022 0.097-0.036 0.028-0.083 0.6-0.053 0.653 0.008 0.014 0.017 0.039 0.017 0.056 0 0.014 0.025 0.028 0.056 0.028 0.056 0 0.064-0.031 0.133-0.569 0.044-0.331 0.15-0.517 0.367-0.639 0.128-0.072 0.25-0.069 0.403 0.006 0.269 0.139 0.294 0.336 0.211 1.697-0.006 0.106-0.019 0.197-0.028 0.206s0.031 0.042 0.089 0.072c0.056 0.031 0.153 0.081 0.214 0.114s0.156 0.078 0.208 0.097c0.247 0.094 0.389 0.25 0.4 0.442 0.006 0.097-0.056 0.283-0.094 0.283-0.008 0-0.042 0.025-0.075 0.053-0.031 0.028-0.192 0.131-0.358 0.228s-0.308 0.183-0.317 0.192c-0.008 0.008-0.039 0.028-0.069 0.044-0.064 0.036-0.058-0.003-0.083 0.719-0.042 1.197-0.039 1.231 0.028 1.622 0.019 0.103 0.108 0.347 0.133 0.367 0.014 0.008 0.019 0.022 0.014 0.031-0.019 0.031 0.211 0.361 0.319 0.453 0.211 0.183 0.311 0.222 0.575 0.219 0.131 0 0.261-0.006 0.292-0.014 0.1-0.025 0.492-0.225 0.542-0.275 0.008-0.008 0.081-0.069 0.164-0.139 0.142-0.117 0.233-0.206 0.519-0.517 0.208-0.225 0.631-0.85 0.767-1.136 0.028-0.061 0.081-0.161 0.114-0.222 0.103-0.183 0.367-0.783 0.506-1.139 0.072-0.183 0.142-0.356 0.156-0.383 0.017-0.028 0.064-0.147 0.106-0.264 0.156-0.414 0.197-0.456 0.256-0.25 0.019 0.067 0.083 0.264 0.142 0.439 0.061 0.175 0.114 0.339 0.119 0.361s0.067 0.214 0.139 0.428c0.072 0.211 0.133 0.397 0.136 0.417 0.006 0.017 0.022 0.061 0.039 0.1 0.039 0.094 0.069 0.175 0.075 0.208 0.003 0.031 0.011 0.053 0.133 0.358 0.156 0.383 0.281 0.408 0.825 0.161 0.344-0.156 0.683-0.294 0.703-0.289 0.011 0.003 0.019-0.008 0.019-0.028 0-0.017 0.008-0.022 0.017-0.014 0.011 0.011 0.053-0.006 0.094-0.036s0.083-0.047 0.094-0.036c0.008 0.008 0.017 0.003 0.017-0.014 0-0.019 0.017-0.033 0.036-0.033 0.083 0 0.286-0.233 0.314-0.364 0.022-0.114 0.017-0.331-0.011-0.408-0.014-0.042-0.044-0.131-0.064-0.2s-0.053-0.153-0.075-0.189c-0.022-0.033-0.033-0.061-0.025-0.061s-0.028-0.089-0.081-0.194c-0.053-0.108-0.094-0.203-0.094-0.214 0-0.028-0.15-0.356-0.169-0.369-0.011-0.008-0.025-0.039-0.031-0.069-0.003-0.031-0.014-0.061-0.022-0.069s-0.081-0.153-0.161-0.319c-0.081-0.169-0.164-0.336-0.186-0.375s-0.128-0.233-0.233-0.431c-0.108-0.2-0.217-0.4-0.244-0.447s-0.111-0.197-0.186-0.333c-0.075-0.136-0.144-0.253-0.153-0.261s-0.039-0.058-0.064-0.111c-0.056-0.111-0.342-0.611-0.375-0.653-0.011-0.017-0.058-0.097-0.103-0.181s-0.15-0.272-0.233-0.417c-0.083-0.144-0.189-0.325-0.233-0.403-0.231-0.403-0.328-0.681-0.289-0.831 0.017-0.072 0.156-0.142 0.258-0.133 0.225 0.019 0.622 0.356 1.342 1.144 0.319 0.35 0.3 0.328 0.458 0.514 0.061 0.072 0.156 0.178 0.208 0.236s0.153 0.172 0.222 0.253c0.197 0.233 0.364 0.422 0.419 0.478 0.031 0.028 0.053 0.058 0.053 0.069s0.058 0.081 0.125 0.153c0.069 0.072 0.125 0.139 0.125 0.144 0 0.008 0.022 0.036 0.050 0.064 0.025 0.028 0.086 0.097 0.131 0.158 0.047 0.058 0.106 0.131 0.136 0.161 0.028 0.031 0.217 0.261 0.422 0.517 0.203 0.253 0.386 0.481 0.406 0.503 0.019 0.019 0.114 0.139 0.211 0.264 0.094 0.122 0.211 0.267 0.256 0.319s0.136 0.167 0.206 0.253 0.278 0.272 0.431 0.261c0.064-0.006 0.136-0.025 0.158-0.042 0.019-0.019 0.039-0.028 0.039-0.019 0 0.025 0.386-0.197 0.514-0.294 0.308-0.236 0.936-0.825 1.017-0.956 0.075-0.119 0.050-0.253-0.067-0.364-0.050-0.047-0.225-0.183-0.394-0.308-0.167-0.122-0.317-0.233-0.333-0.247-0.083-0.064-0.508-0.403-0.55-0.436-0.025-0.022-0.053-0.042-0.058-0.042s-0.056-0.042-0.108-0.092c-0.053-0.047-0.144-0.128-0.203-0.172-0.058-0.047-0.194-0.158-0.303-0.25s-0.233-0.192-0.275-0.222c-0.044-0.031-0.1-0.075-0.125-0.097-0.025-0.025-0.114-0.1-0.197-0.167s-0.194-0.164-0.242-0.214c-0.050-0.047-0.092-0.081-0.092-0.069s-0.011 0.006-0.022-0.008c-0.011-0.017-0.078-0.075-0.15-0.133s-0.147-0.119-0.167-0.139c-0.019-0.019-0.106-0.089-0.189-0.158s-0.183-0.15-0.219-0.181c-0.036-0.031-0.092-0.078-0.119-0.106-0.028-0.025-0.058-0.047-0.067-0.047-0.011 0-0.056-0.039-0.1-0.083-0.042-0.047-0.089-0.083-0.103-0.083s-0.031-0.008-0.036-0.022c-0.019-0.044-0.522-0.45-0.786-0.633-0.45-0.314-0.797-0.486-1.153-0.569-0.214-0.050-0.572-0.061-0.758-0.019z"></path>
<path d="M17.931 12.25c-0.044 0.011-0.181 0.064-0.297 0.119-0.119 0.056-0.222 0.103-0.231 0.103-0.011 0-0.069 0.036-0.133 0.078-0.064 0.044-0.186 0.117-0.269 0.161s-0.158 0.086-0.167 0.094c-0.008 0.008-0.050 0.033-0.097 0.056-0.044 0.022-0.089 0.050-0.097 0.058s-0.067 0.044-0.131 0.081c-0.067 0.036-0.15 0.111-0.189 0.167-0.072 0.103-0.072 0.106-0.056 0.531 0.031 0.836 0.039 1.678 0.017 1.717-0.042 0.064-0.142 0.006-0.225-0.131-0.044-0.072-0.081-0.142-0.078-0.156 0-0.014-0.011-0.033-0.025-0.042-0.011-0.008-0.058-0.086-0.103-0.169-0.086-0.169-0.264-0.503-0.372-0.694-0.2-0.364-0.336-0.486-0.528-0.461-0.144 0.017-0.178 0.033-0.503 0.231-0.158 0.097-0.292 0.175-0.294 0.175-0.011 0-0.292 0.181-0.333 0.214-0.014 0.011-0.061 0.039-0.103 0.061-0.1 0.053-0.164 0.194-0.147 0.325 0.014 0.103 0.333 0.783 0.389 0.822 0.014 0.011 0.019 0.022 0.008 0.022s0.067 0.169 0.172 0.375c0.106 0.206 0.183 0.375 0.172 0.375s0 0.014 0.022 0.028c0.022 0.014 0.042 0.036 0.042 0.047 0 0.039 0.331 0.689 0.361 0.708 0.019 0.014 0.019 0.022 0 0.022s-0.019 0.008 0 0.022c0.031 0.022 0.214 0.378 0.214 0.414 0 0.011 0.008 0.033 0.022 0.050 0.011 0.014 0.206 0.389 0.431 0.833 0.703 1.383 0.792 1.553 0.828 1.575 0.019 0.011 0.061 0.022 0.092 0.022 0.083 0 0.344-0.086 0.344-0.117 0-0.011 0.014-0.022 0.031-0.022s0.083-0.039 0.15-0.083c0.067-0.047 0.133-0.083 0.15-0.083s0.031-0.014 0.031-0.033c0-0.017 0.008-0.022 0.019-0.014 0.008 0.011 0.036 0.003 0.061-0.019 0.058-0.050 0.581-0.35 0.611-0.35 0.011 0 0.075-0.039 0.136-0.083 0.064-0.047 0.117-0.078 0.117-0.069s0.022-0.006 0.053-0.033c0.164-0.158 0.136-0.383-0.097-0.808-0.175-0.317-0.317-0.6-0.317-0.633 0-0.017-0.017-0.047-0.039-0.064-0.028-0.025-0.042-0.117-0.019-0.164 0.011-0.025 0.214 0.133 0.531 0.419 0.056 0.050 0.144 0.125 0.203 0.169 0.058 0.042 0.158 0.125 0.222 0.186 0.064 0.058 0.178 0.139 0.25 0.181 0.164 0.089 0.264 0.078 0.5-0.061 0.089-0.053 0.172-0.094 0.186-0.094 0.011 0 0.028-0.011 0.033-0.022 0.006-0.014 0.089-0.067 0.189-0.117 0.1-0.053 0.219-0.125 0.267-0.158 0.047-0.036 0.094-0.064 0.106-0.064 0.031 0 0.664-0.364 0.722-0.414 0.028-0.025 0.056-0.042 0.061-0.036 0.019 0.011 0.297-0.175 0.342-0.225 0.019-0.028 0.031-0.075 0.019-0.111-0.017-0.075-0.108-0.186-0.147-0.186-0.047 0-0.611-0.297-1.353-0.711-0.594-0.333-0.836-0.467-1.017-0.558-0.194-0.097-0.272-0.167-0.319-0.281-0.067-0.153-0.083-0.864-0.053-2.006 0.028-1.036 0.031-0.981-0.064-1.081-0.086-0.086-0.175-0.111-0.3-0.086z"></path>
<path d="M7.942 12.894c-0.414 0.253-0.375 0.236-0.439 0.178-0.033-0.031-0.058-0.075-0.058-0.1 0-0.064-0.092-0.164-0.142-0.156-0.1 0.017-0.156 0.050-0.211 0.133-0.061 0.094-0.231 0.472-0.244 0.547-0.006 0.025-0.011 0.047-0.014 0.050-0.006 0.006-0.008 0.017-0.014 0.028-0.008 0.033-0.036 0.106-0.156 0.411-0.147 0.367-0.147 0.369-0.214 0.514-0.136 0.3-0.203 0.619-0.147 0.711 0.017 0.031 0.031 0.039 0.031 0.019s0.025-0.103 0.058-0.189c0.094-0.253 0.244-0.431 0.892-1.056 0.464-0.45 0.681-0.65 0.825-0.764 0.153-0.125 0.264-0.308 0.242-0.403-0.028-0.111-0.142-0.089-0.408 0.075z"></path>
<path d="M11.208 14.656c-0.092 0.019-0.506 0.131-0.542 0.144-0.022 0.008-0.047 0.017-0.056 0.017-0.008 0.003-0.064 0.033-0.125 0.069-0.061 0.039-0.119 0.067-0.128 0.064-0.008 0-0.053 0.036-0.1 0.086-0.094 0.103-0.15 0.253-0.153 0.403 0 0.103 0.047 0.394 0.081 0.478 0.008 0.022 0.022 0.064 0.028 0.092s0.058 0.172 0.117 0.319c0.058 0.147 0.156 0.394 0.211 0.547 0.097 0.256 0.272 0.686 0.364 0.894 0.022 0.047 0.039 0.092 0.039 0.1s0.014 0.050 0.033 0.094c0.017 0.042 0.033 0.094 0.039 0.114 0.003 0.022 0.036 0.103 0.075 0.181 0.036 0.081 0.075 0.175 0.086 0.214s0.047 0.125 0.078 0.194c0.031 0.069 0.058 0.136 0.061 0.153 0.006 0.014 0.028 0.075 0.053 0.136 0.025 0.058 0.047 0.117 0.047 0.125 0 0.011 0.025 0.072 0.056 0.136 0.031 0.061 0.056 0.128 0.056 0.142 0 0.017 0.044 0.131 0.1 0.256s0.103 0.242 0.106 0.258c0.006 0.017 0.028 0.081 0.056 0.142 0.089 0.203 0.108 0.25 0.117 0.292 0.006 0.022 0.050 0.128 0.1 0.239 0.075 0.164 0.111 0.211 0.203 0.258 0.061 0.033 0.139 0.078 0.172 0.097 0.114 0.064 0.314 0.256 0.428 0.408 0.133 0.178 0.347 0.611 0.369 0.753 0.008 0.053 0.025 0.128 0.039 0.164 0.064 0.181 0.050 1.006-0.019 1.131-0.017 0.031-0.014 0.069 0.011 0.117 0.036 0.069 0.072 0.156 0.083 0.208 0.006 0.014 0.053 0.131 0.108 0.256s0.1 0.233 0.1 0.242c0 0.008 0.086 0.2 0.192 0.428 0.103 0.225 0.2 0.439 0.211 0.478s0.031 0.075 0.039 0.083c0.008 0.008 0.047 0.075 0.086 0.153 0.117 0.236 0.208 0.3 0.411 0.289 0.3-0.014 0.589-0.267 0.589-0.511 0-0.067-0.017-0.111-0.167-0.444-0.108-0.242-0.147-0.333-0.156-0.361-0.008-0.042-0.111-0.278-0.289-0.661-0.061-0.136-0.111-0.253-0.111-0.258s-0.028-0.072-0.058-0.144c-0.114-0.256-0.144-0.322-0.219-0.508-0.044-0.103-0.072-0.194-0.061-0.203 0.008-0.008 0-0.017-0.017-0.017-0.019 0-0.033-0.017-0.033-0.039 0-0.019-0.044-0.136-0.1-0.256-0.15-0.333-0.244-0.556-0.247-0.594-0.003-0.008-0.031-0.072-0.064-0.144s-0.061-0.142-0.061-0.153c-0.003-0.011-0.025-0.072-0.056-0.133s-0.053-0.119-0.056-0.131c0-0.011-0.036-0.097-0.081-0.194s-0.089-0.206-0.1-0.244c-0.011-0.039-0.067-0.164-0.122-0.278-0.058-0.114-0.106-0.217-0.108-0.231-0.003-0.011-0.025-0.058-0.047-0.103-0.025-0.047-0.036-0.083-0.028-0.083 0.006 0-0.011-0.042-0.042-0.092-0.031-0.047-0.056-0.108-0.056-0.131s-0.017-0.075-0.039-0.117c-0.036-0.069-0.036-0.075 0.044-0.108 0.117-0.047 0.378-0.053 0.542-0.011 0.286 0.075 0.717 0.314 0.869 0.489 0.336 0.375 0.433 0.506 0.572 0.761 0.058 0.106 0.114 0.2 0.125 0.208 0.036 0.028 0.525 0.978 0.525 1.025 0 0.014 0.025 0.056 0.056 0.092 0.028 0.039 0.047 0.078 0.039 0.083-0.006 0.008 0.006 0.031 0.031 0.050 0.022 0.019 0.042 0.047 0.042 0.061 0 0.028 0.097 0.233 0.533 1.128 0.119 0.247 0.244 0.506 0.272 0.569s0.072 0.147 0.092 0.186c0.022 0.039 0.069 0.128 0.103 0.2 0.089 0.186 0.144 0.228 0.303 0.228 0.122 0 0.314-0.069 0.422-0.156 0.064-0.053 0.139-0.208 0.142-0.294 0.006-0.181-0.036-0.283-0.45-1.131-0.119-0.244-0.319-0.658-0.444-0.917-0.125-0.261-0.244-0.503-0.267-0.542s-0.072-0.139-0.111-0.222c-0.186-0.394-0.492-0.989-0.581-1.125-0.053-0.086-0.097-0.161-0.097-0.172 0-0.008-0.019-0.036-0.042-0.061s-0.139-0.169-0.258-0.322c-0.281-0.353-0.286-0.361-0.519-0.533-0.106-0.081-0.208-0.158-0.228-0.175-0.019-0.014-0.044-0.028-0.061-0.028-0.014 0-0.031-0.008-0.036-0.022-0.008-0.017-0.186-0.106-0.614-0.294-0.089-0.039-0.181-0.072-0.203-0.072-0.033 0-0.039-0.014-0.025-0.050 0.069-0.158 0.15-0.394 0.161-0.469 0.008-0.050 0.019-0.1 0.028-0.111 0.050-0.081 0.081-0.833 0.042-1.036-0.014-0.069-0.031-0.164-0.039-0.208-0.058-0.333-0.211-0.683-0.4-0.917-0.061-0.078-0.119-0.161-0.128-0.189-0.011-0.025-0.028-0.047-0.039-0.047s-0.092-0.069-0.178-0.153c-0.325-0.317-0.733-0.536-1.139-0.614-0.086-0.017-0.536-0.033-0.586-0.022zM11.794 15.683c0.061 0.025 0.114 0.053 0.122 0.064 0.008 0.008 0.064 0.050 0.125 0.092 0.258 0.169 0.544 0.531 0.583 0.739 0.006 0.025 0.011 0.050 0.011 0.053 0.003 0.006 0.003 0.017 0.006 0.028 0.003 0.014 0.014 0.044 0.028 0.069 0.028 0.053 0.056 0.217 0.058 0.342 0.003 0.167-0.042 0.639-0.061 0.639-0.003 0-0.011 0.036-0.017 0.083-0.025 0.15-0.156 0.442-0.258 0.575-0.056 0.072-0.108 0.131-0.117 0.133-0.011 0-0.047-0.078-0.081-0.175-0.036-0.094-0.078-0.203-0.092-0.242-0.017-0.039-0.031-0.075-0.033-0.083s-0.014-0.033-0.022-0.056c-0.011-0.022-0.056-0.142-0.1-0.264s-0.106-0.286-0.136-0.361c-0.031-0.078-0.092-0.242-0.139-0.367-0.047-0.128-0.114-0.283-0.144-0.347s-0.056-0.125-0.056-0.136c0-0.008-0.028-0.078-0.061-0.153s-0.064-0.142-0.064-0.15c-0.003-0.008-0.025-0.064-0.053-0.125-0.092-0.203-0.103-0.244-0.083-0.297 0.008-0.031 0.042-0.064 0.075-0.078 0.103-0.042 0.394-0.031 0.508 0.017z"></path>
<path d="M9.344 17.736c-0.106 0.019-0.225 0.044-0.264 0.058-0.036 0.011-0.075 0.019-0.086 0.017-0.014-0.003-0.022 0.006-0.022 0.019s-0.042 0.042-0.089 0.061c-0.136 0.056-0.386 0.228-0.472 0.325-0.039 0.047-0.089 0.094-0.111 0.108-0.053 0.033-0.3 0.358-0.3 0.394 0 0.017-0.011 0.031-0.028 0.031-0.014 0-0.028 0.011-0.028 0.028 0 0.014-0.036 0.106-0.081 0.206-0.094 0.203-0.158 0.411-0.186 0.614-0.025 0.183-0.036 0.547-0.014 0.583 0.008 0.014 0.017 0.053 0.019 0.083 0.011 0.103 0.042 0.219 0.067 0.25 0.011 0.014 0.025 0.036 0.025 0.050 0.008 0.086 0.364 0.519 0.428 0.519 0.011 0 0.053 0.019 0.089 0.044l0.069 0.044-0.142 0.147c-0.192 0.197-0.319 0.378-0.436 0.625-0.056 0.114-0.103 0.214-0.103 0.222-0.003 0.014-0.097 0.322-0.117 0.389-0.039 0.111-0.031 0.692 0.011 0.875 0.022 0.106 0.042 0.211 0.044 0.228 0 0.019 0.011 0.036 0.025 0.036 0.011 0 0.019 0.008 0.017 0.019-0.022 0.067 0.189 0.483 0.35 0.7 0.114 0.153 0.378 0.417 0.558 0.553 0.039 0.031 0.347 0.208 0.431 0.247 0.117 0.056 0.378 0.139 0.514 0.161 0.031 0.006 0.106 0.019 0.167 0.031 0.156 0.028 0.731 0.033 0.847 0.006 0.053-0.011 0.153-0.028 0.222-0.039 0.069-0.008 0.147-0.028 0.175-0.042 0.025-0.017 0.047-0.019 0.047-0.011 0 0.006 0.072-0.014 0.161-0.044 0.639-0.236 1.144-0.597 1.442-1.036 0.075-0.108 0.142-0.206 0.156-0.214 0.011-0.008 0.025-0.039 0.031-0.069s0.039-0.1 0.069-0.156c0.089-0.147 0.189-0.511 0.211-0.772 0.064-0.7-0.083-1.214-0.481-1.689-0.231-0.275-0.703-0.531-1.003-0.544-0.047 0-0.086-0.011-0.086-0.019 0-0.011-0.031-0.017-0.069-0.014-0.039 0-0.069 0.008-0.069 0.017s-0.047 0.014-0.106 0.017c-0.142 0.003-0.194 0.019-0.328 0.089-0.211 0.108-0.342 0.281-0.411 0.547-0.147 0.561 0.236 1.114 0.756 1.086 0.372-0.022 0.714-0.358 0.706-0.703 0-0.114 0.006-0.142 0.036-0.128 0.069 0.025 0.258 0.358 0.306 0.536 0.028 0.106 0.039 0.497 0.014 0.519-0.003 0.006-0.008 0.017-0.011 0.028-0.011 0.069-0.119 0.317-0.178 0.408-0.036 0.058-0.15 0.192-0.25 0.294-0.872 0.881-2.397 0.903-2.903 0.042-0.175-0.294-0.258-0.767-0.206-1.139 0.022-0.139 0.047-0.231 0.119-0.394 0.022-0.047 0.039-0.094 0.039-0.106s0.044-0.086 0.1-0.167c0.106-0.164 0.239-0.303 0.506-0.542 0.094-0.083 0.172-0.158 0.172-0.169 0-0.008-0.114-0.064-0.25-0.122-0.139-0.056-0.269-0.119-0.292-0.142-0.019-0.022-0.050-0.039-0.064-0.039-0.025 0-0.097-0.078-0.228-0.239-0.147-0.181-0.261-0.564-0.258-0.872 0-0.147 0.039-0.428 0.075-0.522 0.078-0.211 0.114-0.283 0.133-0.283 0.011 0 0.022-0.019 0.022-0.044 0-0.044 0.017-0.067 0.189-0.239 0.128-0.131 0.356-0.25 0.5-0.258 0.058-0.003 0.122-0.014 0.139-0.025 0.017-0.008 0.036-0.006 0.047 0.008 0.008 0.014 0.036 0.025 0.064 0.025 0.081-0.006 0.292 0.103 0.381 0.194 0.117 0.119 0.164 0.303 0.114 0.428-0.047 0.108-0.119 0.197-0.2 0.239-0.056 0.031-0.058 0.025-0.042-0.058 0.025-0.108-0.039-0.225-0.158-0.297-0.092-0.056-0.369-0.058-0.389-0.006-0.006 0.019-0.025 0.033-0.042 0.033-0.067 0-0.194 0.2-0.208 0.319-0.033 0.306 0.289 0.597 0.661 0.597 0.486 0 0.839-0.331 0.875-0.817 0.031-0.397-0.108-0.689-0.447-0.961-0.219-0.178-0.597-0.247-0.972-0.181z"></path>
<path d="M7.028 24.583c0 0.033-0.242 0.536-0.314 0.653-0.075 0.125-0.342 0.531-0.381 0.581-0.244 0.311-0.628 0.711-0.781 0.817-0.036 0.025-0.072 0.050-0.081 0.061-0.061 0.072-0.4 0.292-0.597 0.389-0.044 0.022-0.089 0.047-0.097 0.056s-0.094 0.056-0.194 0.108c-0.1 0.053-0.231 0.125-0.292 0.161s-0.147 0.083-0.194 0.106c-0.044 0.025-0.133 0.075-0.194 0.111-0.061 0.039-0.156 0.094-0.208 0.125-0.169 0.097-0.225 0.136-0.383 0.267-0.308 0.25-0.4 0.761-0.192 1.044 0.142 0.192 0.561 0.3 0.9 0.231 0.125-0.028 0.131-0.028 0.161-0.044 0.017-0.011 0.075-0.033 0.133-0.053 0.153-0.047 0.403-0.194 0.639-0.372 0.186-0.139 0.686-0.611 0.686-0.644 0-0.008 0.064-0.086 0.139-0.175 0.078-0.089 0.139-0.172 0.139-0.189 0-0.014 0.025-0.050 0.056-0.078s0.056-0.067 0.056-0.086c0-0.019 0.011-0.039 0.025-0.044 0.039-0.014 0.35-0.619 0.461-0.897 0.128-0.311 0.294-0.792 0.275-0.792-0.008 0 0-0.022 0.014-0.050 0.017-0.031 0.033-0.083 0.042-0.119 0.006-0.036 0.044-0.2 0.083-0.367 0.086-0.364 0.097-0.414 0.117-0.589 0.008-0.078 0.019-0.153 0.025-0.172s0-0.042-0.014-0.050c-0.017-0.011-0.028-0.003-0.028 0.014z"></path>
<path d="M7.569 25.589c-0.014 0.044-0.036 0.161-0.061 0.342-0.033 0.253-0.014 1.078 0.033 1.322 0.008 0.036 0.019 0.114 0.028 0.178 0.061 0.425 0.278 0.967 0.464 1.156 0.092 0.092 0.117 0.103 0.233 0.097 0.106-0.006 0.144-0.022 0.208-0.094 0.069-0.078 0.097-0.156 0.083-0.236-0.003-0.014-0.008-0.058-0.014-0.097-0.011-0.108-0.264-0.558-0.328-0.583-0.011-0.006-0.022-0.019-0.022-0.033s-0.050-0.108-0.108-0.214c-0.094-0.164-0.314-0.636-0.303-0.656 0.003-0.003-0.017-0.069-0.042-0.144-0.044-0.139-0.064-0.217-0.092-0.411-0.008-0.058-0.019-0.122-0.022-0.139-0.003-0.019-0.014-0.047-0.025-0.067-0.011-0.017-0.008-0.039 0.008-0.050 0.014-0.008 0.019-0.039 0.008-0.064-0.014-0.025-0.022-0.114-0.022-0.194 0-0.147-0.006-0.172-0.028-0.111z"></path>
</symbol>
</defs>
</svg>
