<?xml version="1.0" encoding="UTF-8"?>
<svg width="401px" height="85px" viewBox="0 0 401 85" version="1.1" xmlns="http://www.w3.org/2000/svg" xmlns:xlink="http://www.w3.org/1999/xlink">
    <!-- Generator: Sketch 49.3 (51167) - http://www.bohemiancoding.com/sketch -->
    <title>Logo</title>
    <desc>Created with Sketch.</desc>
    <defs></defs>
    <g id="Socials" stroke="none" stroke-width="1" fill="none" fill-rule="evenodd">
        <g id="Facebook-/-Shared-Image" transform="translate(-389.000000, -273.000000)" fill="#000000">
            <g id="Logo" transform="translate(385.000000, 274.000000)">
                <path d="M52.095171,83 L33.8725803,83 L33.8725803,44.8828108 L23.0462176,44.8828108 L23.0462176,83 L4.82362694,83 L4.82362694,0.305081081 L23.0462176,0.305081081 L23.0462176,30.9926486 L33.8725803,30.9926486 L33.8725803,0.305081081 L52.095171,0.305081081 L52.095171,83 Z M107.896113,41.5448649 C107.896113,73.3091892 103.822828,84.2921081 83.7779779,84.2921081 C66.0913457,84.2921081 59.6598431,76.4317838 59.6598431,41.5448649 C59.6598431,12.7954595 64.8050452,-0.987027027 83.7779779,-0.987027027 C102.214952,-0.987027027 107.896113,10.5342703 107.896113,41.5448649 Z M89.2447551,41.7602162 C89.2447551,18.932973 89.4591385,13.1184865 83.7779779,13.1184865 C78.3112007,13.1184865 78.3112007,19.0406486 78.3112007,41.7602162 C78.3112007,65.8795676 78.7399675,69.2175135 83.7779779,69.2175135 C88.9231799,69.2175135 89.2447551,65.7718919 89.2447551,41.7602162 Z M158.766236,15.4873514 L144.188163,15.4873514 L144.188163,83 L125.965572,83 L125.965572,15.4873514 L111.3875,15.4873514 L111.3875,0.305081081 L158.766236,0.305081081 L158.766236,15.4873514 Z M232.315062,16.7794595 L210.555145,16.7794595 L210.555145,34.7612973 L229.849652,34.7612973 L229.849652,49.9435676 L210.555145,49.9435676 L210.555145,83 L192.332554,83 L192.332554,0.305081081 L232.315062,0.305081081 L232.315062,16.7794595 Z M282.542034,83 L239.343775,83 L239.343775,0.305081081 L280.3982,0.305081081 L280.3982,15.9180541 L257.566366,15.9180541 L257.566366,33.1461622 L277.932791,33.1461622 L277.932791,48.3284324 L257.566366,48.3284324 L257.566366,67.1716757 L282.542034,67.1716757 L282.542034,83 Z M332.876199,83 L289.67794,83 L289.67794,0.305081081 L330.732365,0.305081081 L330.732365,15.9180541 L307.90053,15.9180541 L307.90053,33.1461622 L328.266955,33.1461622 L328.266955,48.3284324 L307.90053,48.3284324 L307.90053,67.1716757 L332.876199,67.1716757 L332.876199,83 Z M383.317555,15.4873514 L368.739482,15.4873514 L368.739482,83 L350.516892,83 L350.516892,15.4873514 L335.938819,15.4873514 L335.938819,0.305081081 L383.317555,0.305081081 L383.317555,15.4873514 Z M404.817149,83 L388.309626,83 L388.309626,64.9104865 L404.817149,64.9104865 L404.817149,83 Z" id="Hot-Feet."></path>
            </g>
        </g>
    </g>
</svg>