<?xml version="1.0" standalone="no"?>
<!DOCTYPE svg PUBLIC "-//W3C//DTD SVG 20010904//EN"
 "http://www.w3.org/TR/2001/REC-SVG-20010904/DTD/svg10.dtd">
<svg version="1.0" xmlns="http://www.w3.org/2000/svg"
 width="1152.000000pt" height="1152.000000pt" viewBox="0 0 1152.000000 1152.000000"
 preserveAspectRatio="xMidYMid meet">
<metadata>
Created by potrace 1.11, written by Peter Selinger 2001-2013
</metadata>
<g transform="translate(0.000000,1152.000000) scale(0.100000,-0.100000)"
fill="#000000" stroke="none">
<path d="M7481 10549 c-14 -5 -41 -12 -60 -15 -20 -3 -39 -8 -42 -10 -4 -2
-25 -6 -47 -9 -55 -7 -92 -22 -93 -37 -4 -48 2 -93 16 -138 6 -19 11 -42 20
-94 3 -16 10 -36 14 -45 5 -9 9 -19 10 -24 1 -21 13 -86 21 -117 16 -62 31
-125 35 -145 2 -11 10 -54 19 -95 8 -41 18 -88 21 -105 2 -16 7 -40 10 -52 31
-137 38 -181 38 -245 0 -48 -5 -71 -17 -83 -9 -9 -16 -21 -16 -26 0 -15 -81
-47 -110 -45 -14 1 -35 7 -46 14 -22 12 -68 96 -80 147 -4 17 -10 35 -14 40
-4 6 -10 24 -13 40 -11 64 -33 146 -54 205 -3 8 -7 22 -8 30 -1 13 -58 250
-85 360 -5 19 -14 58 -20 85 -7 28 -16 61 -20 75 -5 14 -11 41 -13 60 -8 66
-29 94 -67 92 -17 0 -101 -14 -130 -21 -19 -4 -39 -9 -45 -10 -44 -8 -87 -27
-94 -40 -8 -18 -8 -23 4 -71 4 -19 9 -44 11 -55 1 -11 3 -20 4 -20 1 0 3 -7 5
-15 2 -8 21 -78 41 -155 19 -77 37 -147 39 -155 7 -35 36 -146 42 -160 3 -8 7
-24 8 -35 1 -11 10 -47 19 -80 10 -33 19 -73 22 -89 2 -16 8 -34 13 -40 4 -6
7 -21 6 -33 -1 -13 1 -23 5 -23 4 0 7 -6 8 -12 13 -129 94 -304 174 -372 60
-50 59 -49 98 -64 61 -23 73 -25 154 -27 105 -3 176 14 239 57 15 11 27 18 28
16 2 -7 8 -45 13 -83 6 -42 9 -55 20 -95 3 -14 8 -38 10 -55 6 -41 14 -83 26
-130 5 -22 11 -51 13 -65 2 -14 16 -93 32 -177 22 -116 32 -150 41 -142 6 5
32 12 56 14 24 3 81 16 127 30 47 14 93 25 103 25 17 0 18 6 12 68 -3 37 -6
76 -6 87 0 11 -15 83 -34 160 -18 77 -35 158 -39 181 -3 22 -10 55 -15 72 -5
18 -6 32 -3 32 3 0 0 6 -6 14 -7 8 -13 29 -15 48 -4 33 -11 70 -21 118 -3 14
-8 36 -11 50 -2 14 -7 36 -11 50 -3 14 -7 34 -8 45 -1 11 -12 67 -25 125 -12
58 -23 112 -25 120 -2 8 -7 33 -12 55 -5 22 -9 51 -9 65 1 14 -2 27 -6 30 -4
3 -8 21 -9 40 -2 19 -5 40 -8 45 -3 6 -6 15 -7 20 -1 6 -5 26 -9 45 -3 19 -8
50 -11 69 -2 18 -7 37 -10 42 -2 5 -7 21 -9 36 -2 16 -6 39 -9 53 -3 14 -13
63 -21 110 -9 47 -20 103 -25 125 -5 22 -13 56 -17 75 -4 19 -7 37 -8 40 -9
42 -15 72 -20 105 -4 22 -8 45 -10 50 -2 6 -6 20 -10 33 -8 24 -33 28 -74 11z"/>
<path d="M6006 10131 c-13 -21 -84 -201 -79 -201 3 0 1 -6 -4 -12 -6 -7 -16
-38 -23 -68 -7 -30 -15 -59 -19 -65 -3 -5 -6 -14 -7 -20 -1 -5 -16 -59 -32
-120 -28 -100 -45 -188 -57 -285 -3 -19 -8 -57 -11 -85 -17 -126 -3 -587 20
-690 2 -5 6 -32 10 -60 4 -27 9 -61 11 -75 2 -14 8 -40 14 -58 5 -18 10 -33 9
-35 -1 -4 23 -94 43 -158 11 -37 28 -74 38 -83 20 -18 54 -17 73 2 7 7 16 12
20 12 5 0 33 17 61 39 100 74 400 237 541 295 45 19 106 45 137 59 31 14 60
23 63 20 3 -4 6 -1 6 5 0 7 3 11 8 10 6 -1 38 10 87 31 37 16 150 59 188 72
21 8 43 19 48 25 13 16 -9 144 -25 145 -36 1 -280 -3 -326 -6 -75 -5 -187 -15
-230 -20 -59 -7 -142 -15 -200 -20 -30 -3 -70 -9 -88 -14 -32 -10 -34 -9 -48
25 -12 29 -25 87 -60 267 -17 89 -2 571 21 677 4 17 8 41 10 53 1 12 8 42 14
67 22 92 20 97 -81 192 -87 82 -119 101 -132 79z"/>
<path d="M8800 10132 c-37 -10 -109 -50 -155 -86 -44 -34 -195 -189 -195 -201
0 -4 -63 -108 -70 -115 -9 -9 -58 -112 -80 -170 -66 -168 -78 -242 -86 -528
-4 -186 1 -232 26 -232 5 0 30 42 55 93 75 152 246 367 416 522 24 23 89 77
144 122 132 106 189 166 224 235 26 49 29 66 28 130 -4 145 -83 230 -216 235
-36 1 -77 -1 -91 -5z"/>
<path d="M5424 10117 c-47 -25 -101 -92 -138 -172 -10 -22 -27 -51 -36 -65
-22 -31 -75 -168 -91 -235 -7 -27 -15 -55 -20 -60 -4 -6 -10 -24 -13 -40 -2
-17 -5 -30 -6 -30 -1 0 -3 -16 -4 -35 -1 -19 -5 -40 -8 -45 -3 -6 -9 -35 -13
-65 -3 -30 -8 -71 -11 -90 -2 -19 -6 -99 -9 -176 -3 -78 -8 -152 -11 -165 -2
-13 -5 -75 -5 -137 l-1 -114 -26 24 c-15 12 -40 35 -57 50 -33 29 -56 49 -135
118 -29 25 -67 60 -85 78 -18 17 -35 32 -38 32 -3 0 -27 21 -55 48 -27 26 -91
85 -142 132 -50 47 -183 174 -294 284 -110 109 -211 205 -223 213 -29 20 -71
11 -140 -28 -71 -39 -91 -56 -108 -90 -13 -23 -9 -34 42 -140 30 -63 58 -116
61 -119 4 -3 12 -16 19 -30 7 -14 53 -110 104 -215 50 -104 92 -194 93 -200 2
-10 21 -65 37 -100 29 -67 58 -149 64 -177 4 -18 11 -37 15 -43 5 -5 9 -14 10
-20 5 -22 59 -204 67 -225 8 -19 7 -18 17 -60 5 -19 12 -39 16 -45 9 -13 72
-243 75 -275 1 -14 5 -32 8 -40 4 -8 9 -28 12 -45 8 -39 9 -43 24 -90 16 -52
18 -59 20 -68 0 -4 8 -21 17 -38 14 -29 18 -30 52 -24 20 4 41 10 47 13 5 4
19 8 30 9 11 2 21 8 23 13 2 5 10 6 18 3 8 -3 22 1 31 8 9 8 18 13 20 11 8 -7
111 58 118 75 13 30 11 44 -18 131 -15 46 -25 88 -22 92 3 5 1 11 -4 14 -4 3
-12 20 -16 38 -4 18 -9 38 -11 43 -2 6 -5 22 -8 36 -3 14 -12 45 -20 68 -9 22
-13 41 -11 41 3 0 1 10 -4 23 -5 13 -12 39 -15 58 -3 19 -17 69 -31 112 -14
44 -27 86 -29 95 -3 17 -10 36 -27 82 -7 17 8 6 47 -35 268 -280 391 -400 479
-467 17 -12 32 -25 35 -28 15 -16 110 -90 115 -90 4 0 12 -6 20 -12 20 -19 63
-51 93 -68 15 -9 47 -28 71 -44 24 -16 49 -29 55 -30 6 -1 30 -14 53 -29 24
-15 50 -27 59 -27 46 0 210 132 218 176 3 13 -6 33 -22 52 -39 45 -155 279
-182 367 -7 22 -19 49 -26 60 -8 11 -14 27 -14 37 0 9 -6 32 -14 50 -20 44
-55 161 -60 195 -2 16 -6 35 -9 43 -16 45 -19 58 -23 85 -3 17 -9 51 -15 77
-19 84 -29 230 -29 438 -1 157 2 198 19 280 5 25 11 65 14 90 3 25 10 56 15
70 5 14 10 28 10 33 2 13 30 99 56 171 28 78 24 102 -21 132 -50 33 -78 43
-99 31z"/>
<path d="M3005 9821 c-86 -38 -87 -156 -2 -206 31 -18 86 -35 124 -38 12 -1
24 -5 28 -9 4 -4 13 -4 21 -1 8 3 27 0 42 -5 15 -6 41 -13 57 -16 30 -4 36 -6
90 -27 17 -7 32 -13 35 -14 21 -7 53 -24 103 -53 32 -19 60 -32 62 -30 6 5
-39 90 -81 153 -96 147 -245 243 -388 251 -39 2 -80 0 -91 -5z"/>
<path d="M3036 9323 c-1 -1 -24 -5 -52 -8 -184 -21 -390 -115 -493 -225 -48
-51 -91 -107 -91 -119 0 -6 -4 -11 -10 -11 -5 0 -10 -5 -10 -11 0 -6 -14 -40
-31 -74 -17 -34 -32 -71 -34 -81 -2 -10 -4 -20 -5 -21 -4 -5 -21 -93 -22 -110
0 -5 -4 -17 -8 -28 -4 -11 -11 -54 -15 -95 -15 -143 -8 -266 25 -415 21 -93
27 -120 38 -147 7 -16 9 -28 6 -28 -4 0 -2 -6 3 -12 6 -7 18 -38 28 -68 30
-94 137 -300 198 -383 105 -142 268 -290 390 -354 17 -9 73 -30 123 -47 152
-52 317 -40 504 34 132 52 271 160 348 270 26 36 49 67 53 70 14 11 69 143 89
216 30 111 36 201 25 389 -4 67 -9 100 -18 130 -3 11 -8 36 -11 55 -3 19 -10
51 -16 70 -6 19 -13 44 -15 56 -3 11 -18 53 -34 92 -17 40 -28 72 -26 72 9 0
-129 256 -175 326 -116 170 -250 298 -395 376 -46 24 -176 66 -215 69 -19 2
-39 5 -44 7 -8 4 -106 9 -110 5z m94 -446 c8 -2 29 -7 45 -12 17 -4 37 -13 45
-21 8 -7 22 -14 30 -16 22 -5 91 -51 124 -84 53 -53 132 -168 174 -255 41 -84
95 -235 106 -295 3 -16 8 -42 11 -59 23 -109 19 -290 -7 -338 -6 -12 -11 -24
-11 -27 3 -35 -122 -228 -149 -230 -5 0 -17 -9 -28 -20 -10 -10 -51 -29 -89
-40 -142 -44 -254 -8 -383 120 -43 43 -78 82 -78 87 0 5 -9 19 -20 31 -12 12
-18 22 -16 22 3 0 -7 20 -23 46 -26 40 -91 191 -107 249 -52 184 -57 213 -58
345 -1 124 1 142 28 225 17 50 29 93 29 96 -1 3 19 31 43 63 72 91 142 124
254 120 36 -1 72 -4 80 -7z"/>
<path d="M9404 8570 c-66 -22 -120 -67 -151 -129 -22 -44 -23 -154 -2 -192 22
-39 71 -92 99 -107 14 -7 36 -21 48 -31 22 -16 23 -20 12 -62 -12 -43 -16 -62
-25 -104 -3 -12 -14 -48 -26 -80 -27 -79 -30 -93 -18 -101 16 -10 123 70 206
155 72 74 135 194 150 286 10 56 4 200 -7 200 -1 0 -3 7 -5 16 -4 22 -55 101
-74 117 -61 48 -124 58 -207 32z"/>
<path d="M8981 8509 c-24 -4 -49 -13 -56 -19 -6 -5 -43 -12 -81 -14 -78 -5
-104 -10 -133 -26 -11 -6 -31 -9 -43 -7 -13 3 -48 -4 -78 -15 -30 -11 -68 -20
-85 -21 -16 -1 -36 -6 -42 -10 -7 -5 -13 -6 -13 -2 0 3 -8 1 -19 -4 -18 -10
-58 -19 -111 -26 -36 -5 -67 -13 -119 -29 -25 -8 -68 -17 -96 -21 -27 -4 -62
-13 -77 -21 -16 -8 -28 -12 -28 -10 0 2 -34 -6 -75 -19 -41 -12 -75 -21 -75
-19 0 2 -12 -1 -27 -7 -15 -6 -45 -12 -65 -14 -21 -2 -48 -10 -60 -17 -13 -6
-28 -13 -35 -14 -6 -1 -27 -7 -45 -13 -18 -6 -42 -9 -53 -7 -11 2 -25 0 -30
-5 -6 -4 -22 -10 -35 -12 -51 -10 -136 -49 -165 -77 -50 -48 -110 -69 -187
-66 -38 1 -68 1 -68 -1 0 -16 36 -66 66 -92 27 -24 42 -31 58 -26 11 3 35 8
53 10 18 2 70 22 116 44 46 23 91 41 99 41 9 0 32 7 52 15 20 8 36 13 36 10 0
-4 74 22 125 44 11 5 40 18 65 29 25 11 61 23 80 26 19 3 55 17 80 30 25 13
50 21 57 19 6 -2 32 5 57 16 41 19 72 28 103 30 6 1 18 7 25 14 7 7 18 14 23
15 44 5 90 18 146 42 37 15 82 30 100 33 19 2 63 16 99 31 35 15 75 28 87 31
13 2 28 7 33 10 11 7 35 12 90 20 14 2 25 4 25 5 0 1 8 3 18 5 10 2 29 11 42
19 13 9 32 17 42 19 10 1 24 6 31 10 7 5 30 9 51 11 21 1 50 9 63 18 13 9 33
18 43 21 19 5 19 5 0 5 -11 0 -40 -4 -64 -9z"/>
<path d="M7083 8461 c-66 -17 -128 -73 -157 -141 -10 -25 -22 -53 -28 -64 -5
-10 -11 -52 -14 -95 -4 -80 23 -213 52 -258 8 -13 12 -23 9 -23 -7 0 64 -101
102 -143 43 -49 149 -120 220 -148 85 -33 252 -33 340 0 35 13 68 30 74 37 6
8 18 14 25 14 19 0 133 115 171 171 52 78 118 277 99 296 -3 4 -27 -4 -54 -16
-26 -12 -55 -23 -64 -25 -10 -1 -20 -5 -24 -8 -3 -4 -12 -4 -20 -1 -8 3 -14 1
-14 -4 0 -5 -6 -10 -12 -10 -7 0 -45 -14 -85 -31 -39 -18 -76 -32 -82 -32 -5
0 -12 -9 -16 -19 -11 -36 -82 -101 -139 -127 -88 -40 -191 -36 -295 12 -46 21
-114 93 -140 148 -21 47 -43 149 -30 140 5 -3 9 -11 9 -18 0 -12 42 -38 65
-42 6 0 18 -4 28 -9 25 -11 134 0 152 15 8 7 15 9 15 5 0 -3 12 8 27 27 15 18
31 35 35 38 25 19 31 167 8 195 -6 7 -8 14 -5 17 6 6 -65 80 -90 94 -24 13
-118 16 -162 5z"/>
<path d="M10718 8398 c-7 -3 -30 -14 -51 -23 -22 -9 -48 -24 -60 -33 -24 -20
-134 -130 -223 -223 -205 -215 -431 -376 -637 -453 -85 -32 -48 -51 118 -62
226 -15 362 -7 510 29 78 19 266 99 301 128 8 6 14 8 14 3 0 -5 4 -4 8 1 9 12
69 55 77 55 7 0 9 2 95 85 119 115 166 217 147 325 -14 83 -81 150 -167 167
-40 8 -117 9 -132 1z"/>
<path d="M1108 8250 c-31 -10 -60 -15 -63 -12 -3 3 -5 0 -5 -7 0 -7 -4 -10 -8
-7 -5 3 -21 -2 -36 -10 -16 -7 -33 -14 -38 -14 -5 0 -41 -21 -80 -47 -40 -27
-78 -52 -87 -58 -23 -16 -53 -46 -95 -98 -155 -191 -200 -440 -121 -672 16
-50 78 -165 105 -199 50 -63 160 -160 233 -208 26 -17 47 -35 47 -40 0 -4 5
-8 11 -8 13 0 158 -89 284 -174 103 -70 295 -254 295 -283 0 -3 7 -15 17 -25
19 -21 29 -39 62 -105 13 -26 28 -56 33 -67 16 -31 21 -59 24 -127 8 -232
-268 -381 -452 -243 -56 42 -78 70 -124 156 -39 74 -107 247 -116 296 -9 49
-90 194 -119 214 -5 4 -6 8 -2 8 5 0 -6 12 -25 27 -18 15 -35 30 -38 34 -20
23 -155 45 -166 27 -3 -5 -12 -7 -20 -4 -7 3 -20 -1 -28 -9 -8 -8 -19 -15 -24
-15 -15 0 -88 -72 -97 -95 -36 -90 -34 -179 6 -269 11 -25 19 -48 19 -51 0 -3
5 -12 12 -19 7 -7 28 -32 47 -57 19 -24 54 -60 79 -79 24 -19 49 -40 56 -46
20 -19 244 -152 249 -148 2 3 10 -2 17 -11 7 -8 18 -15 25 -15 6 0 20 -9 30
-20 10 -11 22 -20 26 -20 16 0 74 -52 114 -101 46 -56 59 -138 30 -196 -18
-36 -64 -78 -96 -88 -13 -4 -30 -12 -37 -18 -7 -6 -46 -11 -85 -11 -124 0
-185 46 -259 194 -23 47 -45 87 -48 90 -3 3 -14 23 -25 44 -26 51 -92 114
-128 122 -36 8 -77 -9 -102 -42 -22 -30 -27 -47 -25 -94 1 -37 46 -140 61
-140 5 0 9 -5 9 -11 0 -10 77 -97 114 -128 87 -73 178 -140 226 -167 19 -10
37 -21 40 -24 3 -3 48 -37 100 -74 383 -277 617 -538 720 -803 13 -32 26 -67
31 -78 18 -46 29 -93 32 -133 1 -23 4 -42 7 -42 10 0 13 -187 5 -230 -10 -45
-18 -95 -18 -107 0 -7 -3 -13 -7 -13 -3 0 -6 -9 -7 -19 -1 -10 -12 -43 -24
-73 -71 -169 -183 -297 -322 -368 -77 -39 -95 -44 -164 -46 -122 -4 -187 28
-281 140 -34 41 -60 104 -77 186 -9 41 -12 190 -5 195 7 4 4 113 -4 155 -4 19
-13 49 -21 65 -14 29 -95 133 -95 121 0 -3 -18 4 -40 15 -111 58 -297 3 -405
-120 -16 -19 -37 -42 -46 -50 -22 -23 -89 -120 -89 -129 0 -5 -9 -18 -20 -30
-11 -12 -20 -24 -19 -27 0 -3 -11 -36 -26 -74 -14 -37 -32 -97 -39 -132 -16
-78 -14 -296 4 -359 7 -25 14 -52 15 -60 1 -8 6 -24 10 -35 4 -11 21 -54 36
-95 59 -154 191 -334 350 -475 39 -36 124 -95 135 -95 4 0 21 -10 38 -23 37
-28 203 -102 266 -119 25 -6 47 -12 50 -13 69 -19 92 -25 125 -30 97 -14 339
-4 378 16 9 6 17 8 17 5 0 -6 69 16 155 48 85 32 195 87 195 97 0 3 8 9 18 12
33 11 95 53 138 94 13 13 26 23 30 23 10 0 144 139 192 199 20 25 40 48 45 49
4 2 7 10 7 18 0 8 4 14 8 14 4 0 18 19 30 42 12 24 40 76 62 116 21 39 37 72
35 72 -2 0 9 30 24 68 15 37 29 70 30 74 1 4 3 13 5 20 17 56 38 166 40 211 0
9 3 17 6 17 5 0 12 70 14 138 1 17 3 32 6 32 3 0 6 21 6 48 4 123 17 410 29
627 5 99 14 187 30 305 9 64 46 174 87 254 51 102 66 122 247 332 48 57 84
140 82 194 -2 64 -14 68 -52 16 -19 -25 -38 -45 -42 -46 -4 0 -18 -9 -30 -21
-31 -29 -133 -76 -206 -95 -96 -24 -101 -19 -46 54 63 83 125 144 197 193 82
56 144 82 278 114 63 16 119 32 123 36 29 24 -73 130 -159 167 -83 36 -248 37
-379 2 -49 -13 -97 -24 -105 -25 -9 0 -20 -4 -25 -7 -12 -7 -84 -20 -130 -23
-48 -3 -125 15 -175 40 -51 26 -121 93 -140 134 -7 14 -18 37 -25 51 -14 27
-35 110 -42 168 -11 77 -5 184 13 282 3 14 7 39 10 55 3 17 12 55 20 85 8 30
17 66 20 80 2 14 9 39 14 55 5 17 12 44 15 62 3 17 12 58 20 91 9 33 18 73 20
89 2 15 7 42 10 58 4 17 8 44 9 61 2 17 5 35 8 40 10 20 13 241 4 314 -11 87
-15 106 -36 185 -19 70 -64 181 -91 225 -5 8 -15 27 -22 43 -6 15 -15 27 -19
27 -4 0 -8 6 -8 13 0 19 -110 150 -170 203 -14 12 -41 36 -60 52 -31 28 -205
123 -205 113 0 -3 -11 2 -25 9 -14 7 -34 15 -45 16 -11 2 -31 6 -45 10 -14 4
-81 8 -150 10 -97 2 -138 -2 -182 -16z m1004 -2840 c17 -33 17 -35 -4 -57 -42
-44 -101 -23 -101 37 0 41 20 62 57 58 24 -2 35 -11 48 -38z"/>
<path d="M6823 7934 c-17 -7 -46 -16 -64 -19 -17 -3 -41 -12 -53 -20 -11 -8
-30 -15 -42 -15 -12 0 -33 -9 -47 -20 -14 -11 -29 -20 -34 -20 -4 0 -19 -6
-33 -13 -14 -8 -47 -19 -74 -26 -27 -6 -81 -27 -120 -46 -39 -18 -84 -36 -101
-40 -16 -4 -76 -29 -132 -56 -56 -27 -104 -49 -108 -49 -4 0 -29 -11 -56 -25
-27 -13 -65 -27 -84 -31 -19 -3 -35 -10 -35 -14 0 -5 -18 -11 -40 -15 -22 -4
-40 -11 -40 -16 0 -5 -7 -9 -15 -9 -8 0 -15 -4 -15 -8 0 -10 -120 -72 -141
-72 -8 0 -25 -9 -39 -20 -14 -11 -31 -20 -39 -20 -8 0 -36 -14 -62 -31 -27
-17 -54 -32 -61 -33 -7 -1 -29 -12 -48 -24 -19 -12 -41 -22 -48 -22 -7 0 -28
-11 -46 -25 -18 -14 -40 -25 -49 -25 -9 0 -19 -5 -22 -10 -4 -6 -10 -8 -15 -5
-4 3 -14 -2 -21 -11 -7 -9 -33 -26 -58 -39 -25 -13 -60 -35 -77 -50 -18 -14
-48 -34 -67 -44 l-36 -18 3 27 c2 15 7 33 11 40 5 8 14 37 21 64 14 59 32 113
47 141 6 11 11 31 12 45 1 14 11 48 23 75 12 28 21 55 20 60 -4 13 -63 9 -91
-7 -12 -7 -29 -14 -37 -15 -8 -1 -46 -13 -85 -27 -38 -14 -78 -26 -88 -26 -10
0 -28 -7 -41 -15 -13 -9 -34 -18 -46 -20 -40 -8 -90 -26 -90 -34 0 -3 -20 -13
-45 -20 -24 -7 -49 -19 -56 -27 -6 -8 -21 -14 -32 -14 -11 0 -34 -10 -51 -23
-17 -12 -41 -22 -53 -21 -12 1 -30 -7 -39 -17 -10 -11 -23 -19 -31 -19 -13 0
-135 -66 -216 -117 -22 -14 -56 -31 -78 -38 -21 -8 -44 -19 -51 -24 -76 -62
-138 -101 -162 -101 -7 0 -20 -7 -27 -16 -7 -9 -37 -27 -65 -41 -28 -13 -62
-35 -75 -49 -12 -13 -27 -24 -32 -24 -6 0 -26 -12 -46 -27 -20 -16 -39 -27
-42 -26 -4 1 -20 -10 -35 -25 -49 -45 -111 -90 -171 -124 -32 -18 -60 -35 -63
-39 -12 -16 -121 -99 -129 -99 -6 0 -36 -24 -68 -53 -32 -30 -79 -66 -105 -81
-27 -15 -48 -31 -48 -35 0 -10 -117 -101 -129 -101 -5 0 -21 -14 -35 -31 -14
-17 -26 -28 -26 -26 0 3 -30 -22 -66 -56 -36 -34 -74 -66 -83 -72 -34 -19 -68
-51 -80 -72 -10 -20 -9 -22 6 -16 10 3 68 38 128 78 172 112 204 132 295 176
47 24 113 62 147 86 35 24 67 43 73 43 5 0 10 4 10 10 0 5 6 7 13 4 7 -2 22 4
32 14 30 27 85 64 85 57 0 -3 23 6 50 21 28 15 50 31 50 36 0 4 6 8 13 8 14 0
89 39 97 50 6 9 68 41 76 39 4 0 10 3 13 8 3 5 47 29 96 53 50 25 111 58 136
75 89 57 147 90 155 87 4 -2 10 1 13 6 3 5 34 24 69 42 34 17 65 36 68 42 6
10 48 29 77 35 25 4 134 61 142 73 3 5 14 10 24 10 10 0 26 9 36 20 10 11 24
20 32 20 7 0 13 5 13 10 0 6 7 10 15 10 9 0 48 16 88 35 39 19 79 35 88 35 9
0 28 9 42 20 43 34 63 19 34 -25 -7 -11 -14 -33 -16 -50 -2 -16 -9 -42 -16
-56 -8 -14 -12 -34 -10 -45 1 -10 -3 -28 -10 -39 -7 -12 -18 -48 -25 -80 -7
-33 -17 -66 -22 -72 -6 -7 -12 -29 -14 -50 -2 -21 -8 -49 -13 -63 -5 -14 -12
-39 -15 -56 -5 -32 -5 -32 24 -21 17 6 30 15 30 19 0 4 7 8 15 8 19 0 57 23
109 67 22 18 45 33 52 33 7 0 36 19 66 43 29 23 76 54 103 67 28 14 52 27 55
30 17 17 98 64 132 76 22 8 67 32 100 54 33 22 64 40 69 40 7 0 96 57 109 70
3 3 14 6 24 8 10 2 35 12 55 23 20 10 41 19 47 19 6 0 19 9 29 20 9 10 34 24
54 31 20 6 45 17 56 23 11 7 39 20 62 29 23 9 64 32 91 51 44 32 89 55 119 62
7 1 25 11 40 22 15 10 42 22 58 26 17 4 71 27 121 52 50 24 97 44 103 44 7 0
29 9 50 20 21 10 51 21 66 24 15 3 35 11 44 19 9 7 32 20 51 27 19 7 63 28 98
47 34 18 70 33 79 33 16 0 119 41 163 65 14 8 42 23 63 35 26 14 37 17 37 8 0
-10 2 -10 8 -1 5 7 20 14 35 15 32 3 34 20 7 58 -18 25 -42 76 -44 92 -3 20
-23 24 -53 12z"/>
<path d="M7774 7478 c-2 -4 -12 -7 -22 -6 -34 0 -65 -12 -101 -39 -47 -36 -91
-84 -91 -100 0 -7 -4 -13 -8 -13 -19 0 -47 -117 -46 -195 1 -67 6 -90 29 -138
37 -74 96 -136 155 -163 64 -29 85 -33 162 -31 69 3 94 9 149 35 36 17 73 40
83 51 18 20 18 21 -9 53 -15 18 -58 66 -97 106 l-70 72 34 14 c18 8 50 21 70
29 20 8 39 13 42 9 3 -3 6 0 6 6 0 7 3 11 8 11 4 -1 9 0 12 1 3 1 12 3 21 5 9
1 32 10 52 20 41 19 42 37 3 94 -61 90 -174 167 -258 176 -18 2 -33 4 -33 5 0
6 -88 4 -91 -2z m56 -148 c22 -22 18 -45 -11 -61 -14 -7 -23 -5 -39 11 -20 20
-19 29 3 58 13 17 24 15 47 -8z"/>
<path d="M9047 7438 c-63 -13 -140 -53 -180 -93 -20 -20 -37 -41 -37 -45 0 -5
-6 -15 -13 -22 -7 -7 -20 -32 -29 -55 -17 -45 -19 -181 -3 -316 l8 -69 -42 22
c-44 22 -89 42 -106 45 -5 2 -50 17 -100 35 -49 17 -94 33 -100 34 -5 2 -41
12 -80 24 -91 28 -145 34 -145 15 0 -7 22 -34 49 -59 65 -61 147 -183 217
-324 54 -108 119 -280 107 -280 -3 0 -1 -6 5 -12 5 -7 13 -29 17 -48 4 -19 10
-39 13 -44 3 -6 7 -19 8 -30 5 -36 10 -60 17 -81 9 -27 44 -235 53 -315 18
-156 5 -441 -26 -605 -5 -27 -12 -61 -14 -75 -5 -24 -14 -65 -20 -85 -2 -5 -6
-23 -11 -40 -4 -16 -10 -34 -14 -40 -3 -5 -11 -28 -17 -50 -25 -85 -121 -299
-167 -369 -169 -264 -277 -357 -350 -302 -21 16 -50 110 -42 136 3 10 2 21 -3
24 -8 5 -8 15 2 106 3 25 8 68 11 95 8 78 16 146 20 165 2 9 6 41 10 70 4 29
8 60 10 69 5 28 17 135 20 171 1 19 8 64 15 100 6 36 14 85 16 110 3 45 12
120 19 175 26 182 25 413 -2 575 -3 19 -7 42 -7 50 -1 9 -4 20 -8 25 -3 6 -9
24 -13 40 -22 81 -67 173 -105 215 -71 79 -124 130 -134 130 -3 0 -24 13 -48
29 -74 50 -160 74 -263 72 -80 -2 -140 -6 -140 -11 0 -1 -8 -3 -17 -6 -106
-25 -222 -88 -290 -157 -32 -32 -58 -64 -58 -72 0 -8 -4 -15 -8 -15 -6 0 -51
-77 -57 -100 -1 -3 -7 -18 -14 -35 -7 -16 -14 -43 -15 -60 0 -16 -4 -32 -8
-35 -13 -10 -30 -216 -19 -235 3 -5 6 -14 6 -20 0 -5 9 -10 20 -10 20 0 23 11
48 205 16 119 54 186 132 230 46 26 90 25 145 -2 97 -50 106 -121 76 -611 -2
-38 -7 -71 -10 -74 -3 -3 11 -15 32 -26 20 -11 55 -29 77 -41 22 -12 56 -28
75 -35 89 -34 140 -90 144 -159 2 -35 -20 -102 -34 -102 -3 0 -15 -9 -27 -19
-11 -10 -69 -47 -129 -82 -60 -35 -111 -66 -114 -69 -3 -3 -14 -10 -25 -16
-23 -13 -21 1 -30 -259 -15 -431 -14 -443 10 -584 7 -37 39 -125 48 -132 5 -3
7 -8 5 -11 -7 -11 76 -130 115 -163 76 -66 112 -80 207 -79 47 0 94 2 105 5
36 9 177 81 195 99 3 3 29 25 59 50 51 42 84 74 187 186 75 81 227 306 276
409 10 22 29 58 41 80 37 66 132 282 182 410 26 66 51 128 56 138 6 10 23 53
38 95 56 149 71 164 92 90 7 -24 30 -95 51 -158 22 -63 41 -122 43 -130 2 -8
24 -77 50 -154 26 -76 48 -143 49 -150 2 -6 8 -22 14 -36 14 -34 25 -63 27
-75 1 -11 4 -19 48 -129 56 -138 101 -147 297 -58 124 56 246 106 253 104 4
-1 7 3 7 10 0 6 3 8 6 5 4 -4 19 2 34 13 15 11 30 17 34 13 3 -3 6 -1 6 5 0 7
6 12 13 12 30 0 103 84 113 131 8 41 6 119 -4 147 -5 15 -16 47 -23 72 -7 25
-19 55 -27 68 -8 12 -12 22 -9 22 3 0 -10 32 -29 70 -19 39 -34 73 -34 77 0
10 -54 128 -61 133 -4 3 -9 14 -11 25 -1 11 -5 22 -8 25 -3 3 -29 55 -58 115
-29 61 -59 121 -67 135 -8 14 -46 84 -84 155 -39 72 -78 144 -88 161 -10 17
-40 71 -67 120 -27 49 -52 91 -55 94 -3 3 -14 21 -23 40 -20 40 -123 220 -135
235 -4 6 -21 35 -37 65 -16 30 -54 98 -84 150 -30 52 -68 117 -84 145 -83 145
-118 245 -104 299 6 26 56 51 93 48 81 -7 224 -128 483 -412 115 -126 108
-118 165 -185 22 -26 56 -64 75 -85 19 -21 55 -62 80 -91 71 -84 131 -152 151
-172 11 -10 19 -21 19 -25 0 -4 21 -29 45 -55 25 -26 45 -50 45 -52 0 -3 8
-13 18 -23 9 -10 31 -35 47 -57 17 -21 38 -47 49 -58 10 -11 78 -94 152 -186
73 -91 139 -173 146 -181 7 -7 41 -50 76 -95 34 -44 76 -96 92 -115 16 -19 49
-60 74 -91 58 -72 100 -98 155 -94 23 2 49 9 57 15 7 7 14 10 14 7 0 -9 139
71 185 106 111 85 337 297 366 344 27 43 18 91 -24 131 -18 17 -81 66 -142
111 -60 44 -114 84 -120 89 -30 23 -183 145 -198 157 -9 8 -19 15 -21 15 -2 0
-20 15 -39 33 -19 17 -52 46 -73 62 -21 17 -70 57 -109 90 -39 33 -84 69 -99
80 -16 11 -36 27 -45 35 -9 9 -41 36 -71 60 -30 24 -70 59 -87 77 -18 17 -33
29 -33 25 0 -4 -4 -2 -8 3 -4 6 -28 27 -54 48 -26 21 -53 43 -60 50 -7 7 -38
32 -68 57 -30 25 -66 54 -79 65 -13 11 -33 28 -43 38 -10 9 -21 17 -24 17 -4
0 -20 14 -36 30 -15 17 -32 30 -37 30 -5 0 -11 3 -13 8 -7 16 -188 162 -283
228 -162 113 -287 175 -415 205 -77 18 -206 22 -273 7z"/>
<path d="M6455 7110 c-16 -4 -65 -23 -107 -43 -43 -20 -80 -37 -83 -37 -4 0
-25 -13 -48 -28 -23 -16 -67 -42 -97 -58 -30 -16 -57 -31 -60 -34 -3 -3 -18
-12 -35 -20 -16 -8 -32 -18 -35 -21 -3 -3 -24 -16 -47 -29 -24 -13 -54 -40
-68 -60 -26 -37 -26 -38 -20 -191 11 -301 14 -604 6 -618 -15 -23 -51 -2 -81
47 -16 26 -29 51 -28 56 0 5 -4 12 -9 15 -4 3 -21 31 -37 61 -31 61 -95 181
-134 250 -72 131 -121 175 -190 166 -52 -6 -64 -12 -181 -83 -57 -35 -105 -63
-106 -63 -4 0 -105 -65 -120 -77 -5 -4 -22 -14 -37 -22 -36 -19 -59 -70 -53
-117 5 -37 120 -282 140 -296 5 -4 7 -8 3 -8 -4 0 24 -61 62 -135 38 -74 66
-135 62 -135 -4 0 0 -5 8 -10 8 -5 15 -13 15 -17 0 -14 119 -248 130 -255 7
-5 7 -8 0 -8 -7 0 -7 -3 0 -8 11 -8 77 -136 77 -149 0 -4 3 -12 8 -18 4 -5 74
-140 155 -300 253 -498 285 -559 298 -567 7 -4 22 -8 33 -8 30 0 124 31 124
42 0 4 5 8 11 8 6 0 30 14 54 30 24 17 48 30 54 30 6 0 11 5 11 12 0 6 3 8 7
5 3 -4 13 -1 22 7 21 18 209 126 220 126 4 0 27 14 49 30 23 17 42 28 42 25 0
-3 8 2 19 12 59 57 49 138 -35 291 -63 114 -114 216 -114 228 0 6 -6 17 -14
23 -10 9 -15 42 -7 59 4 9 77 -48 191 -151 20 -18 52 -45 73 -61 21 -15 57
-45 80 -67 23 -21 64 -50 90 -65 59 -32 95 -28 180 22 32 19 62 34 67 34 4 0
10 4 12 8 2 5 32 24 68 42 36 19 79 45 96 57 17 13 34 23 38 23 11 0 239 131
260 149 10 9 20 15 22 13 7 -4 107 63 123 81 7 10 11 27 7 40 -6 27 -39 67
-53 67 -17 0 -220 107 -487 256 -214 120 -301 168 -366 201 -70 35 -98 60
-115 101 -24 55 -30 311 -19 722 10 373 11 353 -23 389 -31 31 -63 40 -108 31z"/>
<path d="M2859 6878 c-149 -91 -135 -85 -158 -64 -12 11 -21 27 -21 36 0 23
-33 59 -51 56 -36 -6 -56 -18 -76 -48 -22 -34 -83 -170 -88 -197 -2 -9 -4 -17
-5 -18 -2 -2 -3 -6 -5 -10 -3 -12 -13 -38 -56 -148 -53 -132 -53 -133 -77
-185 -49 -108 -73 -223 -53 -256 6 -11 11 -14 11 -7 0 7 9 37 21 68 34 91 88
155 321 380 167 162 245 234 297 275 55 45 95 111 87 145 -10 40 -51 32 -147
-27z"/>
<path d="M4035 6244 c-33 -7 -182 -47 -195 -52 -8 -3 -17 -6 -20 -6 -3 -1 -23
-12 -45 -25 -22 -14 -43 -24 -46 -23 -3 0 -19 -13 -36 -31 -34 -37 -54 -91
-55 -145 0 -37 17 -142 29 -172 3 -8 8 -23 10 -33 2 -10 21 -62 42 -115 21
-53 56 -142 76 -197 35 -92 98 -247 131 -322 8 -17 14 -33 14 -36 0 -3 5 -18
12 -34 6 -15 12 -34 14 -41 1 -8 13 -37 27 -65 13 -29 27 -63 31 -77 4 -14 17
-45 28 -70 11 -25 21 -49 22 -55 2 -5 10 -27 19 -49 9 -21 17 -42 17 -45 0 -4
9 -26 20 -49 11 -22 20 -46 20 -51 0 -6 16 -47 36 -92 20 -45 37 -87 38 -93 2
-6 10 -29 20 -51 32 -73 39 -90 42 -105 2 -8 18 -46 36 -86 27 -59 40 -76 73
-93 22 -12 50 -28 62 -35 41 -23 113 -92 154 -147 48 -64 125 -220 133 -271 3
-19 9 -46 14 -59 23 -65 18 -362 -7 -407 -6 -11 -5 -25 4 -42 13 -25 26 -56
30 -75 2 -5 19 -47 39 -92 20 -45 36 -84 36 -87 0 -3 31 -72 69 -154 37 -81
72 -158 76 -172 4 -14 11 -27 14 -30 3 -3 17 -27 31 -55 42 -85 75 -108 148
-104 108 5 212 96 212 184 0 24 -6 40 -60 160 -39 87 -53 120 -56 130 -3 15
-40 100 -104 238 -22 49 -40 91 -40 93 0 2 -10 26 -21 52 -41 92 -52 116 -79
183 -16 37 -26 70 -22 73 3 3 0 6 -6 6 -7 0 -12 6 -12 14 0 7 -16 49 -36 92
-54 120 -88 200 -89 214 -1 3 -11 26 -23 52 -12 26 -22 51 -22 55 -1 4 -9 26
-20 48 -11 22 -19 43 -20 47 0 4 -13 35 -29 70 -16 35 -32 74 -36 88 -4 14
-24 59 -44 100 -21 41 -38 78 -39 83 -1 4 -9 21 -17 37 -9 17 -13 30 -10 30 2
0 -4 15 -15 33 -11 17 -20 39 -20 47 0 8 -6 27 -14 42 -13 25 -13 27 16 39 42
17 136 19 195 4 103 -27 258 -113 313 -176 121 -135 156 -182 206 -274 21 -38
41 -72 45 -75 13 -10 189 -352 189 -369 0 -5 9 -20 20 -33 10 -14 17 -28 14
-30 -2 -3 2 -11 11 -18 8 -7 15 -17 15 -22 0 -10 35 -84 192 -406 43 -89 88
-182 98 -205 10 -23 26 -53 33 -67 8 -14 25 -46 37 -72 32 -67 52 -82 109 -82
44 0 113 25 152 56 23 19 50 75 51 106 2 65 -13 102 -162 407 -43 88 -115 237
-160 330 -45 94 -88 181 -96 195 -8 14 -26 50 -40 80 -67 142 -177 356 -209
405 -19 31 -35 58 -35 62 0 3 -7 13 -15 22 -8 9 -50 61 -93 116 -101 127 -103
130 -187 192 -38 29 -75 57 -82 63 -7 5 -16 10 -22 10 -5 0 -11 3 -13 8 -3 6
-67 38 -221 106 -32 14 -65 26 -73 26 -12 0 -14 5 -9 18 25 57 54 142 58 169
3 18 7 36 10 40 18 29 29 300 15 373 -5 25 -11 59 -14 75 -21 120 -76 246
-144 330 -22 28 -43 58 -46 68 -4 9 -10 17 -14 17 -4 0 -33 25 -64 55 -117
114 -264 193 -410 221 -31 6 -193 12 -211 8z m211 -370 c22 -9 41 -19 44 -23
3 -3 23 -18 45 -33 93 -61 196 -191 210 -266 2 -9 4 -18 4 -19 1 -2 1 -6 2
-10 1 -5 5 -16 10 -25 10 -19 20 -78 21 -123 1 -60 -15 -230 -22 -230 -1 0 -4
-13 -6 -30 -9 -54 -56 -159 -93 -207 -20 -26 -39 -47 -42 -48 -4 0 -17 28 -29
63 -13 34 -28 73 -33 87 -6 14 -11 27 -12 30 -1 3 -5 12 -8 20 -4 8 -20 51
-36 95 -16 44 -38 103 -49 130 -11 28 -33 87 -50 132 -17 46 -41 102 -52 125
-11 23 -20 45 -20 49 0 3 -10 28 -22 55 -12 27 -23 51 -23 54 -1 3 -9 23 -19
45 -33 73 -37 88 -30 107 3 11 15 23 27 28 37 15 142 11 183 -6z"/>
<path d="M3364 5135 c-38 -7 -81 -16 -95 -21 -13 -4 -27 -7 -31 -6 -5 1 -8 -2
-8 -7 0 -5 -15 -15 -32 -22 -49 -20 -139 -82 -170 -117 -14 -17 -32 -34 -40
-39 -19 -12 -108 -129 -108 -142 0 -6 -4 -11 -10 -11 -5 0 -10 -4 -10 -10 0
-5 -13 -38 -29 -74 -34 -73 -57 -148 -67 -221 -9 -66 -13 -197 -5 -210 3 -5 6
-19 7 -30 4 -37 15 -79 24 -90 4 -5 9 -13 9 -18 3 -31 131 -187 154 -187 4 0
19 -7 32 -16 l25 -16 -51 -53 c-69 -71 -115 -136 -157 -225 -20 -41 -37 -77
-37 -80 -1 -5 -35 -116 -42 -140 -14 -40 -11 -249 4 -315 8 -38 15 -76 16 -82
0 -7 4 -13 9 -13 4 0 7 -3 6 -7 -8 -24 68 -174 126 -252 41 -55 136 -150 201
-199 14 -11 125 -75 155 -89 42 -20 136 -50 185 -58 11 -2 38 -7 60 -11 56
-10 263 -12 305 -2 19 4 55 10 80 14 25 3 53 10 63 15 9 6 17 7 17 4 0 -2 26
5 58 16 230 85 412 215 519 373 27 39 51 74 56 77 4 3 9 14 11 25 2 11 14 36
25 56 32 53 68 184 76 278 23 252 -30 437 -173 608 -83 99 -253 191 -361 196
-17 0 -31 4 -31 7 0 4 -11 6 -25 5 -14 0 -25 -3 -25 -6 0 -3 -17 -5 -38 -6
-51 -1 -70 -7 -118 -32 -76 -39 -123 -101 -148 -197 -53 -202 85 -401 272
-391 134 8 257 129 254 253 0 41 2 51 13 46 25 -9 93 -129 110 -193 10 -38 14
-179 5 -187 -1 -2 -3 -6 -4 -10 -4 -25 -43 -114 -64 -147 -13 -21 -54 -69 -90
-106 -314 -317 -863 -325 -1045 -15 -63 106 -93 276 -74 410 8 50 17 83 43
142 8 17 14 34 14 38 0 4 16 31 36 60 38 59 86 109 182 195 34 30 62 57 62 61
0 3 -41 23 -90 44 -50 20 -97 43 -105 51 -7 8 -18 14 -23 14 -9 0 -35 28 -82
86 -53 65 -94 203 -93 314 0 53 14 154 27 188 28 76 41 102 48 102 4 0 8 7 8
16 0 16 6 24 68 86 46 47 128 90 180 93 21 1 44 5 50 9 6 3 13 2 17 -3 3 -5
13 -9 23 -9 29 2 105 -37 137 -70 42 -43 59 -109 41 -154 -17 -39 -43 -71 -72
-86 -20 -11 -21 -9 -15 21 9 39 -14 81 -57 107 -33 20 -133 21 -140 2 -2 -7
-9 -12 -15 -12 -24 0 -70 -72 -75 -115 -12 -110 104 -215 238 -215 175 0 302
119 315 294 11 143 -39 248 -161 346 -79 64 -215 89 -350 65z"/>
<path d="M2530 2670 c0 -12 -87 -193 -113 -235 -27 -45 -123 -191 -137 -209
-88 -112 -226 -256 -281 -294 -13 -9 -26 -18 -29 -22 -22 -26 -144 -105 -215
-140 -16 -8 -32 -17 -35 -20 -3 -3 -34 -20 -70 -39 -36 -19 -83 -45 -105 -58
-22 -13 -53 -30 -70 -38 -16 -9 -48 -27 -70 -40 -22 -14 -56 -34 -75 -45 -61
-35 -81 -49 -138 -96 -111 -90 -144 -274 -69 -376 51 -69 202 -108 324 -83 45
10 47 10 58 16 6 4 27 12 48 19 55 17 145 70 230 134 67 50 247 220 247 232 0
3 23 31 50 63 28 32 50 62 50 68 0 5 9 18 20 28 11 10 20 24 20 31 0 7 4 14 9
16 14 5 126 223 166 323 46 112 106 285 99 285 -3 0 0 8 5 18 6 11 12 30 15
43 2 13 16 72 30 132 31 131 35 149 42 212 3 28 7 55 9 62 2 7 0 15 -5 18 -6
4 -10 1 -10 -5z"/>
<path d="M2725 2308 c-5 -16 -13 -58 -22 -123 -12 -91 -5 -388 12 -476 3 -13
7 -41 10 -64 22 -153 100 -348 167 -416 33 -33 42 -37 84 -35 38 2 52 8 75 34
25 28 35 56 30 85 -1 5 -3 21 -5 35 -4 39 -95 201 -118 210 -4 2 -8 7 -8 12 0
5 -18 39 -39 77 -34 59 -113 229 -109 236 1 1 -6 25 -15 52 -16 50 -23 78 -33
148 -3 21 -7 44 -8 50 -1 7 -5 17 -9 24 -4 6 -3 14 3 18 5 3 7 14 3 23 -5 9
-8 41 -8 70 0 53 -2 62 -10 40z"/>
</g>
</svg>
