<svg aria-hidden="true" style="position: absolute; width: 0; height: 0; overflow: hidden;" version="1.1" xmlns="http://www.w3.org/2000/svg" xmlns:xlink="http://www.w3.org/1999/xlink">
<defs>
<symbol id="icon-logo" viewBox="0 0 222 48">
<title>logo</title>
<path d="M26.25 46.769h-10.043v-20.913h-5.967v20.913h-10.043v-45.371h10.043v16.837h5.967v-16.837h10.043v45.371zM57.004 24.025c0 17.428-2.245 23.454-13.292 23.454-9.748 0-13.292-4.313-13.292-23.454 0-15.774 2.836-23.335 13.292-23.335 10.161 0 13.292 6.321 13.292 23.335zM46.724 24.143c0-12.524 0.118-15.714-3.013-15.714-3.013 0-3.013 3.249-3.013 15.714 0 13.233 0.236 15.065 3.013 15.065 2.836 0 3.013-1.89 3.013-15.065zM85.040 9.728h-8.034v37.041h-10.043v-37.041h-8.034v-8.33h26.112v8.33zM125.575 10.437h-11.993v9.866h10.634v8.33h-10.634v18.137h-10.043v-45.371h22.036v9.039zM153.257 46.769h-23.808v-45.371h22.626v8.566h-12.583v9.452h11.225v8.33h-11.225v10.338h13.765v8.684zM180.998 46.769h-23.808v-45.371h22.626v8.566h-12.583v9.452h11.225v8.33h-11.225v10.338h13.765v8.684zM208.798 9.728h-8.034v37.041h-10.043v-37.041h-8.034v-8.33h26.112v8.33zM220.647 46.769h-9.098v-9.925h9.098v9.925z"></path>
</symbol>
<symbol id="icon-sort" viewBox="0 0 48 48">
<title>sort</title>
<path d="M6 25.969v-3.938h24v3.938h-24zM6 12h36v4.031h-36v-4.031zM6 36v-4.031h12v4.031h-12z"></path>
</symbol>
</defs>
</svg>
