<svg aria-hidden="true" style="position: absolute; width: 0; height: 0; overflow: hidden;" version="1.1" xmlns="http://www.w3.org/2000/svg" xmlns:xlink="http://www.w3.org/1999/xlink">
<defs>
<symbol id="icon-mixcloud" viewBox="0 0 32 32">
<title>mixcloud</title>
<path d="M29.267 25.416c-0.205 0-0.413-0.060-0.593-0.18-0.492-0.333-0.62-1-0.3-1.48 0.984-1.459 1.5-3.175 1.5-4.959s-0.516-3.5-1.5-4.961c-0.332-0.491-0.193-1.155 0.288-1.475 0.5-0.332 1.16-0.195 1.477 0.285 1.223 1.82 1.861 3.96 1.861 6.16 0 2.197-0.639 4.339-1.861 6.159-0.18 0.319-0.52 0.479-0.86 0.479l-0.012-0.028zM26.213 23.691c-0.204 0-0.411-0.060-0.593-0.185-0.492-0.319-0.617-0.979-0.287-1.459 0.652-0.961 0.996-2.060 0.996-3.24 0-1.14-0.344-2.26-0.996-3.241-0.331-0.48-0.205-1.139 0.287-1.46s1.143-0.2 1.475 0.3c0.892 1.32 1.361 2.86 1.361 4.419 0 1.601-0.469 3.12-1.361 4.42-0.195 0.32-0.541 0.48-0.881 0.48v-0.033zM21.24 14.153c-0.419-4.263-4.021-7.599-8.4-7.599-3.628 0-6.84 2.331-7.993 5.711-2.729 0.403-4.847 2.76-4.847 5.601 0 3.125 2.549 5.672 5.68 5.672h14.544c2.619 0 4.755-2.125 4.755-4.743 0-2.275-1.6-4.172-3.74-4.64v-0.003zM20.224 21.415h-14.54c-1.955 0-3.559-1.588-3.559-3.544 0-1.953 1.591-3.544 3.559-3.544 0.947 0 1.841 0.38 2.515 1.041 0.4 0.419 1.081 0.419 1.5 0 0.4-0.401 0.4-1.081 0-1.5-0.74-0.723-1.641-1.241-2.62-1.481 1-2.22 3.24-3.699 5.74-3.699 3.479 0 6.32 2.839 6.32 6.317 0 0.683-0.1 1.341-0.32 1.981-0.18 0.56 0.12 1.159 0.68 1.36 0.099 0.040 0.22 0.060 0.32 0.060 0.44 0 0.86-0.281 1-0.72 0.14-0.42 0.24-0.84 0.3-1.28 0.979 0.38 1.68 1.34 1.68 2.44 0 1.461-1.18 2.639-2.62 2.639l0.045-0.071z"></path>
</symbol>
<symbol id="icon-facebook" viewBox="0 0 24 24">
<title>facebook</title>
<path d="M18 7c0.6 0 1-0.4 1-1v-4c0-0.6-0.4-1-1-1h-3c-3.3 0-6 2.7-6 6v2h-2c-0.6 0-1 0.4-1 1v4c0 0.6 0.4 1 1 1h2v7c0 0.6 0.4 1 1 1h4c0.6 0 1-0.4 1-1v-7h2c0.5 0 0.9-0.3 1-0.8l1-4c0.1-0.3 0-0.6-0.2-0.9s-0.5-0.3-0.8-0.3h-3v-2h3zM14 11h2.7l-0.5 2h-2.2c-0.6 0-1 0.4-1 1v7h-2v-7c0-0.6-0.4-1-1-1h-2v-2h2c0.6 0 1-0.4 1-1v-3c0-2.2 1.8-4 4-4h2v2h-2c-1.1 0-2 0.9-2 2v3c0 0.6 0.4 1 1 1z"></path>
</symbol>
<symbol id="icon-twitter" viewBox="0 0 24 24">
<title>twitter</title>
<path d="M23.6 2.2c-0.3-0.2-0.8-0.2-1.1 0-0.7 0.5-1.5 0.9-2.3 1.2-2-1.8-5.1-1.9-7.2-0.1-1.3 1.1-2 2.6-2 4.2-2.9-0.2-5.5-1.7-7.2-4.1-0.2-0.3-0.5-0.4-0.9-0.4s-0.7 0.3-0.8 0.6c-0.1 0.1-1.1 2.5-1 5.4 0.1 2.5 1.1 5.7 4.8 8-1.5 0.7-3.2 1-4.9 1-0.4 0-0.9 0.3-1 0.7s0.1 0.9 0.5 1.1c2.5 1.4 5.2 2.1 7.7 2.1s4.9-0.6 7.1-1.9c4.3-2.4 6.7-7 6.7-12.5 0-0.2 0-0.3 0-0.5 1-1.1 1.7-2.4 2-3.8 0.1-0.4-0.1-0.8-0.4-1zM20.2 6c-0.2 0.2-0.3 0.6-0.3 0.9 0.1 0.2 0.1 0.4 0.1 0.6 0 4.8-2.1 8.7-5.7 10.8-2.8 1.6-6.1 2-9.4 1.2 1.3-0.4 2.5-0.9 3.6-1.7 0.4-0.2 0.5-0.5 0.5-0.9s-0.3-0.7-0.6-0.8c-5.8-2.6-5.6-7.5-5-10 2.2 2.2 5.3 3.5 8.6 3.4 0.5 0 1-0.5 1-1v-1c0-1 0.4-2 1.2-2.7 1.4-1.3 3.7-1.1 4.9 0.3 0.3 0.3 0.7 0.4 1 0.3 0.2-0.1 0.5-0.1 0.7-0.2-0.2 0.3-0.4 0.5-0.6 0.8z"></path>
</symbol>
<symbol id="icon-instagram" viewBox="0 0 24 24">
<title>instagram</title>
<path d="M17 1h-10c-3.3 0-6 2.7-6 6v10c0 3.3 2.7 6 6 6h10c3.3 0 6-2.7 6-6v-10c0-3.3-2.7-6-6-6zM21 17c0 2.2-1.8 4-4 4h-10c-2.2 0-4-1.8-4-4v-10c0-2.2 1.8-4 4-4h10c2.2 0 4 1.8 4 4v10z"></path>
<path d="M12.8 7c-0.5-0.1-1-0.1-1.5 0-2.7 0.4-4.6 3-4.2 5.7 0.2 1.3 0.9 2.5 2 3.3 0.9 0.6 1.9 1 3 1 0.2 0 0.5 0 0.7-0.1 1.3-0.2 2.5-0.9 3.3-2s1.1-2.4 0.9-3.7c-0.3-2.2-2-3.9-4.2-4.2zM14.5 13.7c-0.5 0.6-1.2 1.1-2 1.2-1.6 0.2-3.2-0.9-3.4-2.5-0.3-1.6 0.9-3.2 2.5-3.4 0.1 0 0.3 0 0.4 0s0.3 0 0.4 0c1.3 0.2 2.3 1.2 2.5 2.5 0.2 0.8 0 1.6-0.4 2.2z"></path>
<path d="M16.8 5.8c-0.2 0.2-0.3 0.4-0.3 0.7s0.1 0.5 0.3 0.7c0.2 0.2 0.5 0.3 0.7 0.3 0.3 0 0.5-0.1 0.7-0.3s0.3-0.5 0.3-0.7c0-0.3-0.1-0.5-0.3-0.7-0.4-0.4-1-0.4-1.4 0z"></path>
</symbol>
<symbol id="icon-logo" viewBox="0 0 24 24">
<title>logo</title>
<path d="M15.585 2.023c-0.029 0.010-0.085 0.025-0.125 0.031-0.042 0.006-0.081 0.017-0.087 0.021-0.008 0.004-0.052 0.012-0.098 0.019-0.115 0.015-0.192 0.046-0.194 0.077-0.008 0.1 0.004 0.194 0.033 0.288 0.012 0.040 0.023 0.087 0.042 0.196 0.006 0.033 0.021 0.075 0.029 0.094 0.010 0.019 0.019 0.040 0.021 0.050 0.002 0.044 0.027 0.179 0.044 0.244 0.033 0.129 0.065 0.26 0.073 0.302 0.004 0.023 0.021 0.113 0.040 0.198 0.017 0.085 0.038 0.183 0.044 0.219 0.004 0.033 0.015 0.083 0.021 0.108 0.065 0.285 0.079 0.377 0.079 0.51 0 0.1-0.010 0.148-0.035 0.173-0.019 0.019-0.033 0.044-0.033 0.054 0 0.031-0.169 0.098-0.229 0.094-0.029-0.002-0.073-0.015-0.096-0.029-0.046-0.025-0.142-0.2-0.167-0.306-0.008-0.035-0.021-0.073-0.029-0.083-0.008-0.012-0.021-0.050-0.027-0.083-0.023-0.133-0.069-0.304-0.112-0.427-0.006-0.017-0.015-0.046-0.017-0.063-0.002-0.027-0.121-0.521-0.177-0.75-0.010-0.040-0.029-0.121-0.042-0.177-0.015-0.058-0.033-0.127-0.042-0.156-0.010-0.029-0.023-0.085-0.027-0.125-0.017-0.138-0.060-0.196-0.14-0.192-0.035 0-0.21 0.029-0.271 0.044-0.040 0.008-0.081 0.019-0.094 0.021-0.092 0.017-0.181 0.056-0.196 0.083-0.017 0.038-0.017 0.048 0.008 0.148 0.008 0.040 0.019 0.092 0.023 0.115 0.002 0.023 0.006 0.042 0.008 0.042s0.006 0.015 0.010 0.031c0.004 0.017 0.044 0.162 0.085 0.323 0.040 0.16 0.077 0.306 0.081 0.323 0.015 0.073 0.075 0.304 0.087 0.333 0.006 0.017 0.015 0.050 0.017 0.073s0.021 0.098 0.040 0.167c0.021 0.069 0.040 0.152 0.046 0.185 0.004 0.033 0.017 0.071 0.027 0.083 0.008 0.012 0.015 0.044 0.012 0.069-0.002 0.027 0.002 0.048 0.010 0.048s0.015 0.012 0.017 0.025c0.027 0.269 0.196 0.633 0.363 0.775 0.125 0.104 0.123 0.102 0.204 0.133 0.127 0.048 0.152 0.052 0.321 0.056 0.219 0.006 0.367-0.029 0.498-0.119 0.031-0.023 0.056-0.037 0.058-0.033 0.004 0.015 0.017 0.094 0.027 0.173 0.012 0.087 0.019 0.115 0.042 0.198 0.006 0.029 0.017 0.079 0.021 0.115 0.012 0.085 0.029 0.173 0.054 0.271 0.010 0.046 0.023 0.106 0.027 0.135s0.033 0.194 0.067 0.369c0.046 0.242 0.067 0.312 0.085 0.296 0.012-0.010 0.067-0.025 0.117-0.029 0.050-0.006 0.169-0.033 0.265-0.063 0.098-0.029 0.194-0.052 0.215-0.052 0.035 0 0.037-0.012 0.025-0.142-0.006-0.077-0.012-0.158-0.012-0.181s-0.031-0.173-0.071-0.333c-0.038-0.16-0.073-0.329-0.081-0.377-0.006-0.046-0.021-0.115-0.031-0.15-0.010-0.037-0.012-0.067-0.006-0.067s0-0.012-0.012-0.029c-0.015-0.017-0.027-0.060-0.031-0.1-0.008-0.069-0.023-0.146-0.044-0.246-0.006-0.029-0.017-0.075-0.023-0.104-0.004-0.029-0.015-0.075-0.023-0.104-0.006-0.029-0.015-0.071-0.017-0.094s-0.025-0.14-0.052-0.26c-0.025-0.121-0.048-0.233-0.052-0.25s-0.015-0.069-0.025-0.115c-0.010-0.046-0.019-0.106-0.019-0.135 0.002-0.029-0.004-0.056-0.012-0.063s-0.017-0.044-0.019-0.083c-0.004-0.040-0.010-0.083-0.017-0.094-0.006-0.012-0.012-0.031-0.015-0.042-0.002-0.012-0.010-0.054-0.019-0.094-0.006-0.040-0.017-0.104-0.023-0.144-0.004-0.038-0.015-0.077-0.021-0.087-0.004-0.010-0.015-0.044-0.019-0.075-0.004-0.033-0.012-0.081-0.019-0.11s-0.027-0.131-0.044-0.229c-0.019-0.098-0.042-0.215-0.052-0.26s-0.027-0.117-0.035-0.156c-0.008-0.040-0.015-0.077-0.017-0.083-0.019-0.087-0.031-0.15-0.042-0.219-0.008-0.046-0.017-0.094-0.021-0.104-0.004-0.012-0.012-0.042-0.021-0.069-0.017-0.050-0.069-0.058-0.154-0.023z"></path>
<path d="M12.513 2.894c-0.027 0.044-0.175 0.419-0.165 0.419 0.006 0 0.002 0.012-0.008 0.025-0.012 0.015-0.033 0.079-0.048 0.142s-0.031 0.123-0.040 0.135c-0.006 0.010-0.012 0.029-0.015 0.042-0.002 0.010-0.033 0.123-0.067 0.25-0.058 0.208-0.094 0.392-0.119 0.594-0.006 0.040-0.017 0.119-0.023 0.177-0.035 0.262-0.006 1.223 0.042 1.437 0.004 0.010 0.012 0.067 0.021 0.125 0.008 0.056 0.019 0.127 0.023 0.156s0.017 0.083 0.029 0.121c0.010 0.038 0.021 0.069 0.019 0.073-0.002 0.008 0.048 0.196 0.090 0.329 0.023 0.077 0.058 0.154 0.079 0.173 0.042 0.038 0.112 0.035 0.152-0.004 0.015-0.015 0.033-0.025 0.042-0.025 0.010 0 0.069-0.035 0.127-0.081 0.208-0.154 0.833-0.494 1.127-0.615 0.094-0.040 0.221-0.094 0.285-0.123s0.125-0.048 0.131-0.042c0.006 0.008 0.012 0.002 0.012-0.010 0-0.015 0.006-0.023 0.017-0.021 0.012 0.002 0.079-0.021 0.181-0.065 0.077-0.033 0.312-0.123 0.392-0.15 0.044-0.017 0.090-0.040 0.1-0.052 0.027-0.033-0.019-0.3-0.052-0.302-0.075-0.002-0.583 0.006-0.679 0.012-0.156 0.010-0.39 0.031-0.479 0.042-0.123 0.015-0.296 0.031-0.417 0.042-0.063 0.006-0.146 0.019-0.183 0.029-0.067 0.021-0.071 0.019-0.1-0.052-0.025-0.060-0.052-0.181-0.125-0.556-0.035-0.185-0.004-1.19 0.044-1.41 0.008-0.035 0.017-0.085 0.021-0.11 0.002-0.025 0.017-0.087 0.029-0.14 0.046-0.192 0.042-0.202-0.169-0.4-0.181-0.171-0.248-0.21-0.275-0.165z"></path>
<path d="M18.333 2.892c-0.077 0.021-0.227 0.104-0.323 0.179-0.092 0.071-0.406 0.394-0.406 0.419 0 0.008-0.131 0.225-0.146 0.24-0.019 0.019-0.121 0.233-0.167 0.354-0.138 0.35-0.162 0.504-0.179 1.1-0.008 0.387 0.002 0.483 0.054 0.483 0.010 0 0.063-0.087 0.115-0.194 0.156-0.317 0.513-0.765 0.867-1.088 0.050-0.048 0.185-0.16 0.3-0.254 0.275-0.221 0.394-0.346 0.467-0.49 0.054-0.102 0.060-0.138 0.058-0.271-0.008-0.302-0.173-0.479-0.45-0.49-0.075-0.002-0.16 0.002-0.19 0.010z"></path>
<path d="M11.3 2.923c-0.098 0.052-0.21 0.192-0.288 0.358-0.021 0.046-0.056 0.106-0.075 0.135-0.046 0.065-0.156 0.35-0.19 0.49-0.015 0.056-0.031 0.115-0.042 0.125-0.008 0.012-0.021 0.050-0.027 0.083-0.004 0.035-0.010 0.063-0.012 0.063s-0.006 0.033-0.008 0.073c-0.002 0.040-0.010 0.083-0.017 0.094-0.006 0.012-0.019 0.073-0.027 0.135-0.006 0.063-0.017 0.148-0.023 0.188-0.004 0.040-0.012 0.206-0.019 0.367-0.006 0.162-0.017 0.317-0.023 0.344-0.004 0.027-0.010 0.156-0.010 0.285l-0.002 0.237-0.054-0.050c-0.031-0.025-0.083-0.073-0.119-0.104-0.069-0.060-0.117-0.102-0.281-0.246-0.060-0.052-0.14-0.125-0.177-0.162-0.037-0.035-0.073-0.067-0.079-0.067s-0.056-0.044-0.115-0.1c-0.056-0.054-0.19-0.177-0.296-0.275-0.104-0.098-0.381-0.363-0.612-0.592-0.229-0.227-0.44-0.427-0.465-0.444-0.060-0.042-0.148-0.023-0.292 0.058-0.148 0.081-0.19 0.117-0.225 0.188-0.027 0.048-0.019 0.071 0.087 0.292 0.063 0.131 0.121 0.242 0.127 0.248 0.008 0.006 0.025 0.033 0.040 0.063s0.11 0.229 0.217 0.448c0.104 0.217 0.192 0.404 0.194 0.417 0.004 0.021 0.044 0.135 0.077 0.208 0.060 0.14 0.121 0.31 0.133 0.369 0.008 0.038 0.023 0.077 0.031 0.090 0.010 0.010 0.019 0.029 0.021 0.042 0.010 0.046 0.123 0.425 0.14 0.469 0.017 0.040 0.015 0.038 0.035 0.125 0.010 0.040 0.025 0.081 0.033 0.094 0.019 0.027 0.15 0.506 0.156 0.573 0.002 0.029 0.010 0.067 0.017 0.083 0.008 0.017 0.019 0.058 0.025 0.094 0.017 0.081 0.019 0.090 0.050 0.188 0.033 0.108 0.037 0.123 0.042 0.142 0 0.008 0.017 0.044 0.035 0.079 0.029 0.060 0.037 0.063 0.108 0.050 0.042-0.008 0.085-0.021 0.098-0.027 0.010-0.008 0.040-0.017 0.063-0.019 0.023-0.004 0.044-0.017 0.048-0.027s0.021-0.012 0.037-0.006c0.017 0.006 0.046-0.002 0.065-0.017 0.019-0.017 0.037-0.027 0.042-0.023 0.017 0.015 0.231-0.121 0.246-0.156 0.027-0.063 0.023-0.092-0.038-0.273-0.031-0.096-0.052-0.183-0.046-0.192 0.006-0.010 0.002-0.023-0.008-0.029-0.008-0.006-0.025-0.042-0.033-0.079s-0.019-0.079-0.023-0.090c-0.004-0.012-0.010-0.046-0.017-0.075s-0.025-0.094-0.042-0.142c-0.019-0.046-0.027-0.085-0.023-0.085 0.006 0 0.002-0.021-0.008-0.048s-0.025-0.081-0.031-0.121c-0.006-0.040-0.035-0.144-0.065-0.233-0.029-0.092-0.056-0.179-0.060-0.198-0.006-0.035-0.021-0.075-0.056-0.171-0.015-0.035 0.017-0.012 0.098 0.073 0.558 0.583 0.815 0.833 0.998 0.973 0.035 0.025 0.067 0.052 0.073 0.058 0.031 0.033 0.229 0.188 0.24 0.188 0.008 0 0.025 0.012 0.042 0.025 0.042 0.040 0.131 0.106 0.194 0.142 0.031 0.019 0.098 0.058 0.148 0.092s0.102 0.060 0.115 0.063c0.012 0.002 0.063 0.029 0.11 0.060 0.050 0.031 0.104 0.056 0.123 0.056 0.096 0 0.438-0.275 0.454-0.367 0.006-0.027-0.012-0.069-0.046-0.108-0.081-0.094-0.323-0.581-0.379-0.765-0.015-0.046-0.040-0.102-0.054-0.125-0.017-0.023-0.029-0.056-0.029-0.077 0-0.019-0.012-0.067-0.029-0.104-0.042-0.092-0.115-0.335-0.125-0.406-0.004-0.033-0.012-0.073-0.019-0.090-0.033-0.094-0.040-0.121-0.048-0.177-0.006-0.035-0.019-0.106-0.031-0.16-0.040-0.175-0.060-0.479-0.060-0.912-0.002-0.327 0.004-0.412 0.040-0.583 0.010-0.052 0.023-0.135 0.029-0.188s0.021-0.117 0.031-0.146c0.010-0.029 0.021-0.058 0.021-0.069 0.004-0.027 0.063-0.206 0.117-0.356 0.058-0.162 0.050-0.213-0.044-0.275-0.104-0.069-0.162-0.090-0.206-0.065z"></path>
<path d="M6.26 3.54c-0.179 0.079-0.181 0.325-0.004 0.429 0.065 0.037 0.179 0.073 0.258 0.079 0.025 0.002 0.050 0.010 0.058 0.019s0.027 0.008 0.044 0.002c0.017-0.006 0.056 0 0.087 0.010 0.031 0.012 0.085 0.027 0.119 0.033 0.063 0.008 0.075 0.012 0.188 0.056 0.035 0.015 0.067 0.027 0.073 0.029 0.044 0.015 0.11 0.050 0.215 0.11 0.067 0.040 0.125 0.067 0.129 0.063 0.012-0.010-0.081-0.188-0.169-0.319-0.2-0.306-0.51-0.506-0.808-0.523-0.081-0.004-0.167 0-0.19 0.010z"></path>
<path d="M6.325 4.577c-0.002 0.002-0.050 0.010-0.108 0.017-0.383 0.044-0.813 0.24-1.027 0.469-0.1 0.106-0.19 0.223-0.19 0.248 0 0.012-0.008 0.023-0.021 0.023-0.010 0-0.021 0.010-0.021 0.023s-0.029 0.083-0.065 0.154c-0.035 0.071-0.067 0.148-0.071 0.169s-0.008 0.042-0.010 0.044c-0.008 0.010-0.044 0.194-0.046 0.229 0 0.010-0.008 0.035-0.017 0.058s-0.023 0.112-0.031 0.198c-0.031 0.298-0.017 0.554 0.052 0.865 0.044 0.194 0.056 0.25 0.079 0.306 0.015 0.033 0.019 0.058 0.012 0.058-0.008 0-0.004 0.012 0.006 0.025 0.012 0.015 0.037 0.079 0.058 0.142 0.063 0.196 0.285 0.625 0.412 0.798 0.219 0.296 0.558 0.604 0.813 0.738 0.035 0.019 0.152 0.063 0.256 0.098 0.317 0.108 0.66 0.083 1.050-0.071 0.275-0.108 0.565-0.333 0.725-0.563 0.054-0.075 0.102-0.14 0.11-0.146 0.029-0.023 0.144-0.298 0.185-0.45 0.063-0.231 0.075-0.419 0.052-0.81-0.008-0.14-0.019-0.208-0.038-0.271-0.006-0.023-0.017-0.075-0.023-0.115s-0.021-0.106-0.033-0.146c-0.012-0.040-0.027-0.092-0.031-0.117-0.006-0.023-0.038-0.11-0.071-0.192-0.035-0.083-0.058-0.15-0.054-0.15 0.019 0-0.269-0.533-0.365-0.679-0.242-0.354-0.521-0.621-0.823-0.783-0.096-0.050-0.367-0.138-0.448-0.144-0.040-0.004-0.081-0.010-0.092-0.015-0.017-0.008-0.221-0.019-0.229-0.010zM6.521 5.506c0.017 0.004 0.060 0.015 0.094 0.025 0.035 0.008 0.077 0.027 0.094 0.044 0.017 0.015 0.046 0.029 0.063 0.033 0.046 0.010 0.19 0.106 0.258 0.175 0.11 0.11 0.275 0.35 0.363 0.531 0.085 0.175 0.198 0.49 0.221 0.615 0.006 0.033 0.017 0.087 0.023 0.123 0.048 0.227 0.040 0.604-0.015 0.704-0.012 0.025-0.023 0.050-0.023 0.056 0.006 0.073-0.254 0.475-0.31 0.479-0.010 0-0.035 0.019-0.058 0.042-0.021 0.021-0.106 0.060-0.185 0.083-0.296 0.092-0.529 0.017-0.798-0.25-0.090-0.090-0.162-0.171-0.162-0.181s-0.019-0.040-0.042-0.065c-0.025-0.025-0.038-0.046-0.033-0.046 0.006 0-0.015-0.042-0.048-0.096-0.054-0.083-0.19-0.398-0.223-0.519-0.108-0.383-0.119-0.444-0.121-0.719-0.002-0.258 0.002-0.296 0.058-0.469 0.035-0.104 0.060-0.194 0.060-0.2-0.002-0.006 0.040-0.065 0.090-0.131 0.15-0.19 0.296-0.258 0.529-0.25 0.075 0.002 0.15 0.008 0.167 0.015z"></path>
<path d="M19.592 6.146c-0.138 0.046-0.25 0.14-0.315 0.269-0.046 0.092-0.048 0.321-0.004 0.4 0.046 0.081 0.148 0.192 0.206 0.223 0.029 0.015 0.075 0.044 0.1 0.065 0.046 0.033 0.048 0.042 0.025 0.129-0.025 0.090-0.033 0.129-0.052 0.217-0.006 0.025-0.029 0.1-0.054 0.167-0.056 0.165-0.063 0.194-0.038 0.21 0.033 0.021 0.256-0.146 0.429-0.323 0.15-0.154 0.281-0.404 0.312-0.596 0.021-0.117 0.008-0.417-0.015-0.417-0.002 0-0.006-0.015-0.010-0.033-0.008-0.046-0.115-0.21-0.154-0.244-0.127-0.1-0.258-0.121-0.431-0.067z"></path>
<path d="M18.71 6.273c-0.050 0.008-0.102 0.027-0.117 0.040-0.012 0.010-0.090 0.025-0.169 0.029-0.162 0.010-0.217 0.021-0.277 0.054-0.023 0.012-0.065 0.019-0.090 0.015-0.027-0.006-0.1 0.008-0.162 0.031s-0.142 0.042-0.177 0.044c-0.033 0.002-0.075 0.012-0.087 0.021-0.015 0.010-0.027 0.012-0.027 0.004 0-0.006-0.017-0.002-0.040 0.008-0.038 0.021-0.121 0.040-0.231 0.054-0.075 0.010-0.14 0.027-0.248 0.060-0.052 0.017-0.142 0.035-0.2 0.044-0.056 0.008-0.129 0.027-0.16 0.044-0.033 0.017-0.058 0.025-0.058 0.021s-0.071 0.012-0.156 0.040c-0.085 0.025-0.156 0.044-0.156 0.040s-0.025 0.002-0.056 0.015c-0.031 0.012-0.094 0.025-0.135 0.029-0.044 0.004-0.1 0.021-0.125 0.035-0.027 0.012-0.058 0.027-0.073 0.029-0.012 0.002-0.056 0.015-0.094 0.027s-0.087 0.019-0.11 0.015c-0.023-0.004-0.052 0-0.063 0.010-0.012 0.008-0.046 0.021-0.073 0.025-0.106 0.021-0.283 0.102-0.344 0.16-0.104 0.1-0.229 0.144-0.39 0.138-0.079-0.002-0.142-0.002-0.142 0.002 0 0.033 0.075 0.138 0.138 0.192 0.056 0.050 0.087 0.065 0.121 0.054 0.023-0.006 0.073-0.017 0.11-0.021s0.146-0.046 0.242-0.092c0.096-0.048 0.19-0.085 0.206-0.085 0.019 0 0.067-0.015 0.108-0.031s0.075-0.027 0.075-0.021c0 0.008 0.154-0.046 0.26-0.092 0.023-0.010 0.083-0.038 0.135-0.060s0.127-0.048 0.167-0.054c0.040-0.006 0.115-0.035 0.167-0.063s0.104-0.044 0.119-0.040c0.012 0.004 0.067-0.010 0.119-0.033 0.085-0.040 0.15-0.058 0.215-0.063 0.012-0.002 0.037-0.015 0.052-0.029s0.038-0.029 0.048-0.031c0.092-0.010 0.188-0.038 0.304-0.087 0.077-0.031 0.171-0.063 0.208-0.069 0.040-0.004 0.131-0.033 0.206-0.065 0.073-0.031 0.156-0.058 0.181-0.065 0.027-0.004 0.058-0.015 0.069-0.021 0.023-0.015 0.073-0.025 0.188-0.042 0.029-0.004 0.052-0.008 0.052-0.010s0.017-0.006 0.038-0.010c0.021-0.004 0.060-0.023 0.087-0.040 0.027-0.019 0.067-0.035 0.087-0.040 0.021-0.002 0.050-0.012 0.065-0.021 0.015-0.010 0.063-0.019 0.106-0.023 0.044-0.002 0.104-0.019 0.131-0.038s0.069-0.037 0.090-0.044c0.040-0.010 0.040-0.010 0-0.010-0.023 0-0.083 0.008-0.133 0.019z"></path>
<path d="M14.756 6.373c-0.138 0.035-0.267 0.152-0.327 0.294-0.021 0.052-0.046 0.11-0.058 0.133-0.010 0.021-0.023 0.108-0.029 0.198-0.008 0.167 0.048 0.444 0.108 0.537 0.017 0.027 0.025 0.048 0.019 0.048-0.015 0 0.133 0.21 0.213 0.298 0.090 0.102 0.31 0.25 0.458 0.308 0.177 0.069 0.525 0.069 0.708 0 0.073-0.027 0.142-0.063 0.154-0.077 0.012-0.017 0.038-0.029 0.052-0.029 0.040 0 0.277-0.24 0.356-0.356 0.108-0.162 0.246-0.577 0.206-0.617-0.006-0.008-0.056 0.008-0.112 0.033-0.054 0.025-0.115 0.048-0.133 0.052-0.021 0.002-0.042 0.010-0.050 0.017-0.006 0.008-0.025 0.008-0.042 0.002s-0.029-0.002-0.029 0.008c0 0.010-0.012 0.021-0.025 0.021-0.015 0-0.094 0.029-0.177 0.065-0.081 0.038-0.158 0.067-0.171 0.067-0.010 0-0.025 0.019-0.033 0.040-0.023 0.075-0.171 0.21-0.29 0.265-0.183 0.083-0.398 0.075-0.615-0.025-0.096-0.044-0.237-0.194-0.292-0.308-0.044-0.098-0.090-0.31-0.063-0.292 0.010 0.006 0.019 0.023 0.019 0.038 0 0.025 0.087 0.079 0.135 0.087 0.012 0 0.037 0.008 0.058 0.019 0.052 0.023 0.279 0 0.317-0.031 0.017-0.015 0.031-0.019 0.031-0.010 0 0.006 0.025-0.017 0.056-0.056 0.031-0.038 0.065-0.073 0.073-0.079 0.052-0.040 0.065-0.348 0.017-0.406-0.012-0.015-0.017-0.029-0.010-0.035 0.012-0.012-0.135-0.167-0.188-0.196-0.050-0.027-0.246-0.033-0.338-0.010z"></path>
<path d="M22.329 6.504c-0.015 0.006-0.063 0.029-0.106 0.048-0.046 0.019-0.1 0.050-0.125 0.069-0.050 0.042-0.279 0.271-0.465 0.465-0.427 0.448-0.898 0.783-1.327 0.944-0.177 0.067-0.1 0.106 0.246 0.129 0.471 0.031 0.754 0.015 1.062-0.060 0.162-0.040 0.554-0.206 0.627-0.267 0.017-0.012 0.029-0.017 0.029-0.006s0.008 0.008 0.017-0.002c0.019-0.025 0.144-0.115 0.16-0.115 0.015 0 0.019-0.004 0.198-0.177 0.248-0.24 0.346-0.452 0.306-0.677-0.029-0.173-0.169-0.312-0.348-0.348-0.083-0.017-0.244-0.019-0.275-0.002z"></path>
<path d="M2.308 6.813c-0.065 0.021-0.125 0.031-0.131 0.025s-0.010 0-0.010 0.015c0 0.015-0.008 0.021-0.017 0.015-0.010-0.006-0.044 0.004-0.075 0.021-0.033 0.015-0.069 0.029-0.079 0.029s-0.085 0.044-0.167 0.098c-0.083 0.056-0.162 0.108-0.181 0.121-0.048 0.033-0.11 0.096-0.198 0.204-0.323 0.398-0.417 0.917-0.252 1.4 0.033 0.104 0.162 0.344 0.219 0.415 0.104 0.131 0.333 0.333 0.485 0.433 0.054 0.035 0.098 0.073 0.098 0.083 0 0.008 0.010 0.017 0.023 0.017 0.027 0 0.329 0.185 0.592 0.363 0.215 0.146 0.615 0.529 0.615 0.59 0 0.006 0.015 0.031 0.035 0.052 0.040 0.044 0.060 0.081 0.129 0.219 0.027 0.054 0.058 0.117 0.069 0.14 0.033 0.065 0.044 0.123 0.050 0.265 0.017 0.483-0.558 0.794-0.942 0.506-0.117-0.087-0.162-0.146-0.258-0.325-0.081-0.154-0.223-0.515-0.242-0.617s-0.187-0.404-0.248-0.446c-0.010-0.008-0.012-0.017-0.004-0.017 0.010 0-0.012-0.025-0.052-0.056-0.037-0.031-0.073-0.063-0.079-0.071-0.042-0.048-0.323-0.094-0.346-0.056-0.006 0.010-0.025 0.015-0.042 0.008-0.015-0.006-0.042 0.002-0.058 0.019s-0.040 0.031-0.050 0.031c-0.031 0-0.183 0.15-0.202 0.198-0.075 0.188-0.071 0.373 0.012 0.56 0.023 0.052 0.040 0.1 0.040 0.106s0.010 0.025 0.025 0.040c0.015 0.015 0.058 0.067 0.098 0.119 0.040 0.050 0.112 0.125 0.165 0.165 0.050 0.040 0.102 0.083 0.117 0.096 0.042 0.040 0.508 0.317 0.519 0.308 0.004-0.006 0.021 0.004 0.035 0.023 0.015 0.017 0.037 0.031 0.052 0.031 0.012 0 0.042 0.019 0.063 0.042s0.046 0.042 0.054 0.042c0.033 0 0.154 0.108 0.237 0.21 0.096 0.117 0.123 0.288 0.063 0.408-0.037 0.075-0.133 0.162-0.2 0.183-0.027 0.008-0.063 0.025-0.077 0.038s-0.096 0.023-0.177 0.023c-0.258 0-0.385-0.096-0.54-0.404-0.048-0.098-0.094-0.181-0.1-0.188s-0.029-0.048-0.052-0.092c-0.054-0.106-0.192-0.237-0.267-0.254s-0.16 0.019-0.213 0.087c-0.046 0.063-0.056 0.098-0.052 0.196 0.002 0.077 0.096 0.292 0.127 0.292 0.010 0 0.019 0.010 0.019 0.023 0 0.021 0.16 0.202 0.237 0.267 0.181 0.152 0.371 0.292 0.471 0.348 0.040 0.021 0.077 0.044 0.083 0.050s0.1 0.077 0.208 0.154c0.798 0.577 1.285 1.121 1.5 1.673 0.027 0.067 0.054 0.14 0.065 0.162 0.037 0.096 0.060 0.194 0.067 0.277 0.002 0.048 0.008 0.087 0.015 0.087 0.021 0 0.027 0.39 0.010 0.479-0.021 0.094-0.038 0.198-0.038 0.223 0 0.015-0.006 0.027-0.015 0.027-0.006 0-0.012 0.019-0.015 0.040s-0.025 0.090-0.050 0.152c-0.148 0.352-0.381 0.619-0.671 0.767-0.16 0.081-0.198 0.092-0.342 0.096-0.254 0.008-0.39-0.058-0.585-0.292-0.071-0.085-0.125-0.217-0.16-0.387-0.019-0.085-0.025-0.396-0.010-0.406 0.015-0.008 0.008-0.235-0.008-0.323-0.008-0.040-0.027-0.102-0.044-0.135-0.029-0.060-0.198-0.277-0.198-0.252 0 0.006-0.037-0.008-0.083-0.031-0.231-0.121-0.619-0.006-0.844 0.25-0.033 0.040-0.077 0.087-0.096 0.104-0.046 0.048-0.185 0.25-0.185 0.269 0 0.010-0.019 0.038-0.042 0.063s-0.042 0.050-0.040 0.056c0 0.006-0.023 0.075-0.054 0.154-0.029 0.077-0.067 0.202-0.081 0.275-0.033 0.162-0.029 0.617 0.008 0.748 0.015 0.052 0.029 0.108 0.031 0.125s0.012 0.050 0.021 0.073c0.008 0.023 0.044 0.112 0.075 0.198 0.123 0.321 0.398 0.696 0.729 0.99 0.081 0.075 0.258 0.198 0.281 0.198 0.008 0 0.044 0.021 0.079 0.048 0.077 0.058 0.423 0.213 0.554 0.248 0.052 0.012 0.098 0.025 0.104 0.027 0.144 0.040 0.192 0.052 0.26 0.063 0.202 0.029 0.706 0.008 0.788-0.033 0.019-0.012 0.035-0.017 0.035-0.010 0 0.012 0.144-0.033 0.323-0.1 0.177-0.067 0.406-0.181 0.406-0.202 0-0.006 0.017-0.019 0.038-0.025 0.069-0.023 0.198-0.11 0.288-0.196 0.027-0.027 0.054-0.048 0.063-0.048 0.021 0 0.3-0.29 0.4-0.415 0.042-0.052 0.083-0.1 0.094-0.102 0.008-0.004 0.015-0.021 0.015-0.038s0.008-0.029 0.017-0.029c0.008 0 0.037-0.040 0.063-0.087 0.025-0.050 0.083-0.158 0.129-0.242 0.044-0.081 0.077-0.15 0.073-0.15s0.019-0.063 0.050-0.142c0.031-0.077 0.060-0.146 0.063-0.154s0.006-0.027 0.010-0.042c0.035-0.117 0.079-0.346 0.083-0.44 0-0.019 0.006-0.035 0.012-0.035 0.010 0 0.025-0.146 0.029-0.288 0.002-0.035 0.006-0.067 0.012-0.067s0.012-0.044 0.012-0.1c0.008-0.256 0.035-0.854 0.060-1.306 0.010-0.206 0.029-0.39 0.063-0.635 0.019-0.133 0.096-0.363 0.181-0.529 0.106-0.213 0.138-0.254 0.515-0.692 0.1-0.119 0.175-0.292 0.171-0.404-0.004-0.133-0.029-0.142-0.108-0.033-0.040 0.052-0.079 0.094-0.087 0.096-0.008 0-0.037 0.019-0.063 0.044-0.065 0.060-0.277 0.158-0.429 0.198-0.2 0.050-0.21 0.040-0.096-0.112 0.131-0.173 0.26-0.3 0.41-0.402 0.171-0.117 0.3-0.171 0.579-0.237 0.131-0.033 0.248-0.067 0.256-0.075 0.060-0.050-0.152-0.271-0.331-0.348-0.173-0.075-0.517-0.077-0.79-0.004-0.102 0.027-0.202 0.050-0.219 0.052-0.019 0-0.042 0.008-0.052 0.015-0.025 0.015-0.175 0.042-0.271 0.048-0.1 0.006-0.26-0.031-0.365-0.083-0.106-0.054-0.252-0.194-0.292-0.279-0.015-0.029-0.037-0.077-0.052-0.106-0.029-0.056-0.073-0.229-0.087-0.35-0.023-0.16-0.010-0.383 0.027-0.588 0.006-0.029 0.015-0.081 0.021-0.115 0.006-0.035 0.025-0.115 0.042-0.177s0.035-0.138 0.042-0.167c0.004-0.029 0.019-0.081 0.029-0.115 0.010-0.035 0.025-0.092 0.031-0.129 0.006-0.035 0.025-0.121 0.042-0.19 0.019-0.069 0.037-0.152 0.042-0.185 0.004-0.031 0.015-0.087 0.021-0.121 0.008-0.035 0.017-0.092 0.019-0.127 0.004-0.035 0.010-0.073 0.017-0.083 0.021-0.042 0.027-0.502 0.008-0.654-0.023-0.181-0.031-0.221-0.075-0.385-0.040-0.146-0.133-0.377-0.19-0.469-0.010-0.017-0.031-0.056-0.046-0.090-0.012-0.031-0.031-0.056-0.040-0.056s-0.017-0.012-0.017-0.027c0-0.040-0.229-0.312-0.354-0.423-0.029-0.025-0.085-0.075-0.125-0.108-0.065-0.058-0.427-0.256-0.427-0.235 0 0.006-0.023-0.004-0.052-0.019s-0.071-0.031-0.094-0.033c-0.023-0.004-0.065-0.012-0.094-0.021s-0.169-0.017-0.312-0.021c-0.202-0.004-0.288 0.004-0.379 0.033zM4.4 12.729c0.035 0.069 0.035 0.073-0.008 0.119-0.087 0.092-0.21 0.048-0.21-0.077 0-0.085 0.042-0.129 0.119-0.121 0.050 0.004 0.073 0.023 0.1 0.079z"></path>
<path d="M14.215 7.471c-0.035 0.015-0.096 0.033-0.133 0.040-0.035 0.006-0.085 0.025-0.11 0.042-0.023 0.017-0.063 0.031-0.087 0.031s-0.069 0.019-0.098 0.042c-0.029 0.023-0.060 0.042-0.071 0.042-0.008 0-0.040 0.012-0.069 0.027-0.029 0.017-0.098 0.040-0.154 0.054-0.056 0.012-0.169 0.056-0.25 0.096-0.081 0.038-0.175 0.075-0.21 0.083-0.033 0.008-0.158 0.060-0.275 0.117s-0.217 0.102-0.225 0.102c-0.008 0-0.060 0.023-0.117 0.052-0.056 0.027-0.135 0.056-0.175 0.065-0.040 0.006-0.073 0.021-0.073 0.029 0 0.010-0.037 0.023-0.083 0.031s-0.083 0.023-0.083 0.033c0 0.010-0.015 0.019-0.031 0.019s-0.031 0.008-0.031 0.017c0 0.021-0.25 0.15-0.294 0.15-0.017 0-0.052 0.019-0.081 0.042s-0.065 0.042-0.081 0.042c-0.017 0-0.075 0.029-0.129 0.065-0.056 0.035-0.113 0.067-0.127 0.069s-0.060 0.025-0.1 0.050c-0.040 0.025-0.085 0.046-0.1 0.046s-0.058 0.023-0.096 0.052c-0.037 0.029-0.083 0.052-0.102 0.052s-0.040 0.010-0.046 0.021c-0.008 0.012-0.021 0.017-0.031 0.010-0.008-0.006-0.029 0.004-0.044 0.023s-0.069 0.054-0.121 0.081c-0.052 0.027-0.125 0.073-0.16 0.104-0.038 0.029-0.1 0.071-0.14 0.092l-0.075 0.037 0.006-0.056c0.004-0.031 0.015-0.069 0.023-0.083 0.010-0.017 0.029-0.077 0.044-0.133 0.029-0.123 0.067-0.235 0.098-0.294 0.012-0.023 0.023-0.065 0.025-0.094s0.023-0.1 0.048-0.156c0.025-0.058 0.044-0.115 0.042-0.125-0.008-0.027-0.131-0.019-0.19 0.015-0.025 0.015-0.060 0.029-0.077 0.031s-0.096 0.027-0.177 0.056c-0.079 0.029-0.162 0.054-0.183 0.054s-0.058 0.015-0.085 0.031c-0.027 0.019-0.071 0.038-0.096 0.042-0.083 0.017-0.188 0.054-0.188 0.071 0 0.006-0.042 0.027-0.094 0.042-0.050 0.015-0.102 0.040-0.117 0.056-0.012 0.017-0.044 0.029-0.067 0.029s-0.071 0.021-0.106 0.048c-0.035 0.025-0.085 0.046-0.11 0.044s-0.063 0.015-0.081 0.035c-0.021 0.023-0.048 0.040-0.065 0.040-0.027 0-0.281 0.138-0.45 0.244-0.046 0.029-0.117 0.065-0.162 0.079-0.044 0.017-0.092 0.040-0.106 0.050-0.158 0.129-0.288 0.21-0.337 0.21-0.015 0-0.042 0.015-0.056 0.033s-0.077 0.056-0.135 0.085c-0.058 0.027-0.129 0.073-0.156 0.102-0.025 0.027-0.056 0.050-0.067 0.050-0.012 0-0.054 0.025-0.096 0.056-0.042 0.033-0.081 0.056-0.087 0.054-0.008-0.002-0.042 0.021-0.073 0.052-0.102 0.094-0.231 0.188-0.356 0.258-0.067 0.038-0.125 0.073-0.131 0.081-0.025 0.033-0.252 0.206-0.269 0.206-0.012 0-0.075 0.050-0.142 0.11-0.067 0.063-0.165 0.138-0.219 0.169-0.056 0.031-0.1 0.065-0.1 0.073 0 0.021-0.244 0.21-0.269 0.21-0.010 0-0.044 0.029-0.073 0.065s-0.054 0.058-0.054 0.054c0-0.006-0.063 0.046-0.138 0.117s-0.154 0.138-0.173 0.15c-0.071 0.040-0.142 0.106-0.167 0.15-0.021 0.042-0.019 0.046 0.012 0.033 0.021-0.006 0.142-0.079 0.267-0.162 0.358-0.233 0.425-0.275 0.615-0.367 0.098-0.050 0.235-0.129 0.306-0.179 0.073-0.050 0.14-0.090 0.152-0.090 0.010 0 0.021-0.008 0.021-0.021 0-0.010 0.012-0.015 0.027-0.008 0.015 0.004 0.046-0.008 0.067-0.029 0.063-0.056 0.177-0.133 0.177-0.119 0 0.006 0.048-0.012 0.104-0.044 0.058-0.031 0.104-0.065 0.104-0.075 0-0.008 0.012-0.017 0.027-0.017 0.029 0 0.185-0.081 0.202-0.104 0.012-0.019 0.142-0.085 0.158-0.081 0.008 0 0.021-0.006 0.027-0.017s0.098-0.060 0.2-0.11c0.104-0.052 0.231-0.121 0.283-0.156 0.185-0.119 0.306-0.188 0.323-0.181 0.008 0.004 0.021-0.002 0.027-0.012s0.071-0.050 0.144-0.087c0.071-0.035 0.135-0.075 0.142-0.087 0.012-0.021 0.1-0.060 0.16-0.073 0.052-0.008 0.279-0.127 0.296-0.152 0.006-0.010 0.029-0.021 0.050-0.021s0.054-0.019 0.075-0.042c0.021-0.023 0.050-0.042 0.067-0.042 0.015 0 0.027-0.010 0.027-0.021 0-0.012 0.015-0.021 0.031-0.021 0.019 0 0.1-0.033 0.183-0.073 0.081-0.040 0.165-0.073 0.183-0.073s0.058-0.019 0.087-0.042c0.090-0.071 0.131-0.040 0.071 0.052-0.015 0.023-0.029 0.069-0.033 0.104-0.004 0.033-0.019 0.087-0.033 0.117-0.017 0.029-0.025 0.071-0.021 0.094 0.002 0.021-0.006 0.058-0.021 0.081-0.015 0.025-0.038 0.1-0.052 0.167-0.015 0.069-0.035 0.138-0.046 0.15-0.012 0.015-0.025 0.060-0.029 0.104s-0.017 0.102-0.027 0.131c-0.010 0.029-0.025 0.081-0.031 0.117-0.010 0.067-0.010 0.067 0.050 0.044 0.035-0.012 0.063-0.031 0.063-0.040s0.015-0.017 0.031-0.017c0.040 0 0.119-0.048 0.227-0.14 0.046-0.038 0.094-0.069 0.108-0.069s0.075-0.040 0.138-0.090c0.060-0.048 0.158-0.113 0.215-0.14 0.058-0.029 0.108-0.056 0.115-0.063 0.035-0.035 0.204-0.133 0.275-0.158 0.046-0.017 0.14-0.067 0.208-0.113s0.133-0.083 0.144-0.083c0.015 0 0.2-0.119 0.227-0.146 0.006-0.006 0.029-0.012 0.050-0.017s0.073-0.025 0.115-0.048c0.042-0.021 0.085-0.040 0.098-0.040s0.040-0.019 0.060-0.042c0.019-0.021 0.071-0.050 0.113-0.065 0.042-0.012 0.094-0.035 0.117-0.048 0.023-0.015 0.081-0.042 0.129-0.060s0.133-0.067 0.19-0.106c0.092-0.067 0.185-0.115 0.248-0.129 0.015-0.002 0.052-0.023 0.083-0.046 0.031-0.021 0.087-0.046 0.121-0.054 0.035-0.008 0.148-0.056 0.252-0.108 0.104-0.050 0.202-0.092 0.215-0.092 0.015 0 0.060-0.019 0.104-0.042 0.044-0.021 0.106-0.044 0.138-0.050s0.073-0.023 0.092-0.040c0.019-0.015 0.067-0.042 0.106-0.056s0.131-0.058 0.204-0.098c0.071-0.037 0.146-0.069 0.165-0.069 0.033 0 0.248-0.085 0.34-0.135 0.029-0.017 0.087-0.048 0.131-0.073 0.054-0.029 0.077-0.035 0.077-0.017 0 0.021 0.004 0.021 0.017 0.002 0.010-0.015 0.042-0.029 0.073-0.031 0.067-0.006 0.071-0.042 0.015-0.121-0.037-0.052-0.087-0.158-0.092-0.192-0.006-0.042-0.048-0.050-0.11-0.025z"></path>
<path d="M16.196 8.421c-0.004 0.008-0.025 0.015-0.046 0.012-0.071 0-0.135 0.025-0.21 0.081-0.098 0.075-0.19 0.175-0.19 0.208 0 0.015-0.008 0.027-0.017 0.027-0.040 0-0.098 0.244-0.096 0.406 0.002 0.14 0.012 0.188 0.060 0.288 0.077 0.154 0.2 0.283 0.323 0.34 0.133 0.060 0.177 0.069 0.337 0.065 0.144-0.006 0.196-0.019 0.31-0.073 0.075-0.035 0.152-0.083 0.173-0.106 0.038-0.042 0.038-0.044-0.019-0.11-0.031-0.037-0.121-0.138-0.202-0.221l-0.146-0.15 0.071-0.029c0.037-0.017 0.104-0.044 0.146-0.060s0.081-0.027 0.087-0.019c0.006 0.006 0.012 0 0.012-0.012 0-0.015 0.006-0.023 0.017-0.023 0.008 0.002 0.019 0 0.025-0.002s0.025-0.006 0.044-0.010c0.019-0.002 0.067-0.021 0.108-0.042 0.085-0.040 0.087-0.077 0.006-0.196-0.127-0.188-0.363-0.348-0.537-0.367-0.038-0.004-0.069-0.008-0.069-0.010 0-0.012-0.183-0.008-0.19 0.004zM16.313 8.729c0.046 0.046 0.038 0.094-0.023 0.127-0.029 0.015-0.048 0.010-0.081-0.023-0.042-0.042-0.040-0.060 0.006-0.121 0.027-0.035 0.050-0.031 0.098 0.017z"></path>
<path d="M18.848 8.504c-0.131 0.027-0.292 0.11-0.375 0.194-0.042 0.042-0.077 0.085-0.077 0.094 0 0.010-0.012 0.031-0.027 0.046s-0.042 0.067-0.060 0.115c-0.035 0.094-0.040 0.377-0.006 0.658l0.017 0.144-0.087-0.046c-0.092-0.046-0.185-0.087-0.221-0.094-0.010-0.004-0.104-0.035-0.208-0.073-0.102-0.035-0.196-0.069-0.208-0.071-0.010-0.004-0.085-0.025-0.167-0.050-0.19-0.058-0.302-0.071-0.302-0.031 0 0.015 0.046 0.071 0.102 0.123 0.135 0.127 0.306 0.381 0.452 0.675 0.113 0.225 0.248 0.583 0.223 0.583-0.006 0-0.002 0.012 0.010 0.025 0.010 0.015 0.027 0.060 0.035 0.1s0.021 0.081 0.027 0.092c0.006 0.012 0.015 0.040 0.017 0.063 0.010 0.075 0.021 0.125 0.035 0.169 0.019 0.056 0.092 0.49 0.11 0.656 0.038 0.325 0.010 0.919-0.054 1.26-0.010 0.056-0.025 0.127-0.029 0.156-0.010 0.050-0.029 0.135-0.042 0.177-0.004 0.010-0.012 0.048-0.023 0.083-0.008 0.033-0.021 0.071-0.029 0.083-0.006 0.010-0.023 0.058-0.035 0.104-0.052 0.177-0.252 0.623-0.348 0.769-0.352 0.55-0.577 0.744-0.729 0.629-0.044-0.033-0.104-0.229-0.087-0.283 0.006-0.021 0.004-0.044-0.006-0.050-0.017-0.010-0.017-0.031 0.004-0.221 0.006-0.052 0.017-0.142 0.023-0.198 0.017-0.162 0.033-0.304 0.042-0.344 0.004-0.019 0.012-0.085 0.021-0.146s0.017-0.125 0.021-0.144c0.010-0.058 0.035-0.281 0.042-0.356 0.002-0.040 0.017-0.133 0.031-0.208 0.012-0.075 0.029-0.177 0.033-0.229 0.006-0.094 0.025-0.25 0.040-0.365 0.054-0.379 0.052-0.86-0.004-1.198-0.006-0.040-0.015-0.087-0.015-0.104-0.002-0.019-0.008-0.042-0.017-0.052-0.006-0.012-0.019-0.050-0.027-0.083-0.046-0.169-0.14-0.36-0.219-0.448-0.148-0.165-0.258-0.271-0.279-0.271-0.006 0-0.050-0.027-0.1-0.060-0.154-0.104-0.333-0.154-0.548-0.15-0.167 0.004-0.292 0.012-0.292 0.023 0 0.002-0.017 0.006-0.035 0.012-0.221 0.052-0.462 0.183-0.604 0.327-0.067 0.067-0.121 0.133-0.121 0.15s-0.008 0.031-0.017 0.031c-0.012 0-0.106 0.16-0.119 0.208-0.002 0.006-0.015 0.037-0.029 0.073-0.015 0.033-0.029 0.090-0.031 0.125 0 0.033-0.008 0.067-0.017 0.073-0.027 0.021-0.063 0.45-0.040 0.49 0.006 0.010 0.012 0.029 0.012 0.042 0 0.010 0.019 0.021 0.042 0.021 0.042 0 0.048-0.023 0.1-0.427 0.033-0.248 0.113-0.387 0.275-0.479 0.096-0.054 0.188-0.052 0.302 0.004 0.202 0.104 0.221 0.252 0.158 1.273-0.004 0.079-0.015 0.148-0.021 0.154s0.023 0.031 0.067 0.054c0.042 0.023 0.115 0.060 0.16 0.085s0.117 0.058 0.156 0.073c0.185 0.071 0.292 0.188 0.3 0.331 0.004 0.073-0.042 0.213-0.071 0.213-0.006 0-0.031 0.019-0.056 0.040-0.023 0.021-0.144 0.098-0.269 0.171s-0.231 0.138-0.237 0.144c-0.006 0.006-0.029 0.021-0.052 0.033-0.048 0.027-0.044-0.002-0.063 0.54-0.031 0.898-0.029 0.923 0.021 1.217 0.015 0.077 0.081 0.26 0.1 0.275 0.010 0.006 0.015 0.017 0.010 0.023-0.015 0.023 0.158 0.271 0.24 0.34 0.158 0.138 0.233 0.167 0.431 0.165 0.098 0 0.196-0.004 0.219-0.010 0.075-0.019 0.369-0.169 0.406-0.206 0.006-0.006 0.060-0.052 0.123-0.104 0.106-0.087 0.175-0.154 0.39-0.387 0.156-0.169 0.473-0.638 0.575-0.852 0.021-0.046 0.060-0.121 0.085-0.167 0.077-0.138 0.275-0.588 0.379-0.854 0.054-0.138 0.106-0.267 0.117-0.288 0.012-0.021 0.048-0.11 0.079-0.198 0.117-0.31 0.148-0.342 0.192-0.188 0.015 0.050 0.063 0.198 0.106 0.329 0.046 0.131 0.085 0.254 0.090 0.271s0.050 0.16 0.104 0.321c0.054 0.158 0.1 0.298 0.102 0.312 0.004 0.012 0.017 0.046 0.029 0.075 0.029 0.071 0.052 0.131 0.056 0.156 0.002 0.023 0.008 0.040 0.1 0.269 0.117 0.288 0.21 0.306 0.619 0.121 0.258-0.117 0.513-0.221 0.527-0.217 0.008 0.002 0.015-0.006 0.015-0.021 0-0.012 0.006-0.017 0.012-0.010 0.008 0.008 0.040-0.004 0.071-0.027s0.063-0.035 0.071-0.027c0.006 0.006 0.012 0.002 0.012-0.010 0-0.015 0.012-0.025 0.027-0.025 0.063 0 0.215-0.175 0.235-0.273 0.017-0.085 0.012-0.248-0.008-0.306-0.010-0.031-0.033-0.098-0.048-0.15s-0.040-0.115-0.056-0.142c-0.017-0.025-0.025-0.046-0.019-0.046s-0.021-0.067-0.060-0.146c-0.040-0.081-0.071-0.152-0.071-0.16 0-0.021-0.112-0.267-0.127-0.277-0.008-0.006-0.019-0.029-0.023-0.052-0.002-0.023-0.010-0.046-0.017-0.052s-0.060-0.115-0.121-0.24c-0.060-0.127-0.123-0.252-0.14-0.281s-0.096-0.175-0.175-0.323c-0.081-0.15-0.162-0.3-0.183-0.335s-0.083-0.148-0.14-0.25c-0.056-0.102-0.108-0.19-0.115-0.196s-0.029-0.044-0.048-0.083c-0.042-0.083-0.256-0.458-0.281-0.49-0.008-0.012-0.044-0.073-0.077-0.135s-0.112-0.204-0.175-0.312c-0.063-0.108-0.142-0.244-0.175-0.302-0.173-0.302-0.246-0.51-0.217-0.623 0.012-0.054 0.117-0.106 0.194-0.1 0.169 0.015 0.467 0.267 1.006 0.858 0.24 0.263 0.225 0.246 0.344 0.385 0.046 0.054 0.117 0.133 0.156 0.177s0.115 0.129 0.167 0.19c0.148 0.175 0.273 0.317 0.315 0.358 0.023 0.021 0.040 0.044 0.040 0.052s0.044 0.060 0.094 0.115c0.052 0.054 0.094 0.104 0.094 0.108 0 0.006 0.017 0.027 0.038 0.048 0.019 0.021 0.065 0.073 0.098 0.119 0.035 0.044 0.079 0.098 0.102 0.121 0.021 0.023 0.162 0.196 0.317 0.387 0.152 0.19 0.29 0.36 0.304 0.377 0.015 0.015 0.085 0.104 0.158 0.198 0.071 0.092 0.158 0.2 0.192 0.24s0.102 0.125 0.154 0.19 0.208 0.204 0.323 0.196c0.048-0.004 0.102-0.019 0.119-0.031 0.015-0.015 0.029-0.021 0.029-0.015 0 0.019 0.29-0.148 0.385-0.221 0.231-0.177 0.702-0.619 0.762-0.717 0.056-0.090 0.038-0.19-0.050-0.273-0.038-0.035-0.169-0.138-0.296-0.231-0.125-0.092-0.237-0.175-0.25-0.185-0.063-0.048-0.381-0.302-0.413-0.327-0.019-0.017-0.040-0.031-0.044-0.031s-0.042-0.031-0.081-0.069c-0.040-0.035-0.108-0.096-0.152-0.129-0.044-0.035-0.146-0.119-0.227-0.188s-0.175-0.144-0.206-0.167c-0.033-0.023-0.075-0.056-0.094-0.073-0.019-0.019-0.085-0.075-0.148-0.125s-0.146-0.123-0.181-0.16c-0.038-0.035-0.069-0.060-0.069-0.052s-0.008 0.004-0.017-0.006c-0.008-0.012-0.058-0.056-0.112-0.1s-0.11-0.090-0.125-0.104c-0.015-0.015-0.079-0.067-0.142-0.119s-0.138-0.113-0.165-0.135c-0.027-0.023-0.069-0.058-0.090-0.079-0.021-0.019-0.044-0.035-0.050-0.035-0.008 0-0.042-0.029-0.075-0.063-0.031-0.035-0.067-0.063-0.077-0.063s-0.023-0.006-0.027-0.017c-0.015-0.033-0.392-0.338-0.59-0.475-0.337-0.235-0.598-0.365-0.865-0.427-0.16-0.037-0.429-0.046-0.569-0.015z"></path>
<path d="M13.448 9.188c-0.033 0.008-0.135 0.048-0.223 0.090-0.090 0.042-0.167 0.077-0.173 0.077-0.008 0-0.052 0.027-0.1 0.058-0.048 0.033-0.14 0.087-0.202 0.121s-0.119 0.065-0.125 0.071c-0.006 0.006-0.038 0.025-0.073 0.042-0.033 0.017-0.067 0.038-0.073 0.044s-0.050 0.033-0.098 0.060c-0.050 0.027-0.112 0.083-0.142 0.125-0.054 0.077-0.054 0.079-0.042 0.398 0.023 0.627 0.029 1.258 0.012 1.287-0.031 0.048-0.106 0.004-0.169-0.098-0.033-0.054-0.060-0.106-0.058-0.117 0-0.010-0.008-0.025-0.019-0.031-0.008-0.006-0.044-0.065-0.077-0.127-0.065-0.127-0.198-0.377-0.279-0.521-0.15-0.273-0.252-0.365-0.396-0.346-0.108 0.012-0.133 0.025-0.377 0.173-0.119 0.073-0.219 0.131-0.221 0.131-0.008 0-0.219 0.135-0.25 0.16-0.010 0.008-0.046 0.029-0.077 0.046-0.075 0.040-0.123 0.146-0.11 0.244 0.010 0.077 0.25 0.588 0.292 0.617 0.010 0.008 0.015 0.017 0.006 0.017s0.050 0.127 0.129 0.281c0.079 0.154 0.138 0.281 0.129 0.281s0 0.010 0.017 0.021c0.017 0.010 0.031 0.027 0.031 0.035 0 0.029 0.248 0.517 0.271 0.531 0.015 0.010 0.015 0.017 0 0.017s-0.015 0.006 0 0.017c0.023 0.017 0.16 0.283 0.16 0.31 0 0.008 0.006 0.025 0.017 0.038 0.008 0.010 0.154 0.292 0.323 0.625 0.527 1.038 0.594 1.165 0.621 1.181 0.015 0.008 0.046 0.017 0.069 0.017 0.063 0 0.258-0.065 0.258-0.087 0-0.008 0.010-0.017 0.023-0.017s0.063-0.029 0.112-0.063c0.050-0.035 0.1-0.063 0.112-0.063s0.023-0.010 0.023-0.025c0-0.012 0.006-0.017 0.015-0.010 0.006 0.008 0.027 0.002 0.046-0.015 0.044-0.037 0.435-0.262 0.458-0.262 0.008 0 0.056-0.029 0.102-0.063 0.048-0.035 0.087-0.058 0.087-0.052s0.017-0.004 0.040-0.025c0.123-0.119 0.102-0.288-0.073-0.606-0.131-0.237-0.237-0.45-0.237-0.475 0-0.012-0.012-0.035-0.029-0.048-0.021-0.019-0.031-0.087-0.015-0.123 0.008-0.019 0.16 0.1 0.398 0.315 0.042 0.037 0.108 0.094 0.152 0.127 0.044 0.031 0.119 0.094 0.167 0.14 0.048 0.044 0.133 0.104 0.188 0.135 0.123 0.067 0.198 0.058 0.375-0.046 0.067-0.040 0.129-0.071 0.14-0.071 0.008 0 0.021-0.008 0.025-0.017 0.004-0.010 0.067-0.050 0.142-0.087 0.075-0.040 0.165-0.094 0.2-0.119 0.035-0.027 0.071-0.048 0.079-0.048 0.023 0 0.498-0.273 0.542-0.31 0.021-0.019 0.042-0.031 0.046-0.027 0.015 0.008 0.223-0.131 0.256-0.169 0.015-0.021 0.023-0.056 0.015-0.083-0.012-0.056-0.081-0.14-0.11-0.14-0.035 0-0.458-0.223-1.015-0.533-0.446-0.25-0.627-0.35-0.762-0.419-0.146-0.073-0.204-0.125-0.24-0.21-0.050-0.115-0.063-0.648-0.040-1.504 0.021-0.777 0.023-0.735-0.048-0.81-0.065-0.065-0.131-0.083-0.225-0.065z"></path>
<path d="M5.956 9.671c-0.31 0.19-0.281 0.177-0.329 0.133-0.025-0.023-0.044-0.056-0.044-0.075 0-0.048-0.069-0.123-0.106-0.117-0.075 0.012-0.117 0.037-0.158 0.1-0.046 0.071-0.173 0.354-0.183 0.41-0.004 0.019-0.008 0.035-0.010 0.038-0.004 0.004-0.006 0.012-0.010 0.021-0.006 0.025-0.027 0.079-0.117 0.308-0.11 0.275-0.11 0.277-0.16 0.385-0.102 0.225-0.152 0.465-0.11 0.533 0.012 0.023 0.023 0.029 0.023 0.015s0.019-0.077 0.044-0.142c0.071-0.19 0.183-0.323 0.669-0.792 0.348-0.338 0.51-0.488 0.619-0.573 0.115-0.094 0.198-0.231 0.181-0.302-0.021-0.083-0.106-0.067-0.306 0.056z"></path>
<path d="M8.406 10.992c-0.069 0.015-0.379 0.098-0.406 0.108-0.017 0.006-0.035 0.012-0.042 0.012-0.006 0.002-0.048 0.025-0.094 0.052-0.046 0.029-0.090 0.050-0.096 0.048-0.006 0-0.040 0.027-0.075 0.065-0.071 0.077-0.112 0.19-0.115 0.302 0 0.077 0.035 0.296 0.060 0.358 0.006 0.017 0.017 0.048 0.021 0.069s0.044 0.129 0.087 0.24c0.044 0.11 0.117 0.296 0.158 0.41 0.073 0.192 0.204 0.515 0.273 0.671 0.017 0.035 0.029 0.069 0.029 0.075s0.010 0.038 0.025 0.071c0.012 0.031 0.025 0.071 0.029 0.085 0.002 0.017 0.027 0.077 0.056 0.135 0.027 0.060 0.056 0.131 0.065 0.16s0.035 0.094 0.058 0.146c0.023 0.052 0.044 0.102 0.046 0.115 0.004 0.010 0.021 0.056 0.040 0.102 0.019 0.044 0.035 0.087 0.035 0.094 0 0.008 0.019 0.054 0.042 0.102 0.023 0.046 0.042 0.096 0.042 0.106 0 0.012 0.033 0.098 0.075 0.192s0.077 0.181 0.079 0.194c0.004 0.012 0.021 0.060 0.042 0.106 0.067 0.152 0.081 0.188 0.087 0.219 0.004 0.017 0.037 0.096 0.075 0.179 0.056 0.123 0.083 0.158 0.152 0.194 0.046 0.025 0.104 0.058 0.129 0.073 0.085 0.048 0.235 0.192 0.321 0.306 0.1 0.133 0.26 0.458 0.277 0.565 0.006 0.040 0.019 0.096 0.029 0.123 0.048 0.135 0.038 0.754-0.015 0.848-0.012 0.023-0.010 0.052 0.008 0.087 0.027 0.052 0.054 0.117 0.063 0.156 0.004 0.010 0.040 0.098 0.081 0.192s0.075 0.175 0.075 0.181c0 0.006 0.065 0.15 0.144 0.321 0.077 0.169 0.15 0.329 0.158 0.358s0.023 0.056 0.029 0.063c0.006 0.006 0.035 0.056 0.065 0.115 0.087 0.177 0.156 0.225 0.308 0.217 0.225-0.010 0.442-0.2 0.442-0.383 0-0.050-0.012-0.083-0.125-0.333-0.081-0.181-0.11-0.25-0.117-0.271-0.006-0.031-0.083-0.208-0.217-0.496-0.046-0.102-0.083-0.19-0.083-0.194s-0.021-0.054-0.044-0.108c-0.085-0.192-0.108-0.242-0.165-0.381-0.033-0.077-0.054-0.146-0.046-0.152 0.006-0.006 0-0.012-0.012-0.012-0.015 0-0.025-0.012-0.025-0.029 0-0.015-0.033-0.102-0.075-0.192-0.113-0.25-0.183-0.417-0.185-0.446-0.002-0.006-0.023-0.054-0.048-0.108s-0.046-0.106-0.046-0.115c-0.002-0.008-0.019-0.054-0.042-0.1s-0.040-0.090-0.042-0.098c0-0.008-0.027-0.073-0.060-0.146s-0.067-0.154-0.075-0.183c-0.008-0.029-0.050-0.123-0.092-0.208-0.044-0.085-0.079-0.162-0.081-0.173-0.002-0.008-0.019-0.044-0.035-0.077-0.019-0.035-0.027-0.063-0.021-0.063 0.004 0-0.008-0.031-0.031-0.069-0.023-0.035-0.042-0.081-0.042-0.098s-0.012-0.056-0.029-0.087c-0.027-0.052-0.027-0.056 0.033-0.081 0.087-0.035 0.283-0.040 0.406-0.008 0.215 0.056 0.537 0.235 0.652 0.367 0.252 0.281 0.325 0.379 0.429 0.571 0.044 0.079 0.085 0.15 0.094 0.156 0.027 0.021 0.394 0.733 0.394 0.769 0 0.010 0.019 0.042 0.042 0.069 0.021 0.029 0.035 0.058 0.029 0.063-0.004 0.006 0.004 0.023 0.023 0.038 0.017 0.015 0.031 0.035 0.031 0.046 0 0.021 0.073 0.175 0.4 0.846 0.090 0.185 0.183 0.379 0.204 0.427s0.054 0.11 0.069 0.14c0.017 0.029 0.052 0.096 0.077 0.15 0.067 0.14 0.108 0.171 0.227 0.171 0.092 0 0.235-0.052 0.317-0.117 0.048-0.040 0.104-0.156 0.106-0.221 0.004-0.135-0.027-0.213-0.337-0.848-0.090-0.183-0.24-0.494-0.333-0.687-0.094-0.196-0.183-0.377-0.2-0.406s-0.054-0.104-0.083-0.167c-0.14-0.296-0.369-0.742-0.435-0.844-0.040-0.065-0.073-0.121-0.073-0.129 0-0.006-0.015-0.027-0.031-0.046s-0.104-0.127-0.194-0.242c-0.21-0.265-0.215-0.271-0.39-0.4-0.079-0.060-0.156-0.119-0.171-0.131-0.015-0.010-0.033-0.021-0.046-0.021-0.010 0-0.023-0.006-0.027-0.017-0.006-0.012-0.14-0.079-0.46-0.221-0.067-0.029-0.135-0.054-0.152-0.054-0.025 0-0.029-0.010-0.019-0.038 0.052-0.119 0.113-0.296 0.121-0.352 0.006-0.037 0.015-0.075 0.021-0.083 0.038-0.060 0.060-0.625 0.031-0.777-0.010-0.052-0.023-0.123-0.029-0.156-0.044-0.25-0.158-0.513-0.3-0.687-0.046-0.058-0.090-0.121-0.096-0.142-0.008-0.019-0.021-0.035-0.029-0.035s-0.069-0.052-0.133-0.115c-0.244-0.237-0.55-0.402-0.854-0.46-0.065-0.012-0.402-0.025-0.44-0.017zM8.846 11.763c0.046 0.019 0.085 0.040 0.092 0.048 0.006 0.006 0.048 0.038 0.094 0.069 0.194 0.127 0.408 0.398 0.438 0.554 0.004 0.019 0.008 0.037 0.008 0.040 0.002 0.004 0.002 0.012 0.004 0.021 0.002 0.010 0.010 0.033 0.021 0.052 0.021 0.040 0.042 0.162 0.044 0.256 0.002 0.125-0.031 0.479-0.046 0.479-0.002 0-0.008 0.027-0.012 0.063-0.019 0.112-0.117 0.331-0.194 0.431-0.042 0.054-0.081 0.098-0.087 0.1-0.008 0-0.035-0.058-0.060-0.131-0.027-0.071-0.058-0.152-0.069-0.181-0.012-0.029-0.023-0.056-0.025-0.063s-0.010-0.025-0.017-0.042c-0.008-0.017-0.042-0.106-0.075-0.198s-0.079-0.215-0.102-0.271c-0.023-0.058-0.069-0.181-0.104-0.275-0.035-0.096-0.085-0.213-0.108-0.26s-0.042-0.094-0.042-0.102c0-0.006-0.021-0.058-0.046-0.115s-0.048-0.106-0.048-0.112c-0.002-0.006-0.019-0.048-0.040-0.094-0.069-0.152-0.077-0.183-0.063-0.223 0.006-0.023 0.031-0.048 0.056-0.058 0.077-0.031 0.296-0.023 0.381 0.012z"></path>
<path d="M7.008 13.302c-0.079 0.015-0.169 0.033-0.198 0.044-0.027 0.008-0.056 0.015-0.065 0.012-0.010-0.002-0.017 0.004-0.017 0.015s-0.031 0.031-0.067 0.046c-0.102 0.042-0.29 0.171-0.354 0.244-0.029 0.035-0.067 0.071-0.083 0.081-0.040 0.025-0.225 0.269-0.225 0.296 0 0.012-0.008 0.023-0.021 0.023-0.010 0-0.021 0.008-0.021 0.021 0 0.010-0.027 0.079-0.060 0.154-0.071 0.152-0.119 0.308-0.14 0.46-0.019 0.138-0.027 0.41-0.010 0.438 0.006 0.010 0.012 0.040 0.015 0.063 0.008 0.077 0.031 0.165 0.050 0.188 0.008 0.010 0.019 0.027 0.019 0.038 0.006 0.065 0.273 0.39 0.321 0.39 0.008 0 0.040 0.015 0.067 0.033l0.052 0.033-0.106 0.11c-0.144 0.148-0.24 0.283-0.327 0.469-0.042 0.085-0.077 0.16-0.077 0.167-0.002 0.010-0.073 0.242-0.087 0.292-0.029 0.083-0.023 0.519 0.008 0.656 0.017 0.079 0.031 0.158 0.033 0.171 0 0.015 0.008 0.027 0.019 0.027 0.008 0 0.015 0.006 0.012 0.015-0.017 0.050 0.142 0.363 0.263 0.525 0.085 0.115 0.283 0.312 0.419 0.415 0.029 0.023 0.26 0.156 0.323 0.185 0.087 0.042 0.283 0.104 0.385 0.121 0.023 0.004 0.079 0.015 0.125 0.023 0.117 0.021 0.548 0.025 0.635 0.004 0.040-0.008 0.115-0.021 0.167-0.029 0.052-0.006 0.11-0.021 0.131-0.031 0.019-0.012 0.035-0.015 0.035-0.008 0 0.004 0.054-0.010 0.121-0.033 0.479-0.177 0.858-0.448 1.081-0.777 0.056-0.081 0.106-0.154 0.117-0.16 0.008-0.006 0.019-0.029 0.023-0.052s0.029-0.075 0.052-0.117c0.067-0.11 0.142-0.383 0.158-0.579 0.048-0.525-0.063-0.91-0.36-1.267-0.173-0.206-0.527-0.398-0.752-0.408-0.035 0-0.065-0.008-0.065-0.015 0-0.008-0.023-0.012-0.052-0.010-0.029 0-0.052 0.006-0.052 0.012s-0.035 0.010-0.079 0.012c-0.106 0.002-0.146 0.015-0.246 0.067-0.158 0.081-0.256 0.21-0.308 0.41-0.11 0.421 0.177 0.835 0.567 0.815 0.279-0.017 0.535-0.269 0.529-0.527 0-0.085 0.004-0.106 0.027-0.096 0.052 0.019 0.194 0.269 0.229 0.402 0.021 0.079 0.029 0.373 0.010 0.39-0.002 0.004-0.006 0.012-0.008 0.021-0.008 0.052-0.090 0.237-0.133 0.306-0.027 0.044-0.113 0.144-0.188 0.221-0.654 0.66-1.798 0.677-2.177 0.031-0.131-0.221-0.194-0.575-0.154-0.854 0.017-0.104 0.035-0.173 0.090-0.296 0.017-0.035 0.029-0.071 0.029-0.079s0.033-0.065 0.075-0.125c0.079-0.123 0.179-0.227 0.379-0.406 0.071-0.063 0.129-0.119 0.129-0.127 0-0.006-0.085-0.048-0.188-0.092-0.104-0.042-0.202-0.090-0.219-0.106-0.015-0.017-0.038-0.029-0.048-0.029-0.019 0-0.073-0.058-0.171-0.179-0.11-0.135-0.196-0.423-0.194-0.654 0-0.11 0.029-0.321 0.056-0.392 0.058-0.158 0.085-0.213 0.1-0.213 0.008 0 0.017-0.015 0.017-0.033 0-0.033 0.012-0.050 0.142-0.179 0.096-0.098 0.267-0.188 0.375-0.194 0.044-0.002 0.092-0.010 0.104-0.019 0.012-0.006 0.027-0.004 0.035 0.006 0.006 0.010 0.027 0.019 0.048 0.019 0.060-0.004 0.219 0.077 0.285 0.146 0.087 0.090 0.123 0.227 0.085 0.321-0.035 0.081-0.090 0.148-0.15 0.179-0.042 0.023-0.044 0.019-0.031-0.044 0.019-0.081-0.029-0.169-0.119-0.223-0.069-0.042-0.277-0.044-0.292-0.004-0.004 0.015-0.019 0.025-0.031 0.025-0.050 0-0.146 0.15-0.156 0.24-0.025 0.229 0.217 0.448 0.496 0.448 0.365 0 0.629-0.248 0.656-0.612 0.023-0.298-0.081-0.517-0.335-0.721-0.165-0.133-0.448-0.185-0.729-0.135z"></path>
<path d="M5.271 18.438c0 0.025-0.181 0.402-0.235 0.49-0.056 0.094-0.256 0.398-0.285 0.435-0.183 0.233-0.471 0.533-0.585 0.612-0.027 0.019-0.054 0.037-0.060 0.046-0.046 0.054-0.3 0.219-0.448 0.292-0.033 0.017-0.067 0.035-0.073 0.042s-0.071 0.042-0.146 0.081c-0.075 0.040-0.173 0.094-0.219 0.121s-0.11 0.063-0.146 0.079c-0.033 0.019-0.1 0.056-0.146 0.083-0.046 0.029-0.117 0.071-0.156 0.094-0.127 0.073-0.169 0.102-0.288 0.2-0.231 0.188-0.3 0.571-0.144 0.783 0.106 0.144 0.421 0.225 0.675 0.173 0.094-0.021 0.098-0.021 0.121-0.033 0.012-0.008 0.056-0.025 0.1-0.040 0.115-0.035 0.302-0.146 0.479-0.279 0.14-0.104 0.515-0.458 0.515-0.483 0-0.006 0.048-0.065 0.104-0.131 0.058-0.067 0.104-0.129 0.104-0.142 0-0.010 0.019-0.037 0.042-0.058s0.042-0.050 0.042-0.065c0-0.015 0.008-0.029 0.019-0.033 0.029-0.010 0.262-0.465 0.346-0.673 0.096-0.233 0.221-0.594 0.206-0.594-0.006 0 0-0.017 0.010-0.038 0.012-0.023 0.025-0.063 0.031-0.090 0.004-0.027 0.033-0.15 0.063-0.275 0.065-0.273 0.073-0.31 0.087-0.442 0.006-0.058 0.015-0.115 0.019-0.129s0-0.031-0.010-0.038c-0.012-0.008-0.021-0.002-0.021 0.010z"></path>
<path d="M5.677 19.192c-0.010 0.033-0.027 0.121-0.046 0.256-0.025 0.19-0.010 0.808 0.025 0.992 0.006 0.027 0.015 0.085 0.021 0.133 0.046 0.319 0.208 0.725 0.348 0.867 0.069 0.069 0.087 0.077 0.175 0.073 0.079-0.004 0.108-0.017 0.156-0.071 0.052-0.058 0.073-0.117 0.063-0.177-0.002-0.010-0.006-0.044-0.010-0.073-0.008-0.081-0.198-0.419-0.246-0.438-0.008-0.004-0.017-0.015-0.017-0.025s-0.038-0.081-0.081-0.16c-0.071-0.123-0.235-0.477-0.227-0.492 0.002-0.002-0.012-0.052-0.031-0.108-0.033-0.104-0.048-0.162-0.069-0.308-0.006-0.044-0.015-0.092-0.017-0.104-0.002-0.015-0.010-0.035-0.019-0.050-0.008-0.012-0.006-0.029 0.006-0.038 0.010-0.006 0.015-0.029 0.006-0.048-0.010-0.019-0.017-0.085-0.017-0.146 0-0.11-0.004-0.129-0.021-0.083z"></path>
</symbol>
<symbol id="icon-expand_more" viewBox="0 0 24 24">
<title>expand_more</title>
<path d="M16.594 8.578l1.406 1.406-6 6-6-6 1.406-1.406 4.594 4.594z"></path>
</symbol>
<symbol id="icon-link" viewBox="0 0 24 24">
<title>link</title>
<path d="M17.016 6.984c2.766 0 4.969 2.25 4.969 5.016s-2.203 5.016-4.969 5.016h-4.031v-1.922h4.031c1.688 0 3.094-1.406 3.094-3.094s-1.406-3.094-3.094-3.094h-4.031v-1.922h4.031zM8.016 12.984v-1.969h7.969v1.969h-7.969zM3.891 12c0 1.688 1.406 3.094 3.094 3.094h4.031v1.922h-4.031c-2.766 0-4.969-2.25-4.969-5.016s2.203-5.016 4.969-5.016h4.031v1.922h-4.031c-1.688 0-3.094 1.406-3.094 3.094z"></path>
</symbol>
<symbol id="icon-open_in_new" viewBox="0 0 24 24">
<title>open_in_new</title>
<path d="M14.016 3h6.984v6.984h-2.016v-3.563l-9.797 9.797-1.406-1.406 9.797-9.797h-3.563v-2.016zM18.984 18.984v-6.984h2.016v6.984c0 1.078-0.938 2.016-2.016 2.016h-13.969c-1.125 0-2.016-0.938-2.016-2.016v-13.969c0-1.078 0.891-2.016 2.016-2.016h6.984v2.016h-6.984v13.969h13.969z"></path>
</symbol>
<symbol id="icon-play_arrow" viewBox="0 0 24 24">
<title>play_arrow</title>
<path d="M8.016 5.016l10.969 6.984-10.969 6.984v-13.969z"></path>
</symbol>
<symbol id="icon-send" viewBox="0 0 24 24">
<title>send</title>
<path d="M2.016 21v-6.984l15-2.016-15-2.016v-6.984l21 9z"></path>
</symbol>
</defs>
</svg>
